M48
; DRILL file {KiCad 8.0.3} date 2024-08-31T13:36:10+0900
; FORMAT={-:-/ absolute / metric / decimal}
; #@! TF.CreationDate,2024-08-31T13:36:10+09:00
; #@! TF.GenerationSoftware,Kicad,Pcbnew,8.0.3
; #@! TF.FileFunction,MixedPlating,1,2
FMAT,2
METRIC
; #@! TA.AperFunction,Plated,PTH,ComponentDrill
T1C0.200
; #@! TA.AperFunction,Plated,PTH,ViaDrill
T2C0.300
; #@! TA.AperFunction,Plated,PTH,ComponentDrill
T3C0.600
; #@! TA.AperFunction,Plated,PTH,ComponentDrill
T4C0.950
; #@! TA.AperFunction,Plated,PTH,ComponentDrill
T5C1.000
; #@! TA.AperFunction,Plated,PTH,ComponentDrill
T6C1.300
; #@! TA.AperFunction,Plated,PTH,ComponentDrill
T7C1.850
; #@! TA.AperFunction,Plated,PTH,ComponentDrill
T8C1.900
; #@! TA.AperFunction,Plated,PTH,ComponentDrill
T9C2.300
; #@! TA.AperFunction,Plated,PTH,ComponentDrill
T10C2.700
%
G90
G05
T1
X150.835Y-91.06
X150.835Y-92.16
X151.385Y-90.51
X151.385Y-91.61
X151.385Y-92.71
X151.935Y-91.06
X151.935Y-92.16
X152.485Y-90.51
X152.485Y-91.61
X152.485Y-92.71
X153.035Y-91.06
X153.035Y-92.16
T2
X101.6Y-83.82
X101.6Y-104.14
X101.6Y-106.68
X101.6Y-109.22
X101.6Y-111.76
X101.6Y-114.3
X101.6Y-116.84
X101.6Y-119.38
X101.6Y-121.92
X101.6Y-124.46
X101.6Y-127.0
X101.6Y-129.54
X101.6Y-132.08
X102.616Y-98.552
X104.14Y-121.92
X104.14Y-124.46
X104.14Y-127.0
X104.14Y-129.54
X104.14Y-132.08
X106.68Y-86.36
X106.68Y-91.44
X106.68Y-124.46
X106.68Y-127.0
X106.68Y-129.54
X106.68Y-132.08
X109.22Y-88.9
X109.22Y-127.0
X109.22Y-129.54
X109.22Y-132.08
X111.76Y-86.36
X111.76Y-91.44
X111.76Y-99.06
X111.76Y-114.3
X111.76Y-127.0
X111.76Y-129.54
X114.3Y-88.9
X114.3Y-111.76
X114.3Y-116.84
X114.3Y-127.0
X114.3Y-129.54
X114.3Y-132.08
X116.84Y-86.36
X116.84Y-132.08
X118.11Y-100.215
X118.11Y-102.235
X119.38Y-88.9
X119.38Y-96.52
X119.38Y-100.965
X119.38Y-116.84
X119.38Y-132.08
X121.64Y-98.07
X121.92Y-86.36
X121.92Y-114.3
X124.46Y-116.84
X127.0Y-86.36
X127.0Y-114.3
X127.635Y-94.66
X127.635Y-99.055
X129.36Y-88.895
X130.175Y-105.855
X132.08Y-86.36
X133.35Y-95.25
X133.35Y-96.52
X133.35Y-97.79
X133.35Y-101.715
X134.62Y-83.82
X134.62Y-95.25
X134.62Y-96.52
X134.62Y-97.79
X135.89Y-95.25
X135.89Y-96.52
X135.89Y-97.79
X137.16Y-86.36
X137.16Y-95.25
X137.16Y-96.52
X137.16Y-97.79
X137.16Y-124.46
X137.16Y-129.54
X139.065Y-90.805
X139.065Y-117.475
X139.7Y-83.82
X139.7Y-127.0
X139.7Y-132.08
X141.18Y-97.365
X141.18Y-113.24
X142.24Y-86.36
X142.24Y-124.46
X142.24Y-129.54
X144.78Y-127.0
X144.78Y-132.08
X146.05Y-93.98
X147.32Y-83.82
X147.32Y-101.6
X147.32Y-124.46
X147.32Y-129.54
X147.505Y-114.3
X149.225Y-93.98
X149.86Y-86.36
X149.86Y-96.52
X149.86Y-127.0
X149.86Y-132.08
X152.4Y-83.82
X152.4Y-99.06
X152.4Y-101.6
X152.4Y-124.46
X152.4Y-129.54
X154.94Y-86.36
X154.94Y-96.52
X154.94Y-127.0
X154.94Y-132.08
X157.48Y-83.82
X157.48Y-101.6
X157.48Y-124.46
X157.48Y-129.54
X159.385Y-97.79
X160.02Y-86.36
X160.02Y-132.08
X162.56Y-83.82
X162.56Y-101.6
X162.56Y-104.14
X162.56Y-106.68
X162.56Y-109.22
X162.56Y-111.76
X162.56Y-129.54
X163.195Y-88.9
X163.195Y-97.81
X165.1Y-101.6
X165.1Y-104.14
X165.1Y-106.68
X165.1Y-109.22
X165.1Y-111.76
X165.1Y-127.0
X165.1Y-132.08
X167.64Y-83.82
X167.64Y-96.52
X167.64Y-129.54
X170.18Y-96.52
X170.18Y-101.6
X170.18Y-127.0
X170.18Y-132.08
X172.72Y-96.52
X172.72Y-129.54
X175.26Y-83.82
X175.26Y-96.52
X175.26Y-127.0
X175.26Y-132.08
X177.8Y-96.52
X177.8Y-101.6
X177.8Y-129.54
X180.34Y-96.52
X180.34Y-127.0
X180.34Y-132.08
X182.88Y-83.82
X182.88Y-96.52
X182.88Y-101.6
X185.42Y-96.52
X187.96Y-83.82
X187.96Y-96.52
X187.96Y-101.6
X187.96Y-114.3
X187.96Y-119.38
X187.96Y-124.46
X190.5Y-96.52
X190.5Y-111.76
X190.5Y-121.92
X193.04Y-83.82
X193.04Y-96.52
X193.04Y-101.6
X193.04Y-114.3
X193.04Y-119.38
X193.04Y-132.08
X195.58Y-96.52
X195.58Y-104.14
X195.58Y-129.54
X198.12Y-83.82
X198.12Y-96.52
X198.12Y-101.6
X198.12Y-106.68
X198.12Y-132.08
T4
X109.24Y-94.322
X109.24Y-96.322
X111.74Y-94.322
X111.74Y-96.322
T5
X112.695Y-120.4
X112.695Y-131.4
X188.715Y-120.865
X188.715Y-131.865
T6
X168.475Y-88.345
X168.475Y-93.345
X180.975Y-88.345
X180.975Y-93.345
X184.985Y-88.345
X184.985Y-93.345
X197.485Y-88.345
X197.485Y-93.345
T7
X156.38Y-105.24
X156.38Y-109.24
X170.38Y-105.24
X170.38Y-109.24
T8
X117.695Y-123.4
X117.695Y-128.4
X183.715Y-123.865
X183.715Y-128.865
T9
X104.49Y-91.462
X116.49Y-91.462
T10
X117.76Y-106.49
X117.76Y-113.69
X183.515Y-107.1
X183.515Y-114.3
T3
G00X111.21Y-103.34
M15
G01X112.31Y-103.34
M16
G05
G00X111.21Y-116.84
M15
G01X112.31Y-116.84
M16
G05
G00X190.065Y-103.95
M15
G01X188.965Y-103.95
M16
G05
G00X190.065Y-117.45
M15
G01X188.965Y-117.45
M16
G05
M30
