%TF.GenerationSoftware,KiCad,Pcbnew,8.0.3*%
%TF.CreationDate,2024-08-31T13:36:08+09:00*%
%TF.ProjectId,Altair_Remote_Emergency_Stop_V1,416c7461-6972-45f5-9265-6d6f74655f45,rev?*%
%TF.SameCoordinates,Original*%
%TF.FileFunction,Copper,L2,Bot*%
%TF.FilePolarity,Positive*%
%FSLAX46Y46*%
G04 Gerber Fmt 4.6, Leading zero omitted, Abs format (unit mm)*
G04 Created by KiCad (PCBNEW 8.0.3) date 2024-08-31 13:36:08*
%MOMM*%
%LPD*%
G01*
G04 APERTURE LIST*
G04 Aperture macros list*
%AMRoundRect*
0 Rectangle with rounded corners*
0 $1 Rounding radius*
0 $2 $3 $4 $5 $6 $7 $8 $9 X,Y pos of 4 corners*
0 Add a 4 corners polygon primitive as box body*
4,1,4,$2,$3,$4,$5,$6,$7,$8,$9,$2,$3,0*
0 Add four circle primitives for the rounded corners*
1,1,$1+$1,$2,$3*
1,1,$1+$1,$4,$5*
1,1,$1+$1,$6,$7*
1,1,$1+$1,$8,$9*
0 Add four rect primitives between the rounded corners*
20,1,$1+$1,$2,$3,$4,$5,0*
20,1,$1+$1,$4,$5,$6,$7,0*
20,1,$1+$1,$6,$7,$8,$9,0*
20,1,$1+$1,$8,$9,$2,$3,0*%
G04 Aperture macros list end*
%TA.AperFunction,ComponentPad*%
%ADD10R,1.600000X1.600000*%
%TD*%
%TA.AperFunction,ComponentPad*%
%ADD11C,1.600000*%
%TD*%
%TA.AperFunction,ComponentPad*%
%ADD12C,4.000000*%
%TD*%
%TA.AperFunction,ComponentPad*%
%ADD13R,2.000000X0.900000*%
%TD*%
%TA.AperFunction,ComponentPad*%
%ADD14RoundRect,1.025000X-1.025000X1.025000X-1.025000X-1.025000X1.025000X-1.025000X1.025000X1.025000X0*%
%TD*%
%TA.AperFunction,ComponentPad*%
%ADD15C,4.100000*%
%TD*%
%TA.AperFunction,ComponentPad*%
%ADD16C,1.400000*%
%TD*%
%TA.AperFunction,ComponentPad*%
%ADD17R,3.500000X3.500000*%
%TD*%
%TA.AperFunction,ComponentPad*%
%ADD18C,3.500000*%
%TD*%
%TA.AperFunction,ComponentPad*%
%ADD19O,3.200000X1.900000*%
%TD*%
%TA.AperFunction,ComponentPad*%
%ADD20RoundRect,1.025000X1.025000X-1.025000X1.025000X1.025000X-1.025000X1.025000X-1.025000X-1.025000X0*%
%TD*%
%TA.AperFunction,ComponentPad*%
%ADD21C,2.500000*%
%TD*%
%TA.AperFunction,HeatsinkPad*%
%ADD22C,0.600000*%
%TD*%
%TA.AperFunction,ViaPad*%
%ADD23C,0.600000*%
%TD*%
%TA.AperFunction,Conductor*%
%ADD24C,0.200000*%
%TD*%
%TA.AperFunction,Conductor*%
%ADD25C,0.500000*%
%TD*%
%TA.AperFunction,Conductor*%
%ADD26C,1.000000*%
%TD*%
%TA.AperFunction,Conductor*%
%ADD27C,3.000000*%
%TD*%
G04 APERTURE END LIST*
D10*
%TO.P,J1,1,VBUS*%
%TO.N,+5V*%
X109240000Y-96322500D03*
D11*
%TO.P,J1,2,D-*%
%TO.N,USB-*%
X111740000Y-96322500D03*
%TO.P,J1,3,D+*%
%TO.N,USB+*%
X111740000Y-94322500D03*
%TO.P,J1,4,GND*%
%TO.N,GND*%
X109240000Y-94322500D03*
D12*
%TO.P,J1,5,Shield*%
X104490000Y-91462500D03*
X116490000Y-91462500D03*
%TD*%
D13*
%TO.P,J2,*%
%TO.N,*%
X189515000Y-103950000D03*
X189515000Y-117450000D03*
D14*
%TO.P,J2,1,Pin_1*%
%TO.N,-1*%
X183515000Y-114300000D03*
D15*
%TO.P,J2,2,Pin_2*%
%TO.N,+1*%
X183515000Y-107100000D03*
%TD*%
D16*
%TO.P,J4,*%
%TO.N,*%
X112695000Y-131400000D03*
X112695000Y-120400000D03*
D17*
%TO.P,J4,1,Pin_1*%
%TO.N,GND1*%
X117695000Y-128400000D03*
D18*
%TO.P,J4,2,Pin_2*%
%TO.N,+24V*%
X117695000Y-123400000D03*
%TD*%
D19*
%TO.P,SW1,1,1*%
%TO.N,GND*%
X180975000Y-93345000D03*
X168475000Y-93345000D03*
%TO.P,SW1,2,2*%
%TO.N,Net-(U1-EN{slash}CHIP_PU)*%
X180975000Y-88345000D03*
X168475000Y-88345000D03*
%TD*%
D16*
%TO.P,J5,*%
%TO.N,*%
X188715000Y-120865000D03*
X188715000Y-131865000D03*
D17*
%TO.P,J5,1,Pin_1*%
%TO.N,-1*%
X183715000Y-123865000D03*
D18*
%TO.P,J5,2,Pin_2*%
%TO.N,+1*%
X183715000Y-128865000D03*
%TD*%
D13*
%TO.P,J3,*%
%TO.N,*%
X111760000Y-116840000D03*
X111760000Y-103340000D03*
D20*
%TO.P,J3,1,Pin_1*%
%TO.N,GND1*%
X117760000Y-113690000D03*
D15*
%TO.P,J3,2,Pin_2*%
%TO.N,+24V*%
X117760000Y-106490000D03*
%TD*%
D21*
%TO.P,U5,1,1*%
%TO.N,+24V*%
X156380000Y-105240000D03*
X156380000Y-109240000D03*
%TO.P,U5,2,2*%
%TO.N,+1*%
X170380000Y-105240000D03*
X170380000Y-109240000D03*
%TD*%
D22*
%TO.P,U1,19,GND*%
%TO.N,GND*%
X153035000Y-92160000D03*
X153035000Y-91060000D03*
X152485000Y-92710000D03*
X152485000Y-91610000D03*
X152485000Y-90510000D03*
X151935000Y-92160000D03*
X151935000Y-91060000D03*
X151385000Y-92710000D03*
X151385000Y-91610000D03*
X151385000Y-90510000D03*
X150835000Y-92160000D03*
X150835000Y-91060000D03*
%TD*%
D19*
%TO.P,SW2,1,1*%
%TO.N,Net-(U1-GPIO9)*%
X184985000Y-88345000D03*
X197485000Y-88345000D03*
%TO.P,SW2,2,2*%
%TO.N,GND*%
X184985000Y-93345000D03*
X197485000Y-93345000D03*
%TD*%
D23*
%TO.N,GND*%
X102616000Y-98552000D03*
%TO.N,*%
X152400000Y-99060000D03*
%TO.N,GND*%
X167640000Y-83820000D03*
X185420000Y-96520000D03*
X195580000Y-96520000D03*
X152400000Y-83820000D03*
X119380000Y-88900000D03*
X149860000Y-96520000D03*
X139700000Y-83820000D03*
X139065000Y-90805000D03*
X198120000Y-83820000D03*
X160020000Y-86360000D03*
X111760000Y-91440000D03*
X198120000Y-96520000D03*
X187960000Y-96520000D03*
X162560000Y-83820000D03*
X190500000Y-96520000D03*
X119380000Y-96520000D03*
X172720000Y-96520000D03*
X182880000Y-83820000D03*
X111760000Y-86360000D03*
X167640000Y-96520000D03*
X137160000Y-86360000D03*
X193040000Y-96520000D03*
X175260000Y-96520000D03*
X177800000Y-96520000D03*
X106680000Y-86360000D03*
X109220000Y-88900000D03*
X175260000Y-83820000D03*
X154940000Y-96520000D03*
X121920000Y-86360000D03*
X154940000Y-86360000D03*
X114300000Y-88900000D03*
X134620000Y-83820000D03*
X147320000Y-83820000D03*
X182880000Y-96520000D03*
X116840000Y-86360000D03*
X157480000Y-83820000D03*
X139065000Y-117475000D03*
X127000000Y-86360000D03*
X187960000Y-83820000D03*
X149860000Y-86360000D03*
X180340000Y-96520000D03*
X142240000Y-86360000D03*
X101600000Y-83820000D03*
X193040000Y-83820000D03*
X132080000Y-86360000D03*
X170180000Y-96520000D03*
X106680000Y-91440000D03*
%TO.N,+3.3V*%
X159385000Y-97790000D03*
X163195000Y-88900000D03*
X129360000Y-88895000D03*
X111760000Y-99060000D03*
X163195000Y-97810000D03*
%TO.N,+24V*%
X127635000Y-94660000D03*
X130175000Y-105855000D03*
%TO.N,GND1*%
X152400000Y-129540000D03*
X109220000Y-129540000D03*
X144780000Y-132080000D03*
X193040000Y-132080000D03*
X133350000Y-97790000D03*
X111760000Y-129540000D03*
X167640000Y-129540000D03*
X175260000Y-132080000D03*
X162560000Y-106680000D03*
X142240000Y-124460000D03*
X109220000Y-132080000D03*
X104140000Y-129540000D03*
X149860000Y-127000000D03*
X139700000Y-132080000D03*
X134620000Y-95250000D03*
X162560000Y-101600000D03*
X133350000Y-96520000D03*
X165100000Y-104140000D03*
X133350000Y-101715000D03*
X165100000Y-132080000D03*
X124460000Y-116840000D03*
X114300000Y-116840000D03*
X114300000Y-127000000D03*
X195580000Y-129540000D03*
X106680000Y-132080000D03*
X170180000Y-132080000D03*
X165100000Y-111760000D03*
X101600000Y-116840000D03*
X109220000Y-127000000D03*
X114300000Y-129540000D03*
X119380000Y-132080000D03*
X101600000Y-104140000D03*
X152400000Y-124460000D03*
X162560000Y-109220000D03*
X162560000Y-129540000D03*
X180340000Y-132080000D03*
X101600000Y-132080000D03*
X137160000Y-95250000D03*
X134620000Y-96520000D03*
X190500000Y-121920000D03*
X101600000Y-119380000D03*
X106680000Y-127000000D03*
X165100000Y-127000000D03*
X162560000Y-104140000D03*
X154940000Y-127000000D03*
X182880000Y-101600000D03*
X193040000Y-114300000D03*
X101600000Y-106680000D03*
X101600000Y-121920000D03*
X111760000Y-127000000D03*
X180340000Y-127000000D03*
X147320000Y-101600000D03*
X198120000Y-106680000D03*
X154940000Y-132080000D03*
X101600000Y-111760000D03*
X175260000Y-127000000D03*
X162560000Y-111760000D03*
X157480000Y-101600000D03*
X144780000Y-127000000D03*
X187960000Y-114300000D03*
X121640000Y-98070000D03*
X198120000Y-101600000D03*
X157480000Y-129540000D03*
X118110000Y-102235000D03*
X114300000Y-111760000D03*
X118110000Y-100215000D03*
X101600000Y-129540000D03*
X104140000Y-121920000D03*
X147320000Y-124460000D03*
X190500000Y-111760000D03*
X134620000Y-97790000D03*
X135890000Y-96520000D03*
X101600000Y-124460000D03*
X198120000Y-132080000D03*
X147320000Y-129540000D03*
X152400000Y-101600000D03*
X111760000Y-114300000D03*
X104140000Y-132080000D03*
X177800000Y-129540000D03*
X187960000Y-119380000D03*
X165100000Y-101600000D03*
X160020000Y-132080000D03*
X170180000Y-127000000D03*
X137160000Y-124460000D03*
X187960000Y-124460000D03*
X142240000Y-129540000D03*
X101600000Y-114300000D03*
X170180000Y-101600000D03*
X172720000Y-129540000D03*
X106680000Y-124460000D03*
X106680000Y-129540000D03*
X133350000Y-95250000D03*
X195580000Y-104140000D03*
X127000000Y-114300000D03*
X101600000Y-127000000D03*
X165100000Y-106680000D03*
X104140000Y-124460000D03*
X119380000Y-116840000D03*
X135890000Y-95250000D03*
X187960000Y-101600000D03*
X104140000Y-127000000D03*
X193040000Y-101600000D03*
X193040000Y-119380000D03*
X114300000Y-132080000D03*
X149860000Y-132080000D03*
X157480000Y-124460000D03*
X121920000Y-114300000D03*
X101600000Y-109220000D03*
X137160000Y-96520000D03*
X165100000Y-109220000D03*
X177800000Y-101600000D03*
X139700000Y-127000000D03*
X116840000Y-132080000D03*
X137160000Y-129540000D03*
X137160000Y-97790000D03*
X135890000Y-97790000D03*
%TO.N,+12V*%
X147505000Y-114300000D03*
X119380000Y-100965000D03*
X127635000Y-99055000D03*
%TO.N,Net-(R5-Pad2)*%
X141180000Y-113240000D03*
X141180000Y-97365000D03*
%TO.N,Ps1*%
X146050000Y-93980000D03*
X149225000Y-93980000D03*
%TD*%
D24*
%TO.N,GND*%
X104490000Y-96678000D02*
X104490000Y-91462500D01*
X102616000Y-98552000D02*
X104490000Y-96678000D01*
D25*
X139065000Y-117475000D02*
X139065000Y-90805000D01*
%TO.N,+3.3V*%
X159385000Y-97790000D02*
X159385000Y-94615000D01*
X159385000Y-94615000D02*
X153665000Y-88895000D01*
X153665000Y-88895000D02*
X129360000Y-88895000D01*
X119830000Y-98425000D02*
X117475000Y-98425000D01*
X117475000Y-98425000D02*
X116840000Y-99060000D01*
X129360000Y-88895000D02*
X119830000Y-98425000D01*
X116840000Y-99060000D02*
X111760000Y-99060000D01*
X163195000Y-97810000D02*
X163195000Y-88900000D01*
D26*
%TO.N,+24V*%
X130175000Y-97155000D02*
X130175000Y-105855000D01*
X127635000Y-94660000D02*
X127680000Y-94660000D01*
X127680000Y-94660000D02*
X130175000Y-97155000D01*
%TO.N,GND1*%
X118950000Y-99375000D02*
X121605000Y-99375000D01*
X118110000Y-100215000D02*
X118110000Y-102235000D01*
D27*
X133350000Y-95250000D02*
X133350000Y-101715000D01*
D26*
X121640000Y-98070000D02*
X121640000Y-99340000D01*
X121605000Y-99375000D02*
X121640000Y-99340000D01*
X118110000Y-100215000D02*
X118950000Y-99375000D01*
D25*
%TO.N,+12V*%
X145415000Y-115570000D02*
X145415000Y-118110000D01*
X144145000Y-119380000D02*
X139909339Y-119380000D01*
X145415000Y-118110000D02*
X144145000Y-119380000D01*
X146685000Y-114300000D02*
X145415000Y-115570000D01*
X125725000Y-100965000D02*
X127635000Y-99055000D01*
X127635000Y-106680000D02*
X127635000Y-99055000D01*
X119380000Y-100965000D02*
X125725000Y-100965000D01*
X147505000Y-114300000D02*
X146685000Y-114300000D01*
X139909339Y-119380000D02*
X135255000Y-114725661D01*
X133985000Y-107950000D02*
X128905000Y-107950000D01*
X128905000Y-107950000D02*
X127635000Y-106680000D01*
X135255000Y-114725661D02*
X135255000Y-109220000D01*
X135255000Y-109220000D02*
X133985000Y-107950000D01*
%TO.N,Net-(R5-Pad2)*%
X141180000Y-97365000D02*
X141180000Y-113240000D01*
%TO.N,Ps1*%
X149225000Y-93980000D02*
X146050000Y-93980000D01*
%TD*%
%TA.AperFunction,Conductor*%
%TO.N,GND*%
G36*
X199467539Y-83705185D02*
G01*
X199513294Y-83757989D01*
X199524500Y-83809500D01*
X199524500Y-87408112D01*
X199504815Y-87475151D01*
X199452011Y-87520906D01*
X199382853Y-87530850D01*
X199319297Y-87501825D01*
X199300182Y-87480998D01*
X199295934Y-87475151D01*
X199241379Y-87400063D01*
X199079937Y-87238621D01*
X198895228Y-87104421D01*
X198691803Y-87000770D01*
X198474660Y-86930215D01*
X198249162Y-86894500D01*
X198249157Y-86894500D01*
X196720843Y-86894500D01*
X196720838Y-86894500D01*
X196495339Y-86930215D01*
X196278196Y-87000770D01*
X196074771Y-87104421D01*
X195890061Y-87238622D01*
X195728622Y-87400061D01*
X195594421Y-87584771D01*
X195490770Y-87788196D01*
X195420215Y-88005339D01*
X195384500Y-88230837D01*
X195384500Y-88459162D01*
X195420215Y-88684660D01*
X195490770Y-88901803D01*
X195581187Y-89079255D01*
X195594421Y-89105228D01*
X195728621Y-89289937D01*
X195890063Y-89451379D01*
X196074772Y-89585579D01*
X196170884Y-89634550D01*
X196278196Y-89689229D01*
X196278198Y-89689229D01*
X196278201Y-89689231D01*
X196394592Y-89727049D01*
X196495339Y-89759784D01*
X196720838Y-89795500D01*
X196720843Y-89795500D01*
X198249162Y-89795500D01*
X198474660Y-89759784D01*
X198691799Y-89689231D01*
X198895228Y-89585579D01*
X199079937Y-89451379D01*
X199241379Y-89289937D01*
X199300184Y-89208999D01*
X199355512Y-89166336D01*
X199425125Y-89160357D01*
X199486920Y-89192963D01*
X199521278Y-89253802D01*
X199524500Y-89281887D01*
X199524500Y-98936000D01*
X199504815Y-99003039D01*
X199452011Y-99048794D01*
X199400500Y-99060000D01*
X153316378Y-99060000D01*
X153249339Y-99040315D01*
X153203584Y-98987511D01*
X153193158Y-98949883D01*
X153185369Y-98880749D01*
X153185368Y-98880745D01*
X153183618Y-98875745D01*
X153125789Y-98710478D01*
X153122647Y-98705478D01*
X153053461Y-98595369D01*
X153029816Y-98557738D01*
X152902262Y-98430184D01*
X152894305Y-98425184D01*
X152749523Y-98334211D01*
X152579254Y-98274631D01*
X152579249Y-98274630D01*
X152400004Y-98254435D01*
X152399996Y-98254435D01*
X152220750Y-98274630D01*
X152220745Y-98274631D01*
X152050476Y-98334211D01*
X151897737Y-98430184D01*
X151770184Y-98557737D01*
X151674211Y-98710476D01*
X151614631Y-98880745D01*
X151614630Y-98880749D01*
X151606842Y-98949883D01*
X151579776Y-99014297D01*
X151522182Y-99053852D01*
X151483622Y-99060000D01*
X142054500Y-99060000D01*
X141987461Y-99040315D01*
X141941706Y-98987511D01*
X141930500Y-98936000D01*
X141930500Y-97664972D01*
X141937458Y-97624017D01*
X141938590Y-97620782D01*
X141965368Y-97544255D01*
X141966851Y-97531097D01*
X141985565Y-97365003D01*
X141985565Y-97364996D01*
X141965369Y-97185750D01*
X141965368Y-97185745D01*
X141905788Y-97015476D01*
X141852375Y-96930470D01*
X141809816Y-96862738D01*
X141682262Y-96735184D01*
X141529523Y-96639211D01*
X141359254Y-96579631D01*
X141359249Y-96579630D01*
X141180004Y-96559435D01*
X141179996Y-96559435D01*
X141000750Y-96579630D01*
X141000745Y-96579631D01*
X140830476Y-96639211D01*
X140677737Y-96735184D01*
X140550184Y-96862737D01*
X140454211Y-97015476D01*
X140394631Y-97185745D01*
X140394630Y-97185750D01*
X140374435Y-97364996D01*
X140374435Y-97365003D01*
X140394630Y-97544249D01*
X140394631Y-97544254D01*
X140422542Y-97624017D01*
X140429500Y-97664972D01*
X140429500Y-98936000D01*
X140409815Y-99003039D01*
X140357011Y-99048794D01*
X140305500Y-99060000D01*
X135474500Y-99060000D01*
X135407461Y-99040315D01*
X135361706Y-98987511D01*
X135350500Y-98936000D01*
X135350500Y-98620779D01*
X135370185Y-98553740D01*
X135422989Y-98507985D01*
X135492147Y-98498041D01*
X135533911Y-98513377D01*
X135534205Y-98512769D01*
X135540465Y-98515784D01*
X135540476Y-98515788D01*
X135540478Y-98515789D01*
X135710745Y-98575368D01*
X135710750Y-98575369D01*
X135889996Y-98595565D01*
X135890000Y-98595565D01*
X135890004Y-98595565D01*
X136069249Y-98575369D01*
X136069252Y-98575368D01*
X136069255Y-98575368D01*
X136239522Y-98515789D01*
X136392262Y-98419816D01*
X136437319Y-98374759D01*
X136498642Y-98341274D01*
X136568334Y-98346258D01*
X136612681Y-98374759D01*
X136657738Y-98419816D01*
X136689568Y-98439816D01*
X136805671Y-98512769D01*
X136810478Y-98515789D01*
X136980745Y-98575368D01*
X136980750Y-98575369D01*
X137159996Y-98595565D01*
X137160000Y-98595565D01*
X137160004Y-98595565D01*
X137339249Y-98575369D01*
X137339252Y-98575368D01*
X137339255Y-98575368D01*
X137509522Y-98515789D01*
X137662262Y-98419816D01*
X137789816Y-98292262D01*
X137885789Y-98139522D01*
X137945368Y-97969255D01*
X137945369Y-97969249D01*
X137965565Y-97790003D01*
X137965565Y-97789996D01*
X137945369Y-97610750D01*
X137945368Y-97610745D01*
X137929815Y-97566296D01*
X137885789Y-97440478D01*
X137880596Y-97432214D01*
X137811688Y-97322547D01*
X137789816Y-97287738D01*
X137744759Y-97242681D01*
X137711274Y-97181358D01*
X137716258Y-97111666D01*
X137744759Y-97067319D01*
X137755619Y-97056459D01*
X137789816Y-97022262D01*
X137885789Y-96869522D01*
X137945368Y-96699255D01*
X137945369Y-96699249D01*
X137965565Y-96520003D01*
X137965565Y-96519996D01*
X137945369Y-96340750D01*
X137945368Y-96340745D01*
X137885788Y-96170476D01*
X137838867Y-96095802D01*
X137789816Y-96017738D01*
X137744759Y-95972681D01*
X137711274Y-95911358D01*
X137716258Y-95841666D01*
X137744759Y-95797319D01*
X137789816Y-95752262D01*
X137885789Y-95599522D01*
X137945368Y-95429255D01*
X137946972Y-95415018D01*
X137965565Y-95250003D01*
X137965565Y-95249996D01*
X137945369Y-95070750D01*
X137945368Y-95070745D01*
X137911947Y-94975234D01*
X137885789Y-94900478D01*
X137789816Y-94747738D01*
X137662262Y-94620184D01*
X137509523Y-94524211D01*
X137339254Y-94464631D01*
X137339249Y-94464630D01*
X137160004Y-94444435D01*
X137159996Y-94444435D01*
X136980750Y-94464630D01*
X136980745Y-94464631D01*
X136810476Y-94524211D01*
X136657737Y-94620184D01*
X136612680Y-94665241D01*
X136551357Y-94698725D01*
X136481665Y-94693740D01*
X136437320Y-94665241D01*
X136392263Y-94620185D01*
X136392262Y-94620184D01*
X136239523Y-94524211D01*
X136069254Y-94464631D01*
X136069249Y-94464630D01*
X135890004Y-94444435D01*
X135889996Y-94444435D01*
X135710750Y-94464630D01*
X135710745Y-94464631D01*
X135540476Y-94524211D01*
X135406311Y-94608513D01*
X135339074Y-94627513D01*
X135272239Y-94607145D01*
X135227025Y-94553877D01*
X135225778Y-94550972D01*
X135225038Y-94549186D01*
X135148043Y-94363303D01*
X135148041Y-94363299D01*
X135016924Y-94136196D01*
X134897066Y-93979996D01*
X145244435Y-93979996D01*
X145244435Y-93980003D01*
X145264630Y-94159249D01*
X145264631Y-94159254D01*
X145324211Y-94329523D01*
X145348492Y-94368165D01*
X145420184Y-94482262D01*
X145547738Y-94609816D01*
X145575903Y-94627513D01*
X145689235Y-94698725D01*
X145700478Y-94705789D01*
X145843939Y-94755988D01*
X145870745Y-94765368D01*
X145870750Y-94765369D01*
X146049996Y-94785565D01*
X146050000Y-94785565D01*
X146050004Y-94785565D01*
X146229249Y-94765369D01*
X146229252Y-94765368D01*
X146229255Y-94765368D01*
X146309017Y-94737457D01*
X146349972Y-94730500D01*
X148925028Y-94730500D01*
X148965983Y-94737458D01*
X149045745Y-94765368D01*
X149045750Y-94765369D01*
X149224996Y-94785565D01*
X149225000Y-94785565D01*
X149225004Y-94785565D01*
X149404249Y-94765369D01*
X149404252Y-94765368D01*
X149404255Y-94765368D01*
X149574522Y-94705789D01*
X149727262Y-94609816D01*
X149854816Y-94482262D01*
X149950789Y-94329522D01*
X150010368Y-94159255D01*
X150010539Y-94157737D01*
X150030565Y-93980003D01*
X150030565Y-93979996D01*
X150010369Y-93800750D01*
X150010368Y-93800745D01*
X149950788Y-93630476D01*
X149854815Y-93477737D01*
X149727262Y-93350184D01*
X149574523Y-93254211D01*
X149404254Y-93194631D01*
X149404249Y-93194630D01*
X149225004Y-93174435D01*
X149224996Y-93174435D01*
X149045750Y-93194630D01*
X149045745Y-93194631D01*
X148965983Y-93222542D01*
X148925028Y-93229500D01*
X146349972Y-93229500D01*
X146309017Y-93222542D01*
X146229254Y-93194631D01*
X146229249Y-93194630D01*
X146050004Y-93174435D01*
X146049996Y-93174435D01*
X145870750Y-93194630D01*
X145870745Y-93194631D01*
X145700476Y-93254211D01*
X145547737Y-93350184D01*
X145420184Y-93477737D01*
X145324211Y-93630476D01*
X145264631Y-93800745D01*
X145264630Y-93800750D01*
X145244435Y-93979996D01*
X134897066Y-93979996D01*
X134857281Y-93928148D01*
X134857274Y-93928140D01*
X134671860Y-93742726D01*
X134671851Y-93742718D01*
X134463803Y-93583075D01*
X134236700Y-93451958D01*
X134236690Y-93451953D01*
X133994428Y-93351605D01*
X133994421Y-93351603D01*
X133994419Y-93351602D01*
X133741116Y-93283730D01*
X133683339Y-93276123D01*
X133481127Y-93249500D01*
X133481120Y-93249500D01*
X133218880Y-93249500D01*
X133218872Y-93249500D01*
X132987772Y-93279926D01*
X132958884Y-93283730D01*
X132710873Y-93350184D01*
X132705581Y-93351602D01*
X132705571Y-93351605D01*
X132463309Y-93451953D01*
X132463299Y-93451958D01*
X132236196Y-93583075D01*
X132028148Y-93742718D01*
X131842718Y-93928148D01*
X131683075Y-94136196D01*
X131551958Y-94363299D01*
X131551953Y-94363309D01*
X131451605Y-94605571D01*
X131451602Y-94605581D01*
X131407818Y-94768988D01*
X131383730Y-94858885D01*
X131349500Y-95118872D01*
X131349500Y-96752671D01*
X131329815Y-96819710D01*
X131277011Y-96865465D01*
X131207853Y-96875409D01*
X131144297Y-96846384D01*
X131110939Y-96800124D01*
X131091131Y-96752304D01*
X131091131Y-96752303D01*
X131061635Y-96681093D01*
X131061634Y-96681092D01*
X131061632Y-96681086D01*
X130993842Y-96579631D01*
X130952139Y-96517217D01*
X130809686Y-96374764D01*
X130809655Y-96374735D01*
X128461479Y-94026559D01*
X128461459Y-94026537D01*
X128317785Y-93882863D01*
X128317781Y-93882860D01*
X128153920Y-93773371D01*
X128153911Y-93773366D01*
X128070683Y-93738892D01*
X128025165Y-93720038D01*
X127998500Y-93708993D01*
X127971837Y-93697949D01*
X127971833Y-93697947D01*
X127830151Y-93669766D01*
X127778543Y-93659500D01*
X127778541Y-93659500D01*
X127536459Y-93659500D01*
X127536457Y-93659500D01*
X127343170Y-93697947D01*
X127343160Y-93697950D01*
X127161092Y-93773364D01*
X127161079Y-93773371D01*
X126997218Y-93882860D01*
X126997214Y-93882863D01*
X126857863Y-94022214D01*
X126857860Y-94022218D01*
X126748371Y-94186079D01*
X126748364Y-94186092D01*
X126672950Y-94368160D01*
X126672947Y-94368170D01*
X126634500Y-94561456D01*
X126634500Y-94561459D01*
X126634500Y-94758541D01*
X126634500Y-94758543D01*
X126634499Y-94758543D01*
X126672947Y-94951829D01*
X126672950Y-94951839D01*
X126748364Y-95133907D01*
X126748371Y-95133920D01*
X126857860Y-95297781D01*
X126857863Y-95297785D01*
X126997214Y-95437136D01*
X126997222Y-95437142D01*
X127122681Y-95520971D01*
X127141472Y-95536392D01*
X129138181Y-97533101D01*
X129171666Y-97594424D01*
X129174500Y-97620782D01*
X129174500Y-98936000D01*
X129154815Y-99003039D01*
X129102011Y-99048794D01*
X129050500Y-99060000D01*
X128551942Y-99060000D01*
X128484903Y-99040315D01*
X128439148Y-98987511D01*
X128428722Y-98949884D01*
X128420369Y-98875749D01*
X128420368Y-98875745D01*
X128375296Y-98746937D01*
X128360789Y-98705478D01*
X128264816Y-98552738D01*
X128137262Y-98425184D01*
X128069455Y-98382578D01*
X127984523Y-98329211D01*
X127814254Y-98269631D01*
X127814249Y-98269630D01*
X127635004Y-98249435D01*
X127634996Y-98249435D01*
X127455750Y-98269630D01*
X127455745Y-98269631D01*
X127285476Y-98329211D01*
X127132737Y-98425184D01*
X127005184Y-98552737D01*
X126909211Y-98705478D01*
X126906188Y-98711756D01*
X126904362Y-98710876D01*
X126881693Y-98746937D01*
X126604950Y-99023681D01*
X126543627Y-99057166D01*
X126517269Y-99060000D01*
X122764500Y-99060000D01*
X122697461Y-99040315D01*
X122651706Y-98987511D01*
X122640500Y-98936000D01*
X122640500Y-97971456D01*
X122602052Y-97778170D01*
X122602051Y-97778169D01*
X122602051Y-97778165D01*
X122571058Y-97703341D01*
X122526635Y-97596092D01*
X122526628Y-97596079D01*
X122417139Y-97432218D01*
X122417136Y-97432214D01*
X122277785Y-97292863D01*
X122277777Y-97292857D01*
X122250985Y-97274955D01*
X122206179Y-97221343D01*
X122197472Y-97152018D01*
X122227626Y-97088991D01*
X122232175Y-97084191D01*
X129634548Y-89681819D01*
X129695871Y-89648334D01*
X129722229Y-89645500D01*
X153302770Y-89645500D01*
X153369809Y-89665185D01*
X153390451Y-89681819D01*
X158598181Y-94889548D01*
X158631666Y-94950871D01*
X158634500Y-94977229D01*
X158634500Y-97490028D01*
X158627542Y-97530982D01*
X158599631Y-97610747D01*
X158579435Y-97789996D01*
X158579435Y-97790003D01*
X158599630Y-97969249D01*
X158599631Y-97969254D01*
X158659211Y-98139523D01*
X158671778Y-98159523D01*
X158755184Y-98292262D01*
X158882738Y-98419816D01*
X158914568Y-98439816D01*
X159030671Y-98512769D01*
X159035478Y-98515789D01*
X159205745Y-98575368D01*
X159205750Y-98575369D01*
X159384996Y-98595565D01*
X159385000Y-98595565D01*
X159385004Y-98595565D01*
X159564249Y-98575369D01*
X159564252Y-98575368D01*
X159564255Y-98575368D01*
X159734522Y-98515789D01*
X159887262Y-98419816D01*
X160014816Y-98292262D01*
X160110789Y-98139522D01*
X160170368Y-97969255D01*
X160170369Y-97969249D01*
X160190565Y-97790003D01*
X160190565Y-97789996D01*
X160172621Y-97630745D01*
X160170368Y-97610745D01*
X160142458Y-97530982D01*
X160135500Y-97490028D01*
X160135500Y-94541079D01*
X160120293Y-94464633D01*
X160120293Y-94464632D01*
X160106659Y-94396088D01*
X160052408Y-94265117D01*
X160050765Y-94260526D01*
X160050084Y-94259508D01*
X160050084Y-94259506D01*
X160050084Y-94259505D01*
X159982086Y-94157738D01*
X159967952Y-94136585D01*
X159967950Y-94136582D01*
X159967949Y-94136581D01*
X154731365Y-88899996D01*
X162389435Y-88899996D01*
X162389435Y-88900003D01*
X162409630Y-89079249D01*
X162409631Y-89079254D01*
X162437542Y-89159017D01*
X162444500Y-89199972D01*
X162444500Y-97510028D01*
X162437542Y-97550982D01*
X162409631Y-97630747D01*
X162389435Y-97809996D01*
X162389435Y-97810000D01*
X162409630Y-97989249D01*
X162409631Y-97989254D01*
X162469211Y-98159523D01*
X162561668Y-98306666D01*
X162565184Y-98312262D01*
X162692738Y-98439816D01*
X162783080Y-98496582D01*
X162813646Y-98515788D01*
X162845478Y-98535789D01*
X162958591Y-98575369D01*
X163015745Y-98595368D01*
X163015750Y-98595369D01*
X163194996Y-98615565D01*
X163195000Y-98615565D01*
X163195004Y-98615565D01*
X163374249Y-98595369D01*
X163374252Y-98595368D01*
X163374255Y-98595368D01*
X163544522Y-98535789D01*
X163697262Y-98439816D01*
X163824816Y-98312262D01*
X163920789Y-98159522D01*
X163980368Y-97989255D01*
X163982374Y-97971456D01*
X164000565Y-97810000D01*
X164000565Y-97809996D01*
X163980368Y-97630747D01*
X163980368Y-97630745D01*
X163952458Y-97550982D01*
X163945500Y-97510028D01*
X163945500Y-89199972D01*
X163952458Y-89159017D01*
X163980368Y-89079255D01*
X164000362Y-88901803D01*
X164000565Y-88900003D01*
X164000565Y-88899996D01*
X163980369Y-88720750D01*
X163980368Y-88720745D01*
X163933547Y-88586939D01*
X163920789Y-88550478D01*
X163917650Y-88545483D01*
X163824815Y-88397737D01*
X163697262Y-88270184D01*
X163634642Y-88230837D01*
X166374500Y-88230837D01*
X166374500Y-88459162D01*
X166410215Y-88684660D01*
X166480770Y-88901803D01*
X166571187Y-89079255D01*
X166584421Y-89105228D01*
X166718621Y-89289937D01*
X166880063Y-89451379D01*
X167064772Y-89585579D01*
X167160884Y-89634550D01*
X167268196Y-89689229D01*
X167268198Y-89689229D01*
X167268201Y-89689231D01*
X167384592Y-89727049D01*
X167485339Y-89759784D01*
X167710838Y-89795500D01*
X167710843Y-89795500D01*
X169239162Y-89795500D01*
X169464660Y-89759784D01*
X169681799Y-89689231D01*
X169885228Y-89585579D01*
X170069937Y-89451379D01*
X170231379Y-89289937D01*
X170365579Y-89105228D01*
X170469231Y-88901799D01*
X170539784Y-88684660D01*
X170575500Y-88459162D01*
X170575500Y-88230837D01*
X178874500Y-88230837D01*
X178874500Y-88459162D01*
X178910215Y-88684660D01*
X178980770Y-88901803D01*
X179071187Y-89079255D01*
X179084421Y-89105228D01*
X179218621Y-89289937D01*
X179380063Y-89451379D01*
X179564772Y-89585579D01*
X179660884Y-89634550D01*
X179768196Y-89689229D01*
X179768198Y-89689229D01*
X179768201Y-89689231D01*
X179884592Y-89727049D01*
X179985339Y-89759784D01*
X180210838Y-89795500D01*
X180210843Y-89795500D01*
X181739162Y-89795500D01*
X181964660Y-89759784D01*
X182181799Y-89689231D01*
X182385228Y-89585579D01*
X182569937Y-89451379D01*
X182731379Y-89289937D01*
X182865579Y-89105228D01*
X182869514Y-89097504D01*
X182917486Y-89046708D01*
X182985307Y-89029911D01*
X183051442Y-89052446D01*
X183090485Y-89097504D01*
X183094421Y-89105228D01*
X183228621Y-89289937D01*
X183390063Y-89451379D01*
X183574772Y-89585579D01*
X183670884Y-89634550D01*
X183778196Y-89689229D01*
X183778198Y-89689229D01*
X183778201Y-89689231D01*
X183894592Y-89727049D01*
X183995339Y-89759784D01*
X184220838Y-89795500D01*
X184220843Y-89795500D01*
X185749162Y-89795500D01*
X185974660Y-89759784D01*
X186191799Y-89689231D01*
X186395228Y-89585579D01*
X186579937Y-89451379D01*
X186741379Y-89289937D01*
X186875579Y-89105228D01*
X186979231Y-88901799D01*
X187049784Y-88684660D01*
X187085500Y-88459162D01*
X187085500Y-88230837D01*
X187049784Y-88005339D01*
X186979229Y-87788196D01*
X186905397Y-87643293D01*
X186875579Y-87584772D01*
X186741379Y-87400063D01*
X186579937Y-87238621D01*
X186395228Y-87104421D01*
X186191803Y-87000770D01*
X185974660Y-86930215D01*
X185749162Y-86894500D01*
X185749157Y-86894500D01*
X184220843Y-86894500D01*
X184220838Y-86894500D01*
X183995339Y-86930215D01*
X183778196Y-87000770D01*
X183574771Y-87104421D01*
X183390061Y-87238622D01*
X183228622Y-87400061D01*
X183094421Y-87584771D01*
X183090485Y-87592497D01*
X183042510Y-87643293D01*
X182974689Y-87660088D01*
X182908554Y-87637550D01*
X182869515Y-87592497D01*
X182865578Y-87584771D01*
X182785934Y-87475151D01*
X182731379Y-87400063D01*
X182569937Y-87238621D01*
X182385228Y-87104421D01*
X182181803Y-87000770D01*
X181964660Y-86930215D01*
X181739162Y-86894500D01*
X181739157Y-86894500D01*
X180210843Y-86894500D01*
X180210838Y-86894500D01*
X179985339Y-86930215D01*
X179768196Y-87000770D01*
X179564771Y-87104421D01*
X179380061Y-87238622D01*
X179218622Y-87400061D01*
X179084421Y-87584771D01*
X178980770Y-87788196D01*
X178910215Y-88005339D01*
X178874500Y-88230837D01*
X170575500Y-88230837D01*
X170539784Y-88005339D01*
X170469229Y-87788196D01*
X170395397Y-87643293D01*
X170365579Y-87584772D01*
X170231379Y-87400063D01*
X170069937Y-87238621D01*
X169885228Y-87104421D01*
X169681803Y-87000770D01*
X169464660Y-86930215D01*
X169239162Y-86894500D01*
X169239157Y-86894500D01*
X167710843Y-86894500D01*
X167710838Y-86894500D01*
X167485339Y-86930215D01*
X167268196Y-87000770D01*
X167064771Y-87104421D01*
X166880061Y-87238622D01*
X166718622Y-87400061D01*
X166584421Y-87584771D01*
X166480770Y-87788196D01*
X166410215Y-88005339D01*
X166374500Y-88230837D01*
X163634642Y-88230837D01*
X163544523Y-88174211D01*
X163374254Y-88114631D01*
X163374249Y-88114630D01*
X163195004Y-88094435D01*
X163194996Y-88094435D01*
X163015750Y-88114630D01*
X163015745Y-88114631D01*
X162845476Y-88174211D01*
X162692737Y-88270184D01*
X162565184Y-88397737D01*
X162469211Y-88550476D01*
X162409631Y-88720745D01*
X162409630Y-88720750D01*
X162389435Y-88899996D01*
X154731365Y-88899996D01*
X154143421Y-88312052D01*
X154143414Y-88312046D01*
X154057318Y-88254519D01*
X154057219Y-88254454D01*
X154020495Y-88229916D01*
X154020494Y-88229915D01*
X154020492Y-88229914D01*
X153883917Y-88173343D01*
X153883907Y-88173340D01*
X153738920Y-88144500D01*
X153738918Y-88144500D01*
X129659972Y-88144500D01*
X129619017Y-88137542D01*
X129539254Y-88109631D01*
X129539249Y-88109630D01*
X129360004Y-88089435D01*
X129359996Y-88089435D01*
X129180750Y-88109630D01*
X129180745Y-88109631D01*
X129010476Y-88169211D01*
X128857737Y-88265184D01*
X128730184Y-88392737D01*
X128634208Y-88545483D01*
X128631186Y-88551758D01*
X128629361Y-88550878D01*
X128606692Y-88586939D01*
X119555451Y-97638181D01*
X119494128Y-97671666D01*
X119467770Y-97674500D01*
X117401076Y-97674500D01*
X117372242Y-97680234D01*
X117372243Y-97680235D01*
X117256093Y-97703339D01*
X117256083Y-97703342D01*
X117176081Y-97736479D01*
X117176082Y-97736480D01*
X117176080Y-97736481D01*
X117119505Y-97759916D01*
X117092186Y-97778170D01*
X117044549Y-97810000D01*
X116996586Y-97842047D01*
X116996582Y-97842050D01*
X116565451Y-98273181D01*
X116504128Y-98306666D01*
X116477770Y-98309500D01*
X112059972Y-98309500D01*
X112019017Y-98302542D01*
X111939254Y-98274631D01*
X111939249Y-98274630D01*
X111760004Y-98254435D01*
X111759996Y-98254435D01*
X111580750Y-98274630D01*
X111580745Y-98274631D01*
X111410476Y-98334211D01*
X111257737Y-98430184D01*
X111130184Y-98557737D01*
X111034211Y-98710476D01*
X110974631Y-98880745D01*
X110974630Y-98880749D01*
X110966842Y-98949883D01*
X110939776Y-99014297D01*
X110882182Y-99053852D01*
X110843622Y-99060000D01*
X101589500Y-99060000D01*
X101522461Y-99040315D01*
X101476706Y-98987511D01*
X101465500Y-98936000D01*
X101465500Y-95474635D01*
X107939500Y-95474635D01*
X107939500Y-97170370D01*
X107939501Y-97170376D01*
X107945908Y-97229983D01*
X107996202Y-97364828D01*
X107996206Y-97364835D01*
X108082452Y-97480044D01*
X108082455Y-97480047D01*
X108197664Y-97566293D01*
X108197671Y-97566297D01*
X108332517Y-97616591D01*
X108332516Y-97616591D01*
X108339444Y-97617335D01*
X108392127Y-97623000D01*
X110087872Y-97622999D01*
X110147483Y-97616591D01*
X110282331Y-97566296D01*
X110397546Y-97480046D01*
X110483796Y-97364831D01*
X110534091Y-97229983D01*
X110534092Y-97229972D01*
X110535365Y-97224588D01*
X110569933Y-97163869D01*
X110631841Y-97131478D01*
X110701433Y-97137699D01*
X110743725Y-97165412D01*
X110900858Y-97322545D01*
X110900861Y-97322547D01*
X111087266Y-97453068D01*
X111293504Y-97549239D01*
X111513308Y-97608135D01*
X111657864Y-97620782D01*
X111739998Y-97627968D01*
X111740000Y-97627968D01*
X111740002Y-97627968D01*
X111796807Y-97622998D01*
X111966692Y-97608135D01*
X112186496Y-97549239D01*
X112392734Y-97453068D01*
X112579139Y-97322547D01*
X112740047Y-97161639D01*
X112870568Y-96975234D01*
X112966739Y-96768996D01*
X113025635Y-96549192D01*
X113045468Y-96322500D01*
X113025635Y-96095808D01*
X112976212Y-95911358D01*
X112966741Y-95876011D01*
X112966738Y-95876002D01*
X112930047Y-95797319D01*
X112870568Y-95669766D01*
X112760850Y-95513071D01*
X112740048Y-95483362D01*
X112722901Y-95466215D01*
X112666865Y-95410179D01*
X112633382Y-95348859D01*
X112638366Y-95279167D01*
X112666865Y-95234820D01*
X112740047Y-95161639D01*
X112870568Y-94975234D01*
X112966739Y-94768996D01*
X113025635Y-94549192D01*
X113045468Y-94322500D01*
X113025635Y-94095808D01*
X112966739Y-93876004D01*
X112870568Y-93669766D01*
X112740047Y-93483361D01*
X112740045Y-93483358D01*
X112579141Y-93322454D01*
X112392734Y-93191932D01*
X112392732Y-93191931D01*
X112186497Y-93095761D01*
X112186488Y-93095758D01*
X111966697Y-93036866D01*
X111966693Y-93036865D01*
X111966692Y-93036865D01*
X111966691Y-93036864D01*
X111966686Y-93036864D01*
X111740002Y-93017032D01*
X111739998Y-93017032D01*
X111513313Y-93036864D01*
X111513302Y-93036866D01*
X111293511Y-93095758D01*
X111293502Y-93095761D01*
X111087267Y-93191931D01*
X111087265Y-93191932D01*
X110900858Y-93322454D01*
X110739954Y-93483358D01*
X110609432Y-93669765D01*
X110609432Y-93669766D01*
X110513261Y-93876002D01*
X110513258Y-93876011D01*
X110454366Y-94095802D01*
X110454364Y-94095813D01*
X110434532Y-94322498D01*
X110434532Y-94322501D01*
X110454364Y-94549186D01*
X110454366Y-94549197D01*
X110513258Y-94768988D01*
X110513261Y-94768997D01*
X110609431Y-94975232D01*
X110609432Y-94975234D01*
X110739954Y-95161641D01*
X110813132Y-95234819D01*
X110846617Y-95296142D01*
X110841633Y-95365834D01*
X110813132Y-95410182D01*
X110743726Y-95479587D01*
X110682402Y-95513071D01*
X110612711Y-95508086D01*
X110556777Y-95466215D01*
X110535369Y-95420423D01*
X110534091Y-95415018D01*
X110532287Y-95410182D01*
X110499584Y-95322500D01*
X110483797Y-95280171D01*
X110483793Y-95280164D01*
X110397547Y-95164955D01*
X110397544Y-95164952D01*
X110282335Y-95078706D01*
X110282328Y-95078702D01*
X110147482Y-95028408D01*
X110147483Y-95028408D01*
X110087883Y-95022001D01*
X110087881Y-95022000D01*
X110087873Y-95022000D01*
X110087864Y-95022000D01*
X108392129Y-95022000D01*
X108392123Y-95022001D01*
X108332516Y-95028408D01*
X108197671Y-95078702D01*
X108197664Y-95078706D01*
X108082455Y-95164952D01*
X108082452Y-95164955D01*
X107996206Y-95280164D01*
X107996202Y-95280171D01*
X107945908Y-95415017D01*
X107939501Y-95474616D01*
X107939500Y-95474635D01*
X101465500Y-95474635D01*
X101465500Y-83809500D01*
X101485185Y-83742461D01*
X101537989Y-83696706D01*
X101589500Y-83685500D01*
X199400500Y-83685500D01*
X199467539Y-83705185D01*
G37*
%TD.AperFunction*%
%TD*%
%TA.AperFunction,Conductor*%
%TO.N,GND1*%
G36*
X118676267Y-100349685D02*
G01*
X118722022Y-100402489D01*
X118731966Y-100471647D01*
X118714221Y-100519973D01*
X118654211Y-100615475D01*
X118594631Y-100785745D01*
X118594630Y-100785750D01*
X118574435Y-100964996D01*
X118574435Y-100965003D01*
X118594630Y-101144249D01*
X118594631Y-101144254D01*
X118654211Y-101314523D01*
X118750184Y-101467262D01*
X118877738Y-101594816D01*
X118968080Y-101651582D01*
X119023903Y-101686658D01*
X119030478Y-101690789D01*
X119101098Y-101715500D01*
X119200745Y-101750368D01*
X119200750Y-101750369D01*
X119379996Y-101770565D01*
X119380000Y-101770565D01*
X119380004Y-101770565D01*
X119559249Y-101750369D01*
X119559252Y-101750368D01*
X119559255Y-101750368D01*
X119639017Y-101722457D01*
X119679972Y-101715500D01*
X125798920Y-101715500D01*
X125896462Y-101696096D01*
X125943913Y-101686658D01*
X126080495Y-101630084D01*
X126133277Y-101594816D01*
X126203416Y-101547952D01*
X126672819Y-101078549D01*
X126734142Y-101045064D01*
X126803834Y-101050048D01*
X126859767Y-101091920D01*
X126884184Y-101157384D01*
X126884500Y-101166230D01*
X126884500Y-106753918D01*
X126884500Y-106753920D01*
X126884499Y-106753920D01*
X126913340Y-106898907D01*
X126913343Y-106898917D01*
X126969914Y-107035492D01*
X127002812Y-107084727D01*
X127002813Y-107084730D01*
X127052046Y-107158414D01*
X127052052Y-107158421D01*
X128426580Y-108532948D01*
X128426584Y-108532951D01*
X128549498Y-108615080D01*
X128549511Y-108615087D01*
X128686082Y-108671656D01*
X128686087Y-108671658D01*
X128686091Y-108671658D01*
X128686092Y-108671659D01*
X128831079Y-108700500D01*
X128831082Y-108700500D01*
X128978917Y-108700500D01*
X133622770Y-108700500D01*
X133689809Y-108720185D01*
X133710451Y-108736819D01*
X134468181Y-109494548D01*
X134501666Y-109555871D01*
X134504500Y-109582229D01*
X134504500Y-114799579D01*
X134504500Y-114799581D01*
X134504499Y-114799581D01*
X134533340Y-114944568D01*
X134533343Y-114944578D01*
X134589913Y-115081151D01*
X134589917Y-115081158D01*
X134596880Y-115091578D01*
X134596882Y-115091585D01*
X134596884Y-115091584D01*
X134672051Y-115204081D01*
X134672052Y-115204082D01*
X139430919Y-119962948D01*
X139430923Y-119962951D01*
X139553837Y-120045080D01*
X139553850Y-120045087D01*
X139690421Y-120101656D01*
X139690426Y-120101658D01*
X139690430Y-120101658D01*
X139690431Y-120101659D01*
X139835418Y-120130500D01*
X139835421Y-120130500D01*
X144218920Y-120130500D01*
X144316462Y-120111096D01*
X144363913Y-120101658D01*
X144500495Y-120045084D01*
X144549729Y-120012186D01*
X144623416Y-119962952D01*
X145997951Y-118588416D01*
X146080084Y-118465495D01*
X146136658Y-118328913D01*
X146165500Y-118183918D01*
X146165500Y-118036083D01*
X146165500Y-116952135D01*
X188014500Y-116952135D01*
X188014500Y-117947870D01*
X188014501Y-117947876D01*
X188020908Y-118007483D01*
X188071202Y-118142328D01*
X188071206Y-118142335D01*
X188157452Y-118257544D01*
X188157455Y-118257547D01*
X188272664Y-118343793D01*
X188272671Y-118343797D01*
X188407517Y-118394091D01*
X188407516Y-118394091D01*
X188414444Y-118394835D01*
X188467127Y-118400500D01*
X190562872Y-118400499D01*
X190622483Y-118394091D01*
X190757331Y-118343796D01*
X190872546Y-118257546D01*
X190958796Y-118142331D01*
X191009091Y-118007483D01*
X191015500Y-117947873D01*
X191015499Y-116952128D01*
X191009091Y-116892517D01*
X190993419Y-116850499D01*
X190958797Y-116757671D01*
X190958793Y-116757664D01*
X190872547Y-116642455D01*
X190872544Y-116642452D01*
X190757335Y-116556206D01*
X190757328Y-116556202D01*
X190622482Y-116505908D01*
X190622483Y-116505908D01*
X190562883Y-116499501D01*
X190562881Y-116499500D01*
X190562873Y-116499500D01*
X190562864Y-116499500D01*
X188467129Y-116499500D01*
X188467123Y-116499501D01*
X188407516Y-116505908D01*
X188272671Y-116556202D01*
X188272664Y-116556206D01*
X188157455Y-116642452D01*
X188157452Y-116642455D01*
X188071206Y-116757664D01*
X188071202Y-116757671D01*
X188020908Y-116892517D01*
X188014501Y-116952116D01*
X188014501Y-116952123D01*
X188014500Y-116952135D01*
X146165500Y-116952135D01*
X146165500Y-115932229D01*
X146185185Y-115865190D01*
X146201819Y-115844548D01*
X146959548Y-115086819D01*
X147020871Y-115053334D01*
X147047229Y-115050500D01*
X147205028Y-115050500D01*
X147245983Y-115057458D01*
X147325745Y-115085368D01*
X147325750Y-115085369D01*
X147504996Y-115105565D01*
X147505000Y-115105565D01*
X147505004Y-115105565D01*
X147684249Y-115085369D01*
X147684252Y-115085368D01*
X147684255Y-115085368D01*
X147854522Y-115025789D01*
X148007262Y-114929816D01*
X148134816Y-114802262D01*
X148230789Y-114649522D01*
X148290368Y-114479255D01*
X148297631Y-114414793D01*
X148310565Y-114300003D01*
X148310565Y-114299996D01*
X148290369Y-114120750D01*
X148290368Y-114120745D01*
X148256994Y-114025368D01*
X148230789Y-113950478D01*
X148134816Y-113797738D01*
X148007262Y-113670184D01*
X147951138Y-113634919D01*
X147854523Y-113574211D01*
X147684254Y-113514631D01*
X147684249Y-113514630D01*
X147505004Y-113494435D01*
X147504996Y-113494435D01*
X147325750Y-113514630D01*
X147325745Y-113514631D01*
X147245983Y-113542542D01*
X147205028Y-113549500D01*
X146611080Y-113549500D01*
X146466092Y-113578340D01*
X146466082Y-113578343D01*
X146329511Y-113634912D01*
X146329498Y-113634919D01*
X146206584Y-113717048D01*
X146206580Y-113717051D01*
X144832048Y-115091583D01*
X144812921Y-115120211D01*
X144812920Y-115120212D01*
X144749913Y-115214508D01*
X144693343Y-115351082D01*
X144693340Y-115351092D01*
X144664500Y-115496079D01*
X144664500Y-117747770D01*
X144644815Y-117814809D01*
X144628181Y-117835451D01*
X143870451Y-118593181D01*
X143809128Y-118626666D01*
X143782770Y-118629500D01*
X140271568Y-118629500D01*
X140204529Y-118609815D01*
X140183887Y-118593181D01*
X139715792Y-118125085D01*
X139682307Y-118063762D01*
X139687291Y-117994070D01*
X139698479Y-117971432D01*
X139713288Y-117947864D01*
X139790789Y-117824522D01*
X139850368Y-117654255D01*
X139864105Y-117532335D01*
X139870565Y-117475003D01*
X139870565Y-117474996D01*
X139855115Y-117337873D01*
X139850368Y-117295745D01*
X139822458Y-117215982D01*
X139815500Y-117175028D01*
X139815500Y-100454000D01*
X139835185Y-100386961D01*
X139887989Y-100341206D01*
X139939500Y-100330000D01*
X140305500Y-100330000D01*
X140372539Y-100349685D01*
X140418294Y-100402489D01*
X140429500Y-100454000D01*
X140429500Y-112940028D01*
X140422542Y-112980982D01*
X140394631Y-113060747D01*
X140374435Y-113239996D01*
X140374435Y-113240003D01*
X140394630Y-113419249D01*
X140394631Y-113419254D01*
X140454211Y-113589523D01*
X140504894Y-113670184D01*
X140550184Y-113742262D01*
X140677738Y-113869816D01*
X140768080Y-113926582D01*
X140806110Y-113950478D01*
X140830478Y-113965789D01*
X141000745Y-114025368D01*
X141000750Y-114025369D01*
X141179996Y-114045565D01*
X141180000Y-114045565D01*
X141180004Y-114045565D01*
X141359249Y-114025369D01*
X141359252Y-114025368D01*
X141359255Y-114025368D01*
X141529522Y-113965789D01*
X141682262Y-113869816D01*
X141809816Y-113742262D01*
X141905789Y-113589522D01*
X141965368Y-113419255D01*
X141985565Y-113240000D01*
X141981588Y-113204707D01*
X141981587Y-113204702D01*
X180964500Y-113204702D01*
X180964500Y-115395292D01*
X180964501Y-115395298D01*
X180974718Y-115540027D01*
X180974718Y-115540031D01*
X180974719Y-115540034D01*
X180974720Y-115540038D01*
X181028834Y-115780314D01*
X181028835Y-115780319D01*
X181095599Y-115946206D01*
X181120795Y-116008809D01*
X181248216Y-116219589D01*
X181248219Y-116219592D01*
X181407798Y-116407201D01*
X181506869Y-116491470D01*
X181595411Y-116566784D01*
X181806191Y-116694205D01*
X182034683Y-116786165D01*
X182274966Y-116840281D01*
X182419705Y-116850500D01*
X184610294Y-116850499D01*
X184755034Y-116840281D01*
X184995317Y-116786165D01*
X185223809Y-116694205D01*
X185434589Y-116566784D01*
X185622201Y-116407201D01*
X185781784Y-116219589D01*
X185909205Y-116008809D01*
X186001165Y-115780317D01*
X186055281Y-115540034D01*
X186065500Y-115395295D01*
X186065499Y-113204706D01*
X186055281Y-113059966D01*
X186001165Y-112819683D01*
X185909205Y-112591191D01*
X185781784Y-112380411D01*
X185715930Y-112302990D01*
X185622201Y-112192798D01*
X185492654Y-112082606D01*
X185434589Y-112033216D01*
X185223809Y-111905795D01*
X184995318Y-111813835D01*
X184755036Y-111759719D01*
X184755029Y-111759718D01*
X184610296Y-111749500D01*
X182419707Y-111749500D01*
X182419701Y-111749501D01*
X182274972Y-111759718D01*
X182274966Y-111759718D01*
X182274966Y-111759719D01*
X182274963Y-111759719D01*
X182274961Y-111759720D01*
X182034685Y-111813834D01*
X182034680Y-111813835D01*
X181806190Y-111905795D01*
X181806185Y-111905798D01*
X181595417Y-112033212D01*
X181595407Y-112033219D01*
X181407798Y-112192798D01*
X181248219Y-112380407D01*
X181248212Y-112380417D01*
X181120798Y-112591185D01*
X181120795Y-112591190D01*
X181028835Y-112819680D01*
X181028835Y-112819682D01*
X180974719Y-113059963D01*
X180974718Y-113059970D01*
X180964500Y-113204702D01*
X141981587Y-113204702D01*
X141965368Y-113060747D01*
X141965368Y-113060745D01*
X141937458Y-112980982D01*
X141930500Y-112940028D01*
X141930500Y-109239995D01*
X154624592Y-109239995D01*
X154624592Y-109240004D01*
X154644196Y-109501620D01*
X154644197Y-109501625D01*
X154702576Y-109757402D01*
X154702578Y-109757411D01*
X154702580Y-109757416D01*
X154798432Y-110001643D01*
X154929614Y-110228857D01*
X155061736Y-110394533D01*
X155093198Y-110433985D01*
X155274753Y-110602441D01*
X155285521Y-110612433D01*
X155502296Y-110760228D01*
X155502301Y-110760230D01*
X155502302Y-110760231D01*
X155502303Y-110760232D01*
X155627843Y-110820688D01*
X155738673Y-110874061D01*
X155738674Y-110874061D01*
X155738677Y-110874063D01*
X155989385Y-110951396D01*
X156248818Y-110990500D01*
X156511182Y-110990500D01*
X156770615Y-110951396D01*
X157021323Y-110874063D01*
X157257704Y-110760228D01*
X157474479Y-110612433D01*
X157666805Y-110433981D01*
X157830386Y-110228857D01*
X157961568Y-110001643D01*
X158057420Y-109757416D01*
X158115802Y-109501630D01*
X158116333Y-109494548D01*
X158135408Y-109240004D01*
X158135408Y-109239995D01*
X168624592Y-109239995D01*
X168624592Y-109240004D01*
X168644196Y-109501620D01*
X168644197Y-109501625D01*
X168702576Y-109757402D01*
X168702578Y-109757411D01*
X168702580Y-109757416D01*
X168798432Y-110001643D01*
X168929614Y-110228857D01*
X169061736Y-110394533D01*
X169093198Y-110433985D01*
X169274753Y-110602441D01*
X169285521Y-110612433D01*
X169502296Y-110760228D01*
X169502301Y-110760230D01*
X169502302Y-110760231D01*
X169502303Y-110760232D01*
X169627843Y-110820688D01*
X169738673Y-110874061D01*
X169738674Y-110874061D01*
X169738677Y-110874063D01*
X169989385Y-110951396D01*
X170248818Y-110990500D01*
X170511182Y-110990500D01*
X170770615Y-110951396D01*
X171021323Y-110874063D01*
X171257704Y-110760228D01*
X171474479Y-110612433D01*
X171666805Y-110433981D01*
X171830386Y-110228857D01*
X171961568Y-110001643D01*
X172057420Y-109757416D01*
X172115802Y-109501630D01*
X172116333Y-109494548D01*
X172135408Y-109240004D01*
X172135408Y-109239995D01*
X172115803Y-108978379D01*
X172115802Y-108978374D01*
X172115802Y-108978370D01*
X172057420Y-108722584D01*
X171961568Y-108478357D01*
X171830386Y-108251143D01*
X171666805Y-108046019D01*
X171666804Y-108046018D01*
X171666801Y-108046014D01*
X171474479Y-107867567D01*
X171257704Y-107719772D01*
X171257700Y-107719770D01*
X171257697Y-107719768D01*
X171257696Y-107719767D01*
X171021325Y-107605938D01*
X171021327Y-107605938D01*
X170770623Y-107528606D01*
X170770619Y-107528605D01*
X170770615Y-107528604D01*
X170645823Y-107509794D01*
X170511187Y-107489500D01*
X170511182Y-107489500D01*
X170248818Y-107489500D01*
X170248812Y-107489500D01*
X170087247Y-107513853D01*
X169989385Y-107528604D01*
X169989382Y-107528605D01*
X169989376Y-107528606D01*
X169738673Y-107605938D01*
X169502303Y-107719767D01*
X169502302Y-107719768D01*
X169502296Y-107719771D01*
X169502296Y-107719772D01*
X169500287Y-107721142D01*
X169285520Y-107867567D01*
X169093198Y-108046014D01*
X168929614Y-108251143D01*
X168798432Y-108478356D01*
X168702582Y-108722578D01*
X168702576Y-108722597D01*
X168644197Y-108978374D01*
X168644196Y-108978379D01*
X168624592Y-109239995D01*
X158135408Y-109239995D01*
X158115803Y-108978379D01*
X158115802Y-108978374D01*
X158115802Y-108978370D01*
X158057420Y-108722584D01*
X157961568Y-108478357D01*
X157830386Y-108251143D01*
X157666805Y-108046019D01*
X157666804Y-108046018D01*
X157666801Y-108046014D01*
X157474479Y-107867567D01*
X157257704Y-107719772D01*
X157257700Y-107719770D01*
X157257697Y-107719768D01*
X157257696Y-107719767D01*
X157021325Y-107605938D01*
X157021327Y-107605938D01*
X156770623Y-107528606D01*
X156770619Y-107528605D01*
X156770615Y-107528604D01*
X156645823Y-107509794D01*
X156511187Y-107489500D01*
X156511182Y-107489500D01*
X156248818Y-107489500D01*
X156248812Y-107489500D01*
X156087247Y-107513853D01*
X155989385Y-107528604D01*
X155989382Y-107528605D01*
X155989376Y-107528606D01*
X155738673Y-107605938D01*
X155502303Y-107719767D01*
X155502302Y-107719768D01*
X155502296Y-107719771D01*
X155502296Y-107719772D01*
X155500287Y-107721142D01*
X155285520Y-107867567D01*
X155093198Y-108046014D01*
X154929614Y-108251143D01*
X154798432Y-108478356D01*
X154702582Y-108722578D01*
X154702576Y-108722597D01*
X154644197Y-108978374D01*
X154644196Y-108978379D01*
X154624592Y-109239995D01*
X141930500Y-109239995D01*
X141930500Y-107099994D01*
X180959457Y-107099994D01*
X180959457Y-107100005D01*
X180979606Y-107420283D01*
X180979607Y-107420290D01*
X180979608Y-107420294D01*
X181036736Y-107719772D01*
X181039745Y-107735542D01*
X181138916Y-108040759D01*
X181138918Y-108040764D01*
X181275558Y-108331138D01*
X181275562Y-108331144D01*
X181447520Y-108602108D01*
X181447522Y-108602111D01*
X181652087Y-108849388D01*
X181652089Y-108849390D01*
X181668178Y-108864498D01*
X181886034Y-109069078D01*
X181886044Y-109069086D01*
X182145660Y-109257708D01*
X182145666Y-109257711D01*
X182145672Y-109257716D01*
X182426903Y-109412324D01*
X182725294Y-109530466D01*
X182725293Y-109530466D01*
X183036135Y-109610276D01*
X183036139Y-109610277D01*
X183102935Y-109618715D01*
X183354524Y-109650499D01*
X183354533Y-109650499D01*
X183354536Y-109650500D01*
X183354538Y-109650500D01*
X183675462Y-109650500D01*
X183675464Y-109650500D01*
X183675467Y-109650499D01*
X183675475Y-109650499D01*
X183865463Y-109626497D01*
X183993861Y-109610277D01*
X184304706Y-109530466D01*
X184603097Y-109412324D01*
X184884328Y-109257716D01*
X185143964Y-109069080D01*
X185377911Y-108849390D01*
X185582478Y-108602110D01*
X185754439Y-108331142D01*
X185891084Y-108040758D01*
X185990256Y-107735538D01*
X186050392Y-107420294D01*
X186058909Y-107284916D01*
X186070543Y-107100005D01*
X186070543Y-107099994D01*
X186050393Y-106779716D01*
X186050392Y-106779709D01*
X186050392Y-106779706D01*
X185990256Y-106464462D01*
X185891084Y-106159242D01*
X185885243Y-106146829D01*
X185754441Y-105868861D01*
X185754437Y-105868855D01*
X185582479Y-105597891D01*
X185582477Y-105597888D01*
X185377912Y-105350611D01*
X185260118Y-105239995D01*
X185143964Y-105130920D01*
X185143961Y-105130918D01*
X185143955Y-105130913D01*
X184884339Y-104942291D01*
X184884321Y-104942280D01*
X184603096Y-104787675D01*
X184603093Y-104787674D01*
X184304703Y-104669533D01*
X184304706Y-104669533D01*
X183993864Y-104589723D01*
X183993851Y-104589721D01*
X183675475Y-104549500D01*
X183675464Y-104549500D01*
X183354536Y-104549500D01*
X183354524Y-104549500D01*
X183036148Y-104589721D01*
X183036135Y-104589723D01*
X182725294Y-104669533D01*
X182426906Y-104787674D01*
X182426903Y-104787675D01*
X182145678Y-104942280D01*
X182145660Y-104942291D01*
X181886044Y-105130913D01*
X181886034Y-105130921D01*
X181652087Y-105350611D01*
X181447522Y-105597888D01*
X181447520Y-105597891D01*
X181275562Y-105868855D01*
X181275558Y-105868861D01*
X181138918Y-106159235D01*
X181138916Y-106159240D01*
X181039745Y-106464457D01*
X180979607Y-106779709D01*
X180979606Y-106779716D01*
X180959457Y-107099994D01*
X141930500Y-107099994D01*
X141930500Y-105239995D01*
X154624592Y-105239995D01*
X154624592Y-105240004D01*
X154644196Y-105501620D01*
X154644197Y-105501625D01*
X154702576Y-105757402D01*
X154702578Y-105757411D01*
X154702580Y-105757416D01*
X154798432Y-106001643D01*
X154929614Y-106228857D01*
X155009407Y-106328914D01*
X155093198Y-106433985D01*
X155274753Y-106602441D01*
X155285521Y-106612433D01*
X155502296Y-106760228D01*
X155502301Y-106760230D01*
X155502302Y-106760231D01*
X155502303Y-106760232D01*
X155606236Y-106810283D01*
X155738673Y-106874061D01*
X155738674Y-106874061D01*
X155738677Y-106874063D01*
X155989385Y-106951396D01*
X156248818Y-106990500D01*
X156511182Y-106990500D01*
X156770615Y-106951396D01*
X157021323Y-106874063D01*
X157217251Y-106779709D01*
X157257696Y-106760232D01*
X157257696Y-106760231D01*
X157257704Y-106760228D01*
X157474479Y-106612433D01*
X157666805Y-106433981D01*
X157830386Y-106228857D01*
X157961568Y-106001643D01*
X158057420Y-105757416D01*
X158115802Y-105501630D01*
X158135408Y-105240000D01*
X158135408Y-105239995D01*
X168624592Y-105239995D01*
X168624592Y-105240004D01*
X168644196Y-105501620D01*
X168644197Y-105501625D01*
X168702576Y-105757402D01*
X168702578Y-105757411D01*
X168702580Y-105757416D01*
X168798432Y-106001643D01*
X168929614Y-106228857D01*
X169009407Y-106328914D01*
X169093198Y-106433985D01*
X169274753Y-106602441D01*
X169285521Y-106612433D01*
X169502296Y-106760228D01*
X169502301Y-106760230D01*
X169502302Y-106760231D01*
X169502303Y-106760232D01*
X169606236Y-106810283D01*
X169738673Y-106874061D01*
X169738674Y-106874061D01*
X169738677Y-106874063D01*
X169989385Y-106951396D01*
X170248818Y-106990500D01*
X170511182Y-106990500D01*
X170770615Y-106951396D01*
X171021323Y-106874063D01*
X171217251Y-106779709D01*
X171257696Y-106760232D01*
X171257696Y-106760231D01*
X171257704Y-106760228D01*
X171474479Y-106612433D01*
X171666805Y-106433981D01*
X171830386Y-106228857D01*
X171961568Y-106001643D01*
X172057420Y-105757416D01*
X172115802Y-105501630D01*
X172135408Y-105240000D01*
X172127233Y-105130913D01*
X172115803Y-104978379D01*
X172115802Y-104978374D01*
X172115802Y-104978370D01*
X172057420Y-104722584D01*
X171961568Y-104478357D01*
X171830386Y-104251143D01*
X171666805Y-104046019D01*
X171666804Y-104046018D01*
X171666801Y-104046014D01*
X171474479Y-103867567D01*
X171257704Y-103719772D01*
X171257700Y-103719770D01*
X171257697Y-103719768D01*
X171257696Y-103719767D01*
X171021325Y-103605938D01*
X171021327Y-103605938D01*
X170770623Y-103528606D01*
X170770619Y-103528605D01*
X170770615Y-103528604D01*
X170645823Y-103509794D01*
X170511187Y-103489500D01*
X170511182Y-103489500D01*
X170248818Y-103489500D01*
X170248812Y-103489500D01*
X170087247Y-103513853D01*
X169989385Y-103528604D01*
X169989382Y-103528605D01*
X169989376Y-103528606D01*
X169738673Y-103605938D01*
X169502303Y-103719767D01*
X169502302Y-103719768D01*
X169285520Y-103867567D01*
X169093198Y-104046014D01*
X168929614Y-104251143D01*
X168798432Y-104478356D01*
X168702582Y-104722578D01*
X168702576Y-104722597D01*
X168644197Y-104978374D01*
X168644196Y-104978379D01*
X168624592Y-105239995D01*
X158135408Y-105239995D01*
X158127233Y-105130913D01*
X158115803Y-104978379D01*
X158115802Y-104978374D01*
X158115802Y-104978370D01*
X158057420Y-104722584D01*
X157961568Y-104478357D01*
X157830386Y-104251143D01*
X157666805Y-104046019D01*
X157666804Y-104046018D01*
X157666801Y-104046014D01*
X157474479Y-103867567D01*
X157257704Y-103719772D01*
X157257700Y-103719770D01*
X157257697Y-103719768D01*
X157257696Y-103719767D01*
X157021325Y-103605938D01*
X157021327Y-103605938D01*
X156770623Y-103528606D01*
X156770619Y-103528605D01*
X156770615Y-103528604D01*
X156645823Y-103509794D01*
X156511187Y-103489500D01*
X156511182Y-103489500D01*
X156248818Y-103489500D01*
X156248812Y-103489500D01*
X156087247Y-103513853D01*
X155989385Y-103528604D01*
X155989382Y-103528605D01*
X155989376Y-103528606D01*
X155738673Y-103605938D01*
X155502303Y-103719767D01*
X155502302Y-103719768D01*
X155285520Y-103867567D01*
X155093198Y-104046014D01*
X154929614Y-104251143D01*
X154798432Y-104478356D01*
X154702582Y-104722578D01*
X154702576Y-104722597D01*
X154644197Y-104978374D01*
X154644196Y-104978379D01*
X154624592Y-105239995D01*
X141930500Y-105239995D01*
X141930500Y-103452135D01*
X188014500Y-103452135D01*
X188014500Y-104447870D01*
X188014501Y-104447876D01*
X188020908Y-104507483D01*
X188071202Y-104642328D01*
X188071206Y-104642335D01*
X188157452Y-104757544D01*
X188157455Y-104757547D01*
X188272664Y-104843793D01*
X188272671Y-104843797D01*
X188407517Y-104894091D01*
X188407516Y-104894091D01*
X188414444Y-104894835D01*
X188467127Y-104900500D01*
X190562872Y-104900499D01*
X190622483Y-104894091D01*
X190757331Y-104843796D01*
X190872546Y-104757546D01*
X190958796Y-104642331D01*
X191009091Y-104507483D01*
X191015500Y-104447873D01*
X191015499Y-103452128D01*
X191009091Y-103392517D01*
X190958796Y-103257669D01*
X190958795Y-103257668D01*
X190958793Y-103257664D01*
X190872547Y-103142455D01*
X190872544Y-103142452D01*
X190757335Y-103056206D01*
X190757328Y-103056202D01*
X190622482Y-103005908D01*
X190622483Y-103005908D01*
X190562883Y-102999501D01*
X190562881Y-102999500D01*
X190562873Y-102999500D01*
X190562864Y-102999500D01*
X188467129Y-102999500D01*
X188467123Y-102999501D01*
X188407516Y-103005908D01*
X188272671Y-103056202D01*
X188272664Y-103056206D01*
X188157455Y-103142452D01*
X188157452Y-103142455D01*
X188071206Y-103257664D01*
X188071202Y-103257671D01*
X188020908Y-103392517D01*
X188014501Y-103452116D01*
X188014501Y-103452123D01*
X188014500Y-103452135D01*
X141930500Y-103452135D01*
X141930500Y-100454000D01*
X141950185Y-100386961D01*
X142002989Y-100341206D01*
X142054500Y-100330000D01*
X199400500Y-100330000D01*
X199467539Y-100349685D01*
X199513294Y-100402489D01*
X199524500Y-100454000D01*
X199524500Y-132725500D01*
X199504815Y-132792539D01*
X199452011Y-132838294D01*
X199400500Y-132849500D01*
X189724919Y-132849500D01*
X189657880Y-132829815D01*
X189612125Y-132777011D01*
X189602181Y-132707853D01*
X189625965Y-132650773D01*
X189694802Y-132559618D01*
X189740058Y-132499689D01*
X189839229Y-132300528D01*
X189900115Y-132086536D01*
X189920643Y-131865000D01*
X189900115Y-131643464D01*
X189839229Y-131429472D01*
X189824554Y-131400000D01*
X189740061Y-131230316D01*
X189740056Y-131230308D01*
X189605979Y-131052761D01*
X189441562Y-130902876D01*
X189441560Y-130902874D01*
X189252404Y-130785754D01*
X189252398Y-130785752D01*
X189044940Y-130705382D01*
X188826243Y-130664500D01*
X188603757Y-130664500D01*
X188385060Y-130705382D01*
X188253864Y-130756207D01*
X188177601Y-130785752D01*
X188177595Y-130785754D01*
X187988439Y-130902874D01*
X187988437Y-130902876D01*
X187824020Y-131052761D01*
X187689943Y-131230308D01*
X187689938Y-131230316D01*
X187590775Y-131429461D01*
X187590769Y-131429476D01*
X187529885Y-131643462D01*
X187529884Y-131643464D01*
X187509357Y-131864999D01*
X187509357Y-131865000D01*
X187529884Y-132086535D01*
X187529885Y-132086537D01*
X187590769Y-132300523D01*
X187590775Y-132300538D01*
X187689938Y-132499683D01*
X187689943Y-132499691D01*
X187804035Y-132650773D01*
X187828727Y-132716135D01*
X187814162Y-132784469D01*
X187764964Y-132834082D01*
X187705081Y-132849500D01*
X101589500Y-132849500D01*
X101522461Y-132829815D01*
X101476706Y-132777011D01*
X101465500Y-132725500D01*
X101465500Y-131399999D01*
X111489357Y-131399999D01*
X111489357Y-131400000D01*
X111509884Y-131621535D01*
X111509885Y-131621537D01*
X111570769Y-131835523D01*
X111570775Y-131835538D01*
X111669938Y-132034683D01*
X111669943Y-132034691D01*
X111804020Y-132212238D01*
X111968437Y-132362123D01*
X111968439Y-132362125D01*
X112157595Y-132479245D01*
X112157596Y-132479245D01*
X112157599Y-132479247D01*
X112365060Y-132559618D01*
X112583757Y-132600500D01*
X112583759Y-132600500D01*
X112806241Y-132600500D01*
X112806243Y-132600500D01*
X113024940Y-132559618D01*
X113232401Y-132479247D01*
X113421562Y-132362124D01*
X113585981Y-132212236D01*
X113720058Y-132034689D01*
X113819229Y-131835528D01*
X113880115Y-131621536D01*
X113900643Y-131400000D01*
X113880115Y-131178464D01*
X113819229Y-130964472D01*
X113746379Y-130818170D01*
X113720061Y-130765316D01*
X113720056Y-130765308D01*
X113585979Y-130587761D01*
X113421562Y-130437876D01*
X113421560Y-130437874D01*
X113232404Y-130320754D01*
X113232398Y-130320752D01*
X113024940Y-130240382D01*
X112806243Y-130199500D01*
X112583757Y-130199500D01*
X112365060Y-130240382D01*
X112233864Y-130291207D01*
X112157601Y-130320752D01*
X112157595Y-130320754D01*
X111968439Y-130437874D01*
X111968437Y-130437876D01*
X111804020Y-130587761D01*
X111669943Y-130765308D01*
X111669938Y-130765316D01*
X111570775Y-130964461D01*
X111570769Y-130964476D01*
X111509885Y-131178462D01*
X111509884Y-131178464D01*
X111489357Y-131399999D01*
X101465500Y-131399999D01*
X101465500Y-128864992D01*
X181459671Y-128864992D01*
X181459671Y-128865007D01*
X181478964Y-129159363D01*
X181478965Y-129159373D01*
X181478966Y-129159380D01*
X181478968Y-129159390D01*
X181536518Y-129448716D01*
X181536521Y-129448730D01*
X181631349Y-129728080D01*
X181761825Y-129992660D01*
X181761829Y-129992667D01*
X181925725Y-130237955D01*
X182120241Y-130459758D01*
X182342044Y-130654274D01*
X182538818Y-130785754D01*
X182587335Y-130818172D01*
X182851923Y-130948652D01*
X183131278Y-131043481D01*
X183420620Y-131101034D01*
X183448888Y-131102886D01*
X183714993Y-131120329D01*
X183715000Y-131120329D01*
X183715007Y-131120329D01*
X183950675Y-131104881D01*
X184009380Y-131101034D01*
X184298722Y-131043481D01*
X184578077Y-130948652D01*
X184842665Y-130818172D01*
X185087957Y-130654273D01*
X185309758Y-130459758D01*
X185504273Y-130237957D01*
X185668172Y-129992665D01*
X185798652Y-129728077D01*
X185893481Y-129448722D01*
X185951034Y-129159380D01*
X185970329Y-128865000D01*
X185970329Y-128864992D01*
X185951035Y-128570636D01*
X185951034Y-128570620D01*
X185893481Y-128281278D01*
X185798652Y-128001923D01*
X185668172Y-127737336D01*
X185504273Y-127492043D01*
X185461655Y-127443447D01*
X185309758Y-127270241D01*
X185087955Y-127075725D01*
X184842667Y-126911829D01*
X184842660Y-126911825D01*
X184578080Y-126781349D01*
X184298730Y-126686521D01*
X184298724Y-126686519D01*
X184298722Y-126686519D01*
X184009380Y-126628966D01*
X184009373Y-126628965D01*
X184009363Y-126628964D01*
X183715007Y-126609671D01*
X183714993Y-126609671D01*
X183420636Y-126628964D01*
X183420624Y-126628965D01*
X183420620Y-126628966D01*
X183420612Y-126628967D01*
X183420609Y-126628968D01*
X183131283Y-126686518D01*
X183131269Y-126686521D01*
X182851919Y-126781349D01*
X182587334Y-126911828D01*
X182342041Y-127075728D01*
X182120241Y-127270241D01*
X181925728Y-127492041D01*
X181761828Y-127737334D01*
X181631349Y-128001919D01*
X181536521Y-128281269D01*
X181536518Y-128281283D01*
X181478968Y-128570609D01*
X181478964Y-128570636D01*
X181459671Y-128864992D01*
X101465500Y-128864992D01*
X101465500Y-123399992D01*
X115439671Y-123399992D01*
X115439671Y-123400007D01*
X115458964Y-123694363D01*
X115458965Y-123694373D01*
X115458966Y-123694380D01*
X115458968Y-123694390D01*
X115516518Y-123983716D01*
X115516521Y-123983730D01*
X115611349Y-124263080D01*
X115741825Y-124527660D01*
X115741829Y-124527667D01*
X115905725Y-124772955D01*
X116100241Y-124994758D01*
X116322043Y-125189273D01*
X116567335Y-125353172D01*
X116831923Y-125483652D01*
X117111278Y-125578481D01*
X117400620Y-125636034D01*
X117428888Y-125637886D01*
X117694993Y-125655329D01*
X117695000Y-125655329D01*
X117695007Y-125655329D01*
X117930675Y-125639881D01*
X117989380Y-125636034D01*
X118278722Y-125578481D01*
X118558077Y-125483652D01*
X118822665Y-125353172D01*
X119067957Y-125189273D01*
X119289758Y-124994758D01*
X119484273Y-124772957D01*
X119648172Y-124527665D01*
X119778652Y-124263077D01*
X119873481Y-123983722D01*
X119931034Y-123694380D01*
X119950329Y-123400000D01*
X119950329Y-123399992D01*
X119931035Y-123105636D01*
X119931034Y-123105620D01*
X119873481Y-122816278D01*
X119778652Y-122536923D01*
X119648172Y-122272336D01*
X119511062Y-122067135D01*
X181464500Y-122067135D01*
X181464500Y-125662870D01*
X181464501Y-125662876D01*
X181470908Y-125722483D01*
X181521202Y-125857328D01*
X181521206Y-125857335D01*
X181607452Y-125972544D01*
X181607455Y-125972547D01*
X181722664Y-126058793D01*
X181722671Y-126058797D01*
X181857517Y-126109091D01*
X181857516Y-126109091D01*
X181864444Y-126109835D01*
X181917127Y-126115500D01*
X185512872Y-126115499D01*
X185572483Y-126109091D01*
X185707331Y-126058796D01*
X185822546Y-125972546D01*
X185908796Y-125857331D01*
X185959091Y-125722483D01*
X185965500Y-125662873D01*
X185965499Y-122067128D01*
X185959091Y-122007517D01*
X185908796Y-121872669D01*
X185908795Y-121872668D01*
X185908793Y-121872664D01*
X185822547Y-121757455D01*
X185822544Y-121757452D01*
X185707335Y-121671206D01*
X185707328Y-121671202D01*
X185572482Y-121620908D01*
X185572483Y-121620908D01*
X185512883Y-121614501D01*
X185512881Y-121614500D01*
X185512873Y-121614500D01*
X185512864Y-121614500D01*
X181917129Y-121614500D01*
X181917123Y-121614501D01*
X181857516Y-121620908D01*
X181722671Y-121671202D01*
X181722664Y-121671206D01*
X181607455Y-121757452D01*
X181607452Y-121757455D01*
X181521206Y-121872664D01*
X181521202Y-121872671D01*
X181470908Y-122007517D01*
X181464675Y-122065500D01*
X181464501Y-122067123D01*
X181464500Y-122067135D01*
X119511062Y-122067135D01*
X119484273Y-122027043D01*
X119348892Y-121872671D01*
X119289758Y-121805241D01*
X119067955Y-121610725D01*
X118822667Y-121446829D01*
X118822660Y-121446825D01*
X118558080Y-121316349D01*
X118278730Y-121221521D01*
X118278724Y-121221519D01*
X118278722Y-121221519D01*
X117989380Y-121163966D01*
X117989373Y-121163965D01*
X117989363Y-121163964D01*
X117695007Y-121144671D01*
X117694993Y-121144671D01*
X117400636Y-121163964D01*
X117400624Y-121163965D01*
X117400620Y-121163966D01*
X117400612Y-121163967D01*
X117400609Y-121163968D01*
X117111283Y-121221518D01*
X117111269Y-121221521D01*
X116831919Y-121316349D01*
X116567334Y-121446828D01*
X116322041Y-121610728D01*
X116100241Y-121805241D01*
X115905728Y-122027041D01*
X115741828Y-122272334D01*
X115611349Y-122536919D01*
X115516521Y-122816269D01*
X115516518Y-122816283D01*
X115458968Y-123105609D01*
X115458964Y-123105636D01*
X115439671Y-123399992D01*
X101465500Y-123399992D01*
X101465500Y-120399999D01*
X111489357Y-120399999D01*
X111489357Y-120400000D01*
X111509884Y-120621535D01*
X111509885Y-120621537D01*
X111570769Y-120835523D01*
X111570775Y-120835538D01*
X111669938Y-121034683D01*
X111669943Y-121034691D01*
X111804020Y-121212238D01*
X111968437Y-121362123D01*
X111968439Y-121362125D01*
X112157595Y-121479245D01*
X112157596Y-121479245D01*
X112157599Y-121479247D01*
X112365060Y-121559618D01*
X112583757Y-121600500D01*
X112583759Y-121600500D01*
X112806241Y-121600500D01*
X112806243Y-121600500D01*
X113024940Y-121559618D01*
X113232401Y-121479247D01*
X113421562Y-121362124D01*
X113585981Y-121212236D01*
X113720058Y-121034689D01*
X113804554Y-120864999D01*
X187509357Y-120864999D01*
X187509357Y-120865000D01*
X187529884Y-121086535D01*
X187529885Y-121086537D01*
X187590769Y-121300523D01*
X187590775Y-121300538D01*
X187689938Y-121499683D01*
X187689943Y-121499691D01*
X187824020Y-121677238D01*
X187988437Y-121827123D01*
X187988439Y-121827125D01*
X188177595Y-121944245D01*
X188177596Y-121944245D01*
X188177599Y-121944247D01*
X188385060Y-122024618D01*
X188603757Y-122065500D01*
X188603759Y-122065500D01*
X188826241Y-122065500D01*
X188826243Y-122065500D01*
X189044940Y-122024618D01*
X189252401Y-121944247D01*
X189441562Y-121827124D01*
X189605981Y-121677236D01*
X189740058Y-121499689D01*
X189839229Y-121300528D01*
X189900115Y-121086536D01*
X189920643Y-120865000D01*
X189900115Y-120643464D01*
X189839229Y-120429472D01*
X189824554Y-120400000D01*
X189740061Y-120230316D01*
X189740056Y-120230308D01*
X189605979Y-120052761D01*
X189441562Y-119902876D01*
X189441560Y-119902874D01*
X189252404Y-119785754D01*
X189252398Y-119785752D01*
X189044940Y-119705382D01*
X188826243Y-119664500D01*
X188603757Y-119664500D01*
X188385060Y-119705382D01*
X188253864Y-119756207D01*
X188177601Y-119785752D01*
X188177595Y-119785754D01*
X187988439Y-119902874D01*
X187988437Y-119902876D01*
X187824020Y-120052761D01*
X187689943Y-120230308D01*
X187689938Y-120230316D01*
X187590775Y-120429461D01*
X187590769Y-120429476D01*
X187529885Y-120643462D01*
X187529884Y-120643464D01*
X187509357Y-120864999D01*
X113804554Y-120864999D01*
X113819229Y-120835528D01*
X113880115Y-120621536D01*
X113900643Y-120400000D01*
X113880115Y-120178464D01*
X113819229Y-119964472D01*
X113819224Y-119964461D01*
X113720061Y-119765316D01*
X113720056Y-119765308D01*
X113585979Y-119587761D01*
X113421562Y-119437876D01*
X113421560Y-119437874D01*
X113232404Y-119320754D01*
X113232398Y-119320752D01*
X113024940Y-119240382D01*
X112806243Y-119199500D01*
X112583757Y-119199500D01*
X112365060Y-119240382D01*
X112233864Y-119291207D01*
X112157601Y-119320752D01*
X112157595Y-119320754D01*
X111968439Y-119437874D01*
X111968437Y-119437876D01*
X111804020Y-119587761D01*
X111669943Y-119765308D01*
X111669938Y-119765316D01*
X111570775Y-119964461D01*
X111570769Y-119964476D01*
X111509885Y-120178462D01*
X111509884Y-120178464D01*
X111489357Y-120399999D01*
X101465500Y-120399999D01*
X101465500Y-116342135D01*
X110259500Y-116342135D01*
X110259500Y-117337870D01*
X110259501Y-117337876D01*
X110265908Y-117397483D01*
X110316202Y-117532328D01*
X110316206Y-117532335D01*
X110402452Y-117647544D01*
X110402455Y-117647547D01*
X110517664Y-117733793D01*
X110517671Y-117733797D01*
X110652517Y-117784091D01*
X110652516Y-117784091D01*
X110659444Y-117784835D01*
X110712127Y-117790500D01*
X112807872Y-117790499D01*
X112867483Y-117784091D01*
X113002331Y-117733796D01*
X113117546Y-117647546D01*
X113203796Y-117532331D01*
X113254091Y-117397483D01*
X113260500Y-117337873D01*
X113260499Y-116342128D01*
X113254091Y-116282517D01*
X113230620Y-116219589D01*
X113203797Y-116147671D01*
X113203793Y-116147664D01*
X113117547Y-116032455D01*
X113117544Y-116032452D01*
X113002335Y-115946206D01*
X113002328Y-115946202D01*
X112867482Y-115895908D01*
X112867483Y-115895908D01*
X112807883Y-115889501D01*
X112807881Y-115889500D01*
X112807873Y-115889500D01*
X112807864Y-115889500D01*
X110712129Y-115889500D01*
X110712123Y-115889501D01*
X110652516Y-115895908D01*
X110517671Y-115946202D01*
X110517664Y-115946206D01*
X110402455Y-116032452D01*
X110402452Y-116032455D01*
X110316206Y-116147664D01*
X110316202Y-116147671D01*
X110265908Y-116282517D01*
X110259501Y-116342116D01*
X110259501Y-116342123D01*
X110259500Y-116342135D01*
X101465500Y-116342135D01*
X101465500Y-106489994D01*
X115204457Y-106489994D01*
X115204457Y-106490005D01*
X115224606Y-106810283D01*
X115224607Y-106810290D01*
X115241512Y-106898907D01*
X115279873Y-107100005D01*
X115284745Y-107125542D01*
X115383916Y-107430759D01*
X115383918Y-107430764D01*
X115520558Y-107721138D01*
X115520562Y-107721144D01*
X115692520Y-107992108D01*
X115692522Y-107992111D01*
X115737119Y-108046019D01*
X115897089Y-108239390D01*
X115994798Y-108331144D01*
X116131034Y-108459078D01*
X116131044Y-108459086D01*
X116390660Y-108647708D01*
X116390666Y-108647711D01*
X116390672Y-108647716D01*
X116671903Y-108802324D01*
X116970294Y-108920466D01*
X116970293Y-108920466D01*
X117195816Y-108978370D01*
X117281139Y-109000277D01*
X117347935Y-109008715D01*
X117599524Y-109040499D01*
X117599533Y-109040499D01*
X117599536Y-109040500D01*
X117599538Y-109040500D01*
X117920462Y-109040500D01*
X117920464Y-109040500D01*
X117920467Y-109040499D01*
X117920475Y-109040499D01*
X118110463Y-109016497D01*
X118238861Y-109000277D01*
X118549706Y-108920466D01*
X118848097Y-108802324D01*
X119129328Y-108647716D01*
X119388964Y-108459080D01*
X119622911Y-108239390D01*
X119827478Y-107992110D01*
X119999439Y-107721142D01*
X120136084Y-107430758D01*
X120235256Y-107125538D01*
X120295392Y-106810294D01*
X120297316Y-106779716D01*
X120315543Y-106490005D01*
X120315543Y-106489994D01*
X120295393Y-106169716D01*
X120295392Y-106169709D01*
X120295392Y-106169706D01*
X120235256Y-105854462D01*
X120136084Y-105549242D01*
X120136081Y-105549235D01*
X119999441Y-105258861D01*
X119999437Y-105258855D01*
X119827479Y-104987891D01*
X119827477Y-104987888D01*
X119622912Y-104740611D01*
X119388965Y-104520921D01*
X119388955Y-104520913D01*
X119129339Y-104332291D01*
X119129321Y-104332280D01*
X118848096Y-104177675D01*
X118848093Y-104177674D01*
X118549703Y-104059533D01*
X118549706Y-104059533D01*
X118238864Y-103979723D01*
X118238851Y-103979721D01*
X117920475Y-103939500D01*
X117920464Y-103939500D01*
X117599536Y-103939500D01*
X117599524Y-103939500D01*
X117281148Y-103979721D01*
X117281135Y-103979723D01*
X116970294Y-104059533D01*
X116671906Y-104177674D01*
X116671903Y-104177675D01*
X116390678Y-104332280D01*
X116390660Y-104332291D01*
X116131044Y-104520913D01*
X116131034Y-104520921D01*
X115897087Y-104740611D01*
X115692522Y-104987888D01*
X115692520Y-104987891D01*
X115520562Y-105258855D01*
X115520558Y-105258861D01*
X115383918Y-105549235D01*
X115383916Y-105549240D01*
X115284745Y-105854457D01*
X115224607Y-106169709D01*
X115224606Y-106169716D01*
X115204457Y-106489994D01*
X101465500Y-106489994D01*
X101465500Y-102842135D01*
X110259500Y-102842135D01*
X110259500Y-103837870D01*
X110259501Y-103837876D01*
X110265908Y-103897483D01*
X110316202Y-104032328D01*
X110316206Y-104032335D01*
X110402452Y-104147544D01*
X110402455Y-104147547D01*
X110517664Y-104233793D01*
X110517671Y-104233797D01*
X110652517Y-104284091D01*
X110652516Y-104284091D01*
X110659444Y-104284835D01*
X110712127Y-104290500D01*
X112807872Y-104290499D01*
X112867483Y-104284091D01*
X113002331Y-104233796D01*
X113117546Y-104147546D01*
X113203796Y-104032331D01*
X113254091Y-103897483D01*
X113260500Y-103837873D01*
X113260499Y-102842128D01*
X113254091Y-102782517D01*
X113203796Y-102647669D01*
X113203795Y-102647668D01*
X113203793Y-102647664D01*
X113117547Y-102532455D01*
X113117544Y-102532452D01*
X113002335Y-102446206D01*
X113002328Y-102446202D01*
X112867482Y-102395908D01*
X112867483Y-102395908D01*
X112807883Y-102389501D01*
X112807881Y-102389500D01*
X112807873Y-102389500D01*
X112807864Y-102389500D01*
X110712129Y-102389500D01*
X110712123Y-102389501D01*
X110652516Y-102395908D01*
X110517671Y-102446202D01*
X110517664Y-102446206D01*
X110402455Y-102532452D01*
X110402452Y-102532455D01*
X110316206Y-102647664D01*
X110316202Y-102647671D01*
X110265908Y-102782517D01*
X110259501Y-102842116D01*
X110259501Y-102842123D01*
X110259500Y-102842135D01*
X101465500Y-102842135D01*
X101465500Y-100454000D01*
X101485185Y-100386961D01*
X101537989Y-100341206D01*
X101589500Y-100330000D01*
X118609228Y-100330000D01*
X118676267Y-100349685D01*
G37*
%TD.AperFunction*%
%TA.AperFunction,Conductor*%
G36*
X129117539Y-100349685D02*
G01*
X129163294Y-100402489D01*
X129174500Y-100454000D01*
X129174500Y-105953541D01*
X129174500Y-105953543D01*
X129174499Y-105953543D01*
X129212947Y-106146829D01*
X129212950Y-106146839D01*
X129288364Y-106328907D01*
X129288371Y-106328920D01*
X129397860Y-106492781D01*
X129397863Y-106492785D01*
X129537214Y-106632136D01*
X129537218Y-106632139D01*
X129701079Y-106741628D01*
X129701092Y-106741635D01*
X129866825Y-106810283D01*
X129883165Y-106817051D01*
X129883169Y-106817051D01*
X129883170Y-106817052D01*
X130076456Y-106855500D01*
X130076459Y-106855500D01*
X130273543Y-106855500D01*
X130403582Y-106829632D01*
X130466835Y-106817051D01*
X130648914Y-106741632D01*
X130812782Y-106632139D01*
X130952139Y-106492782D01*
X131061632Y-106328914D01*
X131137051Y-106146835D01*
X131175500Y-105953541D01*
X131175500Y-100454000D01*
X131195185Y-100386961D01*
X131247989Y-100341206D01*
X131299500Y-100330000D01*
X138190500Y-100330000D01*
X138257539Y-100349685D01*
X138303294Y-100402489D01*
X138314500Y-100454000D01*
X138314500Y-116424431D01*
X138294815Y-116491470D01*
X138242011Y-116537225D01*
X138172853Y-116547169D01*
X138109297Y-116518144D01*
X138102819Y-116512112D01*
X136041819Y-114451112D01*
X136008334Y-114389789D01*
X136005500Y-114363431D01*
X136005500Y-109146079D01*
X135976659Y-109001092D01*
X135976658Y-109001091D01*
X135976658Y-109001087D01*
X135976323Y-109000278D01*
X135920087Y-108864511D01*
X135920080Y-108864498D01*
X135837952Y-108741585D01*
X135796867Y-108700500D01*
X135733416Y-108637049D01*
X135427505Y-108331138D01*
X134463421Y-107367052D01*
X134463420Y-107367051D01*
X134378353Y-107310212D01*
X134378352Y-107310211D01*
X134340500Y-107284919D01*
X134340488Y-107284912D01*
X134203917Y-107228343D01*
X134203907Y-107228340D01*
X134058920Y-107199500D01*
X134058918Y-107199500D01*
X129267229Y-107199500D01*
X129200190Y-107179815D01*
X129179548Y-107163181D01*
X128421819Y-106405451D01*
X128388334Y-106344128D01*
X128385500Y-106317770D01*
X128385500Y-100454000D01*
X128405185Y-100386961D01*
X128457989Y-100341206D01*
X128509500Y-100330000D01*
X129050500Y-100330000D01*
X129117539Y-100349685D01*
G37*
%TD.AperFunction*%
%TD*%
M02*
