%TF.GenerationSoftware,KiCad,Pcbnew,8.0.3*%
%TF.CreationDate,2024-08-31T13:36:08+09:00*%
%TF.ProjectId,Altair_Remote_Emergency_Stop_V1,416c7461-6972-45f5-9265-6d6f74655f45,rev?*%
%TF.SameCoordinates,Original*%
%TF.FileFunction,Copper,L1,Top*%
%TF.FilePolarity,Positive*%
%FSLAX46Y46*%
G04 Gerber Fmt 4.6, Leading zero omitted, Abs format (unit mm)*
G04 Created by KiCad (PCBNEW 8.0.3) date 2024-08-31 13:36:08*
%MOMM*%
%LPD*%
G01*
G04 APERTURE LIST*
G04 Aperture macros list*
%AMRoundRect*
0 Rectangle with rounded corners*
0 $1 Rounding radius*
0 $2 $3 $4 $5 $6 $7 $8 $9 X,Y pos of 4 corners*
0 Add a 4 corners polygon primitive as box body*
4,1,4,$2,$3,$4,$5,$6,$7,$8,$9,$2,$3,0*
0 Add four circle primitives for the rounded corners*
1,1,$1+$1,$2,$3*
1,1,$1+$1,$4,$5*
1,1,$1+$1,$6,$7*
1,1,$1+$1,$8,$9*
0 Add four rect primitives between the rounded corners*
20,1,$1+$1,$2,$3,$4,$5,0*
20,1,$1+$1,$4,$5,$6,$7,0*
20,1,$1+$1,$6,$7,$8,$9,0*
20,1,$1+$1,$8,$9,$2,$3,0*%
G04 Aperture macros list end*
%TA.AperFunction,SMDPad,CuDef*%
%ADD10RoundRect,0.200000X0.275000X-0.200000X0.275000X0.200000X-0.275000X0.200000X-0.275000X-0.200000X0*%
%TD*%
%TA.AperFunction,SMDPad,CuDef*%
%ADD11RoundRect,0.250000X-1.000000X1.750000X-1.000000X-1.750000X1.000000X-1.750000X1.000000X1.750000X0*%
%TD*%
%TA.AperFunction,SMDPad,CuDef*%
%ADD12RoundRect,0.200000X-0.200000X-0.275000X0.200000X-0.275000X0.200000X0.275000X-0.200000X0.275000X0*%
%TD*%
%TA.AperFunction,ComponentPad*%
%ADD13R,1.600000X1.600000*%
%TD*%
%TA.AperFunction,ComponentPad*%
%ADD14C,1.600000*%
%TD*%
%TA.AperFunction,ComponentPad*%
%ADD15C,4.000000*%
%TD*%
%TA.AperFunction,SMDPad,CuDef*%
%ADD16RoundRect,0.250000X-0.800000X0.450000X-0.800000X-0.450000X0.800000X-0.450000X0.800000X0.450000X0*%
%TD*%
%TA.AperFunction,SMDPad,CuDef*%
%ADD17RoundRect,0.200000X0.200000X0.275000X-0.200000X0.275000X-0.200000X-0.275000X0.200000X-0.275000X0*%
%TD*%
%TA.AperFunction,SMDPad,CuDef*%
%ADD18RoundRect,0.225000X-0.250000X0.225000X-0.250000X-0.225000X0.250000X-0.225000X0.250000X0.225000X0*%
%TD*%
%TA.AperFunction,ComponentPad*%
%ADD19R,2.000000X0.900000*%
%TD*%
%TA.AperFunction,ComponentPad*%
%ADD20RoundRect,1.025000X-1.025000X1.025000X-1.025000X-1.025000X1.025000X-1.025000X1.025000X1.025000X0*%
%TD*%
%TA.AperFunction,ComponentPad*%
%ADD21C,4.100000*%
%TD*%
%TA.AperFunction,SMDPad,CuDef*%
%ADD22RoundRect,0.250000X0.450000X0.800000X-0.450000X0.800000X-0.450000X-0.800000X0.450000X-0.800000X0*%
%TD*%
%TA.AperFunction,ComponentPad*%
%ADD23C,1.400000*%
%TD*%
%TA.AperFunction,ComponentPad*%
%ADD24R,3.500000X3.500000*%
%TD*%
%TA.AperFunction,ComponentPad*%
%ADD25C,3.500000*%
%TD*%
%TA.AperFunction,ComponentPad*%
%ADD26O,3.200000X1.900000*%
%TD*%
%TA.AperFunction,SMDPad,CuDef*%
%ADD27RoundRect,0.218750X-0.218750X-0.256250X0.218750X-0.256250X0.218750X0.256250X-0.218750X0.256250X0*%
%TD*%
%TA.AperFunction,SMDPad,CuDef*%
%ADD28RoundRect,0.225000X0.225000X0.250000X-0.225000X0.250000X-0.225000X-0.250000X0.225000X-0.250000X0*%
%TD*%
%TA.AperFunction,ComponentPad*%
%ADD29RoundRect,1.025000X1.025000X-1.025000X1.025000X1.025000X-1.025000X1.025000X-1.025000X-1.025000X0*%
%TD*%
%TA.AperFunction,ComponentPad*%
%ADD30C,2.500000*%
%TD*%
%TA.AperFunction,SMDPad,CuDef*%
%ADD31RoundRect,0.250000X-0.850000X-0.350000X0.850000X-0.350000X0.850000X0.350000X-0.850000X0.350000X0*%
%TD*%
%TA.AperFunction,SMDPad,CuDef*%
%ADD32RoundRect,0.250000X-1.275000X-1.125000X1.275000X-1.125000X1.275000X1.125000X-1.275000X1.125000X0*%
%TD*%
%TA.AperFunction,SMDPad,CuDef*%
%ADD33RoundRect,0.249997X-2.950003X-2.650003X2.950003X-2.650003X2.950003X2.650003X-2.950003X2.650003X0*%
%TD*%
%TA.AperFunction,SMDPad,CuDef*%
%ADD34R,1.500000X0.900000*%
%TD*%
%TA.AperFunction,HeatsinkPad*%
%ADD35C,0.600000*%
%TD*%
%TA.AperFunction,SMDPad,CuDef*%
%ADD36R,2.900000X2.900000*%
%TD*%
%TA.AperFunction,SMDPad,CuDef*%
%ADD37RoundRect,0.250000X-2.050000X-0.300000X2.050000X-0.300000X2.050000X0.300000X-2.050000X0.300000X0*%
%TD*%
%TA.AperFunction,SMDPad,CuDef*%
%ADD38RoundRect,0.250000X-2.025000X-2.375000X2.025000X-2.375000X2.025000X2.375000X-2.025000X2.375000X0*%
%TD*%
%TA.AperFunction,SMDPad,CuDef*%
%ADD39RoundRect,0.250002X-4.449998X-5.149998X4.449998X-5.149998X4.449998X5.149998X-4.449998X5.149998X0*%
%TD*%
%TA.AperFunction,SMDPad,CuDef*%
%ADD40R,1.200000X0.800000*%
%TD*%
%TA.AperFunction,ViaPad*%
%ADD41C,0.600000*%
%TD*%
%TA.AperFunction,Conductor*%
%ADD42C,0.500000*%
%TD*%
%TA.AperFunction,Conductor*%
%ADD43C,1.000000*%
%TD*%
%TA.AperFunction,Conductor*%
%ADD44C,4.500000*%
%TD*%
%TA.AperFunction,Conductor*%
%ADD45C,2.540000*%
%TD*%
G04 APERTURE END LIST*
D10*
%TO.P,R3,1*%
%TO.N,+3.3V*%
X164465000Y-88900000D03*
%TO.P,R3,2*%
%TO.N,Net-(U1-GPIO9)*%
X164465000Y-87250000D03*
%TD*%
D11*
%TO.P,C9,1*%
%TO.N,+24V*%
X127000000Y-105855000D03*
%TO.P,C9,2*%
%TO.N,GND1*%
X127000000Y-113855000D03*
%TD*%
D12*
%TO.P,R6,1*%
%TO.N,Net-(R6-Pad1)*%
X151170000Y-116218974D03*
%TO.P,R6,2*%
%TO.N,Net-(Q1-G)*%
X152820000Y-116218974D03*
%TD*%
D13*
%TO.P,J1,1,VBUS*%
%TO.N,+5V*%
X109240000Y-96322500D03*
D14*
%TO.P,J1,2,D-*%
%TO.N,USB-*%
X111740000Y-96322500D03*
%TO.P,J1,3,D+*%
%TO.N,USB+*%
X111740000Y-94322500D03*
%TO.P,J1,4,GND*%
%TO.N,GND*%
X109240000Y-94322500D03*
D15*
%TO.P,J1,5,Shield*%
X104490000Y-91462500D03*
X116490000Y-91462500D03*
%TD*%
D16*
%TO.P,D4,1,K*%
%TO.N,+24V*%
X125730000Y-94660000D03*
%TO.P,D4,2,A*%
%TO.N,+12V*%
X125730000Y-99060000D03*
%TD*%
D17*
%TO.P,R5,1*%
%TO.N,Ps1*%
X141795000Y-94890385D03*
%TO.P,R5,2*%
%TO.N,Net-(R5-Pad2)*%
X140145000Y-94890385D03*
%TD*%
D18*
%TO.P,C4,1*%
%TO.N,+24V*%
X121285000Y-94335000D03*
%TO.P,C4,2*%
%TO.N,GND1*%
X121285000Y-95885000D03*
%TD*%
D19*
%TO.P,J2,*%
%TO.N,*%
X189515000Y-103950000D03*
X189515000Y-117450000D03*
D20*
%TO.P,J2,1,Pin_1*%
%TO.N,-1*%
X183515000Y-114300000D03*
D21*
%TO.P,J2,2,Pin_2*%
%TO.N,+1*%
X183515000Y-107100000D03*
%TD*%
D22*
%TO.P,D3,1,K*%
%TO.N,-1*%
X161880000Y-126430000D03*
%TO.P,D3,2,A*%
%TO.N,GND1*%
X157480000Y-126430000D03*
%TD*%
D23*
%TO.P,J4,*%
%TO.N,*%
X112695000Y-131400000D03*
X112695000Y-120400000D03*
D24*
%TO.P,J4,1,Pin_1*%
%TO.N,GND1*%
X117695000Y-128400000D03*
D25*
%TO.P,J4,2,Pin_2*%
%TO.N,+24V*%
X117695000Y-123400000D03*
%TD*%
D26*
%TO.P,SW1,1,1*%
%TO.N,GND*%
X180975000Y-93345000D03*
X168475000Y-93345000D03*
%TO.P,SW1,2,2*%
%TO.N,Net-(U1-EN{slash}CHIP_PU)*%
X180975000Y-88345000D03*
X168475000Y-88345000D03*
%TD*%
D27*
%TO.P,D1,1,K*%
%TO.N,GND*%
X103835000Y-99060000D03*
%TO.P,D1,2,A*%
%TO.N,Net-(D1-A)*%
X105410000Y-99060000D03*
%TD*%
D28*
%TO.P,C3,1*%
%TO.N,+3.3V*%
X123190000Y-89535000D03*
%TO.P,C3,2*%
%TO.N,GND*%
X121640000Y-89535000D03*
%TD*%
D23*
%TO.P,J5,*%
%TO.N,*%
X188715000Y-120865000D03*
X188715000Y-131865000D03*
D24*
%TO.P,J5,1,Pin_1*%
%TO.N,-1*%
X183715000Y-123865000D03*
D25*
%TO.P,J5,2,Pin_2*%
%TO.N,+1*%
X183715000Y-128865000D03*
%TD*%
D28*
%TO.P,C6,1*%
%TO.N,+12V*%
X123190000Y-99695000D03*
%TO.P,C6,2*%
%TO.N,GND1*%
X121640000Y-99695000D03*
%TD*%
D17*
%TO.P,R1,1*%
%TO.N,+3.3V*%
X108775000Y-99060000D03*
%TO.P,R1,2*%
%TO.N,Net-(D1-A)*%
X107125000Y-99060000D03*
%TD*%
D28*
%TO.P,C7,1*%
%TO.N,+12V*%
X147505000Y-113030000D03*
%TO.P,C7,2*%
%TO.N,GND1*%
X145955000Y-113030000D03*
%TD*%
D10*
%TO.P,R2,1*%
%TO.N,+3.3V*%
X164465000Y-97980000D03*
%TO.P,R2,2*%
%TO.N,Net-(U1-EN{slash}CHIP_PU)*%
X164465000Y-96330000D03*
%TD*%
D11*
%TO.P,C8,1*%
%TO.N,+24V*%
X127000000Y-121920000D03*
%TO.P,C8,2*%
%TO.N,GND1*%
X127000000Y-129920000D03*
%TD*%
D19*
%TO.P,J3,*%
%TO.N,*%
X111760000Y-116840000D03*
X111760000Y-103340000D03*
D29*
%TO.P,J3,1,Pin_1*%
%TO.N,GND1*%
X117760000Y-113690000D03*
D21*
%TO.P,J3,2,Pin_2*%
%TO.N,+24V*%
X117760000Y-106490000D03*
%TD*%
D30*
%TO.P,U5,1,1*%
%TO.N,+24V*%
X156380000Y-105240000D03*
X156380000Y-109240000D03*
%TO.P,U5,2,2*%
%TO.N,+1*%
X170380000Y-105240000D03*
X170380000Y-109240000D03*
%TD*%
D31*
%TO.P,U3,1,IN*%
%TO.N,+24V*%
X129185000Y-94495000D03*
D32*
%TO.P,U3,2,GND*%
%TO.N,GND1*%
X133810000Y-95250000D03*
X133810000Y-98300000D03*
D33*
X135485000Y-96775000D03*
D32*
X137160000Y-95250000D03*
X137160000Y-98300000D03*
D31*
%TO.P,U3,3,OUT*%
%TO.N,+12V*%
X129185000Y-99055000D03*
%TD*%
D10*
%TO.P,R7,1*%
%TO.N,GND1*%
X149225000Y-117855000D03*
%TO.P,R7,2*%
%TO.N,Net-(R6-Pad1)*%
X149225000Y-116205000D03*
%TD*%
D18*
%TO.P,C1,1*%
%TO.N,+5V*%
X123190000Y-84455000D03*
%TO.P,C1,2*%
%TO.N,GND*%
X123190000Y-86005000D03*
%TD*%
D34*
%TO.P,U1,1,+3.3V*%
%TO.N,+3.3V*%
X161645000Y-97810000D03*
%TO.P,U1,2,EN/CHIP_PU*%
%TO.N,Net-(U1-EN{slash}CHIP_PU)*%
X161645000Y-96310000D03*
%TO.P,U1,3,GPIO4/ADC1_CH4*%
%TO.N,Ps1*%
X161645000Y-94810000D03*
%TO.P,U1,4,GPIO5/ADC2_CH0*%
X161645000Y-93310000D03*
%TO.P,U1,5,GPIO6*%
%TO.N,unconnected-(U1-GPIO6-Pad5)*%
X161645000Y-91810000D03*
%TO.P,U1,6,GPIO7*%
%TO.N,unconnected-(U1-GPIO7-Pad6)*%
X161645000Y-90310000D03*
%TO.P,U1,7,GPIO8*%
%TO.N,unconnected-(U1-GPIO8-Pad7)*%
X161645000Y-88810000D03*
%TO.P,U1,8,GPIO9*%
%TO.N,Net-(U1-GPIO9)*%
X161645000Y-87310000D03*
%TO.P,U1,9,GND*%
%TO.N,GND*%
X161645000Y-85810000D03*
%TO.P,U1,10,GPIO10*%
%TO.N,unconnected-(U1-GPIO10-Pad10)*%
X144145000Y-85810000D03*
%TO.P,U1,11,GPIO20/U0RXD*%
%TO.N,unconnected-(U1-GPIO20{slash}U0RXD-Pad11)*%
X144145000Y-87310000D03*
%TO.P,U1,12,GPIO21/U0TXD*%
%TO.N,unconnected-(U1-GPIO21{slash}U0TXD-Pad12)*%
X144145000Y-88810000D03*
%TO.P,U1,13,GPIO18/USB_D-*%
%TO.N,USB-*%
X144145000Y-90310000D03*
%TO.P,U1,14,GPIO19/USB_D+*%
%TO.N,USB+*%
X144145000Y-91810000D03*
%TO.P,U1,15,GPIO3/ADC1_CH3*%
%TO.N,Ps1*%
X144145000Y-93310000D03*
%TO.P,U1,16,GPIO2/ADC1_CH2*%
X144145000Y-94810000D03*
%TO.P,U1,17,GPIO1/ADC1_CH1/XTAL_32K_N*%
%TO.N,unconnected-(U1-GPIO1{slash}ADC1_CH1{slash}XTAL_32K_N-Pad17)*%
X144145000Y-96310000D03*
%TO.P,U1,18,GPIO0/ADC1_CH0/XTAL_32K_P*%
%TO.N,unconnected-(U1-GPIO0{slash}ADC1_CH0{slash}XTAL_32K_P-Pad18)*%
X144145000Y-97810000D03*
D35*
%TO.P,U1,19,GND*%
%TO.N,GND*%
X153035000Y-92160000D03*
X153035000Y-91060000D03*
X152485000Y-92710000D03*
X152485000Y-91610000D03*
X152485000Y-90510000D03*
X151935000Y-92160000D03*
D36*
X151935000Y-91610000D03*
D35*
X151935000Y-91060000D03*
X151385000Y-92710000D03*
X151385000Y-91610000D03*
X151385000Y-90510000D03*
X150835000Y-92160000D03*
X150835000Y-91060000D03*
%TD*%
D27*
%TO.P,D2,1,K*%
%TO.N,GND1*%
X103835000Y-100965000D03*
%TO.P,D2,2,A*%
%TO.N,Net-(D2-A)*%
X105410000Y-100965000D03*
%TD*%
D37*
%TO.P,Q1,1,G*%
%TO.N,Net-(Q1-G)*%
X156485000Y-116205000D03*
D38*
%TO.P,Q1,2,D*%
%TO.N,-1*%
X163210000Y-115970000D03*
X163210000Y-121520000D03*
D39*
X165635000Y-118745000D03*
D38*
X168060000Y-115970000D03*
X168060000Y-121520000D03*
D37*
%TO.P,Q1,3,S*%
%TO.N,GND1*%
X156485000Y-121285000D03*
%TD*%
D31*
%TO.P,U2,1,VI*%
%TO.N,+5V*%
X129360000Y-84335000D03*
D32*
%TO.P,U2,2,GND*%
%TO.N,GND*%
X133985000Y-85090000D03*
X133985000Y-88140000D03*
D33*
X135660000Y-86615000D03*
D32*
X137335000Y-85090000D03*
X137335000Y-88140000D03*
D31*
%TO.P,U2,3,VO*%
%TO.N,+3.3V*%
X129360000Y-88895000D03*
%TD*%
D26*
%TO.P,SW2,1,1*%
%TO.N,Net-(U1-GPIO9)*%
X184985000Y-88345000D03*
X197485000Y-88345000D03*
%TO.P,SW2,2,2*%
%TO.N,GND*%
X184985000Y-93345000D03*
X197485000Y-93345000D03*
%TD*%
D17*
%TO.P,R4,1*%
%TO.N,+12V*%
X108775000Y-100965000D03*
%TO.P,R4,2*%
%TO.N,Net-(D2-A)*%
X107125000Y-100965000D03*
%TD*%
D18*
%TO.P,C5,1*%
%TO.N,+24V*%
X123190000Y-94335000D03*
%TO.P,C5,2*%
%TO.N,GND1*%
X123190000Y-95885000D03*
%TD*%
%TO.P,C2,1*%
%TO.N,+5V*%
X121285000Y-84455000D03*
%TO.P,C2,2*%
%TO.N,GND*%
X121285000Y-86005000D03*
%TD*%
D40*
%TO.P,U4,1*%
%TO.N,Net-(R5-Pad2)*%
X141180000Y-114935000D03*
%TO.P,U4,3*%
%TO.N,GND*%
X141180000Y-117475000D03*
%TO.P,U4,4*%
%TO.N,GND1*%
X147480000Y-117475000D03*
%TO.P,U4,5*%
%TO.N,Net-(R6-Pad1)*%
X147480000Y-116205000D03*
%TO.P,U4,6*%
%TO.N,+12V*%
X147480000Y-114935000D03*
%TD*%
D16*
%TO.P,D5,1,K*%
%TO.N,+5V*%
X125730000Y-84500000D03*
%TO.P,D5,2,A*%
%TO.N,+3.3V*%
X125730000Y-88900000D03*
%TD*%
D41*
%TO.N,GND*%
X102616000Y-98552000D03*
%TO.N,*%
X152400000Y-99060000D03*
%TO.N,GND*%
X167640000Y-83820000D03*
X185420000Y-96520000D03*
X195580000Y-96520000D03*
X152400000Y-83820000D03*
X119380000Y-88900000D03*
X149860000Y-96520000D03*
X139700000Y-83820000D03*
X139065000Y-90805000D03*
X198120000Y-83820000D03*
X160020000Y-86360000D03*
X111760000Y-91440000D03*
X198120000Y-96520000D03*
X187960000Y-96520000D03*
X162560000Y-83820000D03*
X190500000Y-96520000D03*
X119380000Y-96520000D03*
X172720000Y-96520000D03*
X182880000Y-83820000D03*
X111760000Y-86360000D03*
X167640000Y-96520000D03*
X137160000Y-86360000D03*
X193040000Y-96520000D03*
X175260000Y-96520000D03*
X177800000Y-96520000D03*
X106680000Y-86360000D03*
X109220000Y-88900000D03*
X175260000Y-83820000D03*
X154940000Y-96520000D03*
X121920000Y-86360000D03*
X154940000Y-86360000D03*
X114300000Y-88900000D03*
X134620000Y-83820000D03*
X147320000Y-83820000D03*
X182880000Y-96520000D03*
X116840000Y-86360000D03*
X157480000Y-83820000D03*
X139065000Y-117475000D03*
X127000000Y-86360000D03*
X187960000Y-83820000D03*
X149860000Y-86360000D03*
X180340000Y-96520000D03*
X142240000Y-86360000D03*
X101600000Y-83820000D03*
X193040000Y-83820000D03*
X132080000Y-86360000D03*
X170180000Y-96520000D03*
X106680000Y-91440000D03*
%TO.N,+3.3V*%
X159385000Y-97790000D03*
X163195000Y-88900000D03*
X129360000Y-88895000D03*
X111760000Y-99060000D03*
X163195000Y-97810000D03*
%TO.N,+24V*%
X127635000Y-94660000D03*
X130175000Y-105855000D03*
%TO.N,GND1*%
X152400000Y-129540000D03*
X109220000Y-129540000D03*
X144780000Y-132080000D03*
X193040000Y-132080000D03*
X133350000Y-97790000D03*
X111760000Y-129540000D03*
X167640000Y-129540000D03*
X175260000Y-132080000D03*
X162560000Y-106680000D03*
X142240000Y-124460000D03*
X109220000Y-132080000D03*
X104140000Y-129540000D03*
X149860000Y-127000000D03*
X139700000Y-132080000D03*
X134620000Y-95250000D03*
X162560000Y-101600000D03*
X133350000Y-96520000D03*
X165100000Y-104140000D03*
X133350000Y-101715000D03*
X165100000Y-132080000D03*
X124460000Y-116840000D03*
X114300000Y-116840000D03*
X114300000Y-127000000D03*
X195580000Y-129540000D03*
X106680000Y-132080000D03*
X170180000Y-132080000D03*
X165100000Y-111760000D03*
X101600000Y-116840000D03*
X109220000Y-127000000D03*
X114300000Y-129540000D03*
X119380000Y-132080000D03*
X101600000Y-104140000D03*
X152400000Y-124460000D03*
X162560000Y-109220000D03*
X162560000Y-129540000D03*
X180340000Y-132080000D03*
X101600000Y-132080000D03*
X137160000Y-95250000D03*
X134620000Y-96520000D03*
X190500000Y-121920000D03*
X101600000Y-119380000D03*
X106680000Y-127000000D03*
X165100000Y-127000000D03*
X162560000Y-104140000D03*
X154940000Y-127000000D03*
X182880000Y-101600000D03*
X193040000Y-114300000D03*
X101600000Y-106680000D03*
X101600000Y-121920000D03*
X111760000Y-127000000D03*
X180340000Y-127000000D03*
X147320000Y-101600000D03*
X198120000Y-106680000D03*
X154940000Y-132080000D03*
X101600000Y-111760000D03*
X175260000Y-127000000D03*
X162560000Y-111760000D03*
X157480000Y-101600000D03*
X144780000Y-127000000D03*
X187960000Y-114300000D03*
X121640000Y-98070000D03*
X198120000Y-101600000D03*
X157480000Y-129540000D03*
X118110000Y-102235000D03*
X114300000Y-111760000D03*
X118110000Y-100215000D03*
X101600000Y-129540000D03*
X104140000Y-121920000D03*
X147320000Y-124460000D03*
X190500000Y-111760000D03*
X134620000Y-97790000D03*
X135890000Y-96520000D03*
X101600000Y-124460000D03*
X198120000Y-132080000D03*
X147320000Y-129540000D03*
X152400000Y-101600000D03*
X111760000Y-114300000D03*
X104140000Y-132080000D03*
X177800000Y-129540000D03*
X187960000Y-119380000D03*
X165100000Y-101600000D03*
X160020000Y-132080000D03*
X170180000Y-127000000D03*
X137160000Y-124460000D03*
X187960000Y-124460000D03*
X142240000Y-129540000D03*
X101600000Y-114300000D03*
X170180000Y-101600000D03*
X172720000Y-129540000D03*
X106680000Y-124460000D03*
X106680000Y-129540000D03*
X133350000Y-95250000D03*
X195580000Y-104140000D03*
X127000000Y-114300000D03*
X101600000Y-127000000D03*
X165100000Y-106680000D03*
X104140000Y-124460000D03*
X119380000Y-116840000D03*
X135890000Y-95250000D03*
X187960000Y-101600000D03*
X104140000Y-127000000D03*
X193040000Y-101600000D03*
X193040000Y-119380000D03*
X114300000Y-132080000D03*
X149860000Y-132080000D03*
X157480000Y-124460000D03*
X121920000Y-114300000D03*
X101600000Y-109220000D03*
X137160000Y-96520000D03*
X165100000Y-109220000D03*
X177800000Y-101600000D03*
X139700000Y-127000000D03*
X116840000Y-132080000D03*
X137160000Y-129540000D03*
X137160000Y-97790000D03*
X135890000Y-97790000D03*
%TO.N,+12V*%
X147505000Y-114300000D03*
X119380000Y-100965000D03*
X127635000Y-99055000D03*
%TO.N,Net-(R5-Pad2)*%
X141180000Y-113240000D03*
X141180000Y-97365000D03*
%TO.N,Ps1*%
X146050000Y-93980000D03*
X149225000Y-93980000D03*
%TD*%
D42*
%TO.N,+5V*%
X109240000Y-96322500D02*
X102672500Y-96322500D01*
X102672500Y-96322500D02*
X101790000Y-95440000D01*
D43*
X129240000Y-84455000D02*
X129360000Y-84335000D01*
D42*
X101790000Y-95440000D02*
X101790000Y-89460000D01*
X106795000Y-84455000D02*
X121285000Y-84455000D01*
X101790000Y-89460000D02*
X106795000Y-84455000D01*
D43*
X121285000Y-84455000D02*
X129240000Y-84455000D01*
%TO.N,GND*%
X127355000Y-86005000D02*
X131725000Y-86005000D01*
D42*
X107350000Y-94322500D02*
X104490000Y-91462500D01*
D43*
X122275000Y-86005000D02*
X126645000Y-86005000D01*
D42*
X141180000Y-117475000D02*
X139065000Y-117475000D01*
D43*
X126645000Y-86005000D02*
X127000000Y-86360000D01*
X121285000Y-86005000D02*
X121285000Y-87630000D01*
D42*
X109240000Y-94322500D02*
X107350000Y-94322500D01*
D43*
X121285000Y-87630000D02*
X121285000Y-89180000D01*
D42*
X139065000Y-90805000D02*
X139065000Y-89870000D01*
D44*
X104512500Y-91440000D02*
X106680000Y-91440000D01*
X109782500Y-89462500D02*
X111760000Y-91440000D01*
D43*
X114300000Y-88900000D02*
X114300000Y-89652500D01*
X121565000Y-86005000D02*
X121920000Y-86360000D01*
D44*
X106680000Y-89272500D02*
X106490000Y-89462500D01*
D43*
X114300000Y-89652500D02*
X114490000Y-89462500D01*
D45*
X168475000Y-93345000D02*
X197485000Y-93345000D01*
D44*
X104490000Y-91462500D02*
X104512500Y-91440000D01*
D43*
X116322500Y-87630000D02*
X115052500Y-88900000D01*
D44*
X113737500Y-89462500D02*
X114490000Y-89462500D01*
X116490000Y-91462500D02*
X114490000Y-89462500D01*
X109220000Y-88900000D02*
X109782500Y-89462500D01*
D43*
X121285000Y-86005000D02*
X121565000Y-86005000D01*
D44*
X106490000Y-89462500D02*
X109220000Y-88900000D01*
D43*
X131725000Y-86005000D02*
X132080000Y-86360000D01*
D42*
X139065000Y-89870000D02*
X137335000Y-88140000D01*
D43*
X121920000Y-86360000D02*
X122275000Y-86005000D01*
X135050000Y-86005000D02*
X135660000Y-86615000D01*
X132435000Y-86005000D02*
X135050000Y-86005000D01*
X115052500Y-88900000D02*
X114300000Y-88900000D01*
D44*
X111760000Y-91440000D02*
X113737500Y-89462500D01*
D43*
X127000000Y-86360000D02*
X127355000Y-86005000D01*
X132080000Y-86360000D02*
X132435000Y-86005000D01*
X121285000Y-89180000D02*
X121640000Y-89535000D01*
D44*
X106680000Y-91440000D02*
X106680000Y-89272500D01*
D43*
X121285000Y-87630000D02*
X116322500Y-87630000D01*
%TO.N,+3.3V*%
X123190000Y-89535000D02*
X128720000Y-89535000D01*
D42*
X161645000Y-97810000D02*
X163195000Y-97810000D01*
X163195000Y-88900000D02*
X164465000Y-88900000D01*
X164465000Y-97980000D02*
X163365000Y-97980000D01*
D43*
X128720000Y-89535000D02*
X129360000Y-88895000D01*
D42*
X163365000Y-97980000D02*
X163195000Y-97810000D01*
X161645000Y-97810000D02*
X159405000Y-97810000D01*
X159405000Y-97810000D02*
X159385000Y-97790000D01*
X111760000Y-99060000D02*
X108775000Y-99060000D01*
D44*
%TO.N,+24V*%
X110490000Y-123825000D02*
X107950000Y-121285000D01*
X130175000Y-105855000D02*
X155765000Y-105855000D01*
X114795127Y-123825000D02*
X110490000Y-123825000D01*
X156380000Y-109240000D02*
X129115000Y-109240000D01*
X115220127Y-123400000D02*
X114795127Y-123825000D01*
D43*
X121285000Y-94335000D02*
X125405000Y-94335000D01*
D44*
X155765000Y-105855000D02*
X156380000Y-105240000D01*
X117695000Y-123400000D02*
X125520000Y-123400000D01*
D43*
X127635000Y-94660000D02*
X129020000Y-94660000D01*
D44*
X125520000Y-123400000D02*
X127000000Y-121920000D01*
X107950000Y-109220000D02*
X110680000Y-106490000D01*
X129115000Y-109240000D02*
X126365000Y-106490000D01*
D43*
X129020000Y-94660000D02*
X129185000Y-94495000D01*
D44*
X121285000Y-106490000D02*
X126365000Y-106490000D01*
X110680000Y-106490000D02*
X121285000Y-106490000D01*
X107950000Y-121285000D02*
X107950000Y-109220000D01*
X117695000Y-123400000D02*
X115220127Y-123400000D01*
D43*
X125730000Y-94660000D02*
X127635000Y-94660000D01*
D44*
X126365000Y-106490000D02*
X127000000Y-105855000D01*
X127000000Y-105855000D02*
X130175000Y-105855000D01*
X117760000Y-106490000D02*
X121285000Y-106490000D01*
X156380000Y-105240000D02*
X156380000Y-109240000D01*
D43*
X125405000Y-94335000D02*
X125730000Y-94660000D01*
%TO.N,GND1*%
X135230000Y-96775000D02*
X135890000Y-96520000D01*
X104413070Y-121920000D02*
X106680000Y-124186930D01*
X133350000Y-96520000D02*
X133605000Y-96775000D01*
X109220000Y-126726930D02*
X109220000Y-127000000D01*
X133095000Y-96775000D02*
X133350000Y-96520000D01*
X121640000Y-97790000D02*
X121640000Y-96240000D01*
X104140000Y-121920000D02*
X104413070Y-121920000D01*
X121640000Y-98070000D02*
X121640000Y-97790000D01*
X106680000Y-124186930D02*
X106680000Y-124460000D01*
D45*
X157480000Y-126430000D02*
X157480000Y-124460000D01*
D44*
X134513196Y-121285000D02*
X133985000Y-120756804D01*
D43*
X110893070Y-128400000D02*
X117695000Y-128400000D01*
D44*
X133985000Y-120756804D02*
X133985000Y-129540000D01*
D43*
X133605000Y-96775000D02*
X134365000Y-96775000D01*
X121640000Y-96240000D02*
X121285000Y-95885000D01*
X104140000Y-121646930D02*
X104140000Y-121920000D01*
X134875000Y-96775000D02*
X135230000Y-96775000D01*
X104585001Y-102190000D02*
X103835000Y-101439999D01*
X103835000Y-100965000D02*
X103835000Y-121341930D01*
D44*
X156485000Y-121285000D02*
X134513196Y-121285000D01*
D43*
X121995000Y-95885000D02*
X121640000Y-96240000D01*
X134365000Y-96775000D02*
X134620000Y-96520000D01*
X121640000Y-98070000D02*
X121640000Y-99695000D01*
X122655000Y-96775000D02*
X133095000Y-96775000D01*
D44*
X133985000Y-129540000D02*
X132080000Y-129540000D01*
X122530000Y-113690000D02*
X126835000Y-113690000D01*
X127083196Y-113855000D02*
X127000000Y-113771804D01*
D43*
X135890000Y-96520000D02*
X135740000Y-96775000D01*
D45*
X157480000Y-124460000D02*
X157480000Y-122280000D01*
D44*
X117695000Y-128400000D02*
X125480000Y-128400000D01*
X127000000Y-113855000D02*
X127083196Y-113855000D01*
D43*
X123190000Y-95885000D02*
X121995000Y-95885000D01*
D45*
X157480000Y-122280000D02*
X156485000Y-121285000D01*
D44*
X126835000Y-113690000D02*
X127000000Y-113855000D01*
X121310000Y-113690000D02*
X121920000Y-114300000D01*
X127528196Y-114300000D02*
X133985000Y-120756804D01*
D43*
X103835000Y-121341930D02*
X104140000Y-121646930D01*
D44*
X117760000Y-113690000D02*
X121310000Y-113690000D01*
D43*
X118110000Y-102235000D02*
X118065000Y-102190000D01*
X147480000Y-117475000D02*
X148845000Y-117475000D01*
X106680000Y-124460000D02*
X106953070Y-124460000D01*
X118065000Y-102190000D02*
X104585001Y-102190000D01*
D44*
X132080000Y-129540000D02*
X131700000Y-129920000D01*
D43*
X121640000Y-96240000D02*
X122120000Y-96240000D01*
D44*
X131700000Y-129920000D02*
X127000000Y-129920000D01*
D43*
X103835000Y-101439999D02*
X103835000Y-100965000D01*
X122120000Y-96240000D02*
X122655000Y-96775000D01*
X121640000Y-97790000D02*
X122655000Y-96775000D01*
D44*
X127000000Y-113771804D02*
X127000000Y-114300000D01*
D43*
X109220000Y-127000000D02*
X109493070Y-127000000D01*
X135740000Y-96775000D02*
X135485000Y-96775000D01*
X134620000Y-96520000D02*
X134875000Y-96775000D01*
D44*
X121920000Y-114300000D02*
X122530000Y-113690000D01*
D43*
X148845000Y-117475000D02*
X149225000Y-117855000D01*
X109493070Y-127000000D02*
X110893070Y-128400000D01*
D44*
X127000000Y-114300000D02*
X127528196Y-114300000D01*
X125480000Y-128400000D02*
X127000000Y-129920000D01*
D43*
X106953070Y-124460000D02*
X109220000Y-126726930D01*
%TO.N,+12V*%
X125735000Y-99055000D02*
X125730000Y-99060000D01*
X125095000Y-99695000D02*
X125730000Y-99060000D01*
X147505000Y-113030000D02*
X147505000Y-114300000D01*
X147505000Y-114910000D02*
X147480000Y-114935000D01*
X147505000Y-114300000D02*
X147505000Y-114910000D01*
D42*
X119380000Y-100965000D02*
X108775000Y-100965000D01*
D43*
X127635000Y-99055000D02*
X125735000Y-99055000D01*
X123190000Y-99695000D02*
X125095000Y-99695000D01*
X129185000Y-99055000D02*
X127635000Y-99055000D01*
D42*
%TO.N,Net-(D1-A)*%
X105410000Y-99060000D02*
X107125000Y-99060000D01*
%TO.N,Net-(D2-A)*%
X105410000Y-100965000D02*
X107125000Y-100965000D01*
D44*
%TO.N,-1*%
X170815000Y-115970000D02*
X170815000Y-123455000D01*
X176530000Y-115970000D02*
X176530000Y-122595000D01*
X177800000Y-123865000D02*
X175260000Y-123865000D01*
X170815000Y-123455000D02*
X170405000Y-123865000D01*
X176530000Y-115970000D02*
X179705000Y-115970000D01*
X179705000Y-115970000D02*
X181845000Y-115970000D01*
X179705000Y-115970000D02*
X179705000Y-122595000D01*
X173355000Y-115970000D02*
X173355000Y-121960000D01*
X173355000Y-115970000D02*
X176530000Y-115970000D01*
X175260000Y-123865000D02*
X170405000Y-123865000D01*
X168060000Y-115970000D02*
X170815000Y-115970000D01*
X170815000Y-115970000D02*
X173355000Y-115970000D01*
X183515000Y-114300000D02*
X183515000Y-123665000D01*
D45*
X161880000Y-122850000D02*
X163210000Y-121520000D01*
D44*
X183515000Y-123665000D02*
X183715000Y-123865000D01*
X170405000Y-123865000D02*
X168060000Y-121520000D01*
X180975000Y-123865000D02*
X177800000Y-123865000D01*
X181845000Y-115970000D02*
X183515000Y-114300000D01*
X183715000Y-123865000D02*
X180975000Y-123865000D01*
D45*
X161880000Y-126430000D02*
X161880000Y-122850000D01*
D44*
X173355000Y-121960000D02*
X175260000Y-123865000D01*
X176530000Y-122595000D02*
X177800000Y-123865000D01*
X179705000Y-122595000D02*
X180975000Y-123865000D01*
D42*
%TO.N,USB-*%
X116007500Y-96322500D02*
X120330000Y-100645000D01*
X147320000Y-92235000D02*
X145395000Y-90310000D01*
X146800000Y-100645000D02*
X147320000Y-100125000D01*
X147320000Y-100125000D02*
X147320000Y-92235000D01*
X145395000Y-90310000D02*
X144145000Y-90310000D01*
X120330000Y-100645000D02*
X146800000Y-100645000D01*
X111740000Y-96322500D02*
X116007500Y-96322500D01*
%TO.N,USB+*%
X111740000Y-94322500D02*
X119861672Y-94322500D01*
X122374172Y-91810000D02*
X144145000Y-91810000D01*
X119861672Y-94322500D02*
X122374172Y-91810000D01*
D43*
%TO.N,Net-(Q1-G)*%
X152820000Y-116218974D02*
X156471026Y-116218974D01*
X156471026Y-116218974D02*
X156485000Y-116205000D01*
%TO.N,Net-(U1-EN{slash}CHIP_PU)*%
X161645000Y-96310000D02*
X164445000Y-96310000D01*
D45*
X168475000Y-88345000D02*
X180975000Y-88345000D01*
D43*
X164465000Y-92355000D02*
X168475000Y-88345000D01*
X164445000Y-96310000D02*
X164465000Y-96330000D01*
X164465000Y-96330000D02*
X164465000Y-92355000D01*
%TO.N,Net-(U1-GPIO9)*%
X161645000Y-87310000D02*
X164405000Y-87310000D01*
X164405000Y-87310000D02*
X164465000Y-87250000D01*
D45*
X184985000Y-88345000D02*
X197485000Y-88345000D01*
D43*
X165990000Y-85725000D02*
X182365000Y-85725000D01*
X164465000Y-87250000D02*
X165990000Y-85725000D01*
X182365000Y-85725000D02*
X184985000Y-88345000D01*
D42*
%TO.N,Net-(R5-Pad2)*%
X141180000Y-113240000D02*
X141180000Y-114935000D01*
X141180000Y-95925385D02*
X140145000Y-94890385D01*
X141180000Y-97365000D02*
X141180000Y-95925385D01*
%TO.N,Ps1*%
X141795000Y-94890385D02*
X144064615Y-94890385D01*
X146050000Y-93980000D02*
X144145000Y-93980000D01*
X161645000Y-93310000D02*
X161645000Y-93980000D01*
X161645000Y-93980000D02*
X149225000Y-93980000D01*
X144064615Y-94890385D02*
X144145000Y-94810000D01*
X144145000Y-93310000D02*
X144145000Y-93980000D01*
X161645000Y-93980000D02*
X161645000Y-94810000D01*
X144145000Y-93980000D02*
X144145000Y-94810000D01*
D43*
%TO.N,Net-(R6-Pad1)*%
X149225000Y-116205000D02*
X147480000Y-116205000D01*
X149238974Y-116218974D02*
X149225000Y-116205000D01*
X151170000Y-116218974D02*
X149238974Y-116218974D01*
D44*
%TO.N,+1*%
X170380000Y-109240000D02*
X181375000Y-109240000D01*
X196215000Y-113030000D02*
X190285000Y-107100000D01*
X181375000Y-109240000D02*
X183515000Y-107100000D01*
X170380000Y-105240000D02*
X170380000Y-109240000D01*
X183865000Y-128715000D02*
X190055000Y-128715000D01*
X190055000Y-128715000D02*
X196215000Y-122555000D01*
X170380000Y-105240000D02*
X181655000Y-105240000D01*
X190285000Y-107100000D02*
X183515000Y-107100000D01*
X181655000Y-105240000D02*
X183515000Y-107100000D01*
X196215000Y-122555000D02*
X196215000Y-113030000D01*
X183715000Y-128865000D02*
X183865000Y-128715000D01*
%TD*%
%TA.AperFunction,Conductor*%
%TO.N,+24V*%
G36*
X110418142Y-104159685D02*
G01*
X110425403Y-104164726D01*
X110468464Y-104196961D01*
X110517668Y-104233795D01*
X110517671Y-104233797D01*
X110652517Y-104284091D01*
X110652516Y-104284091D01*
X110659444Y-104284835D01*
X110712127Y-104290500D01*
X112807872Y-104290499D01*
X112867483Y-104284091D01*
X113002331Y-104233796D01*
X113094586Y-104164733D01*
X113160050Y-104140316D01*
X113168897Y-104140000D01*
X159261000Y-104140000D01*
X159328039Y-104159685D01*
X159373794Y-104212489D01*
X159385000Y-104264000D01*
X159385000Y-111636000D01*
X159365315Y-111703039D01*
X159312511Y-111748794D01*
X159261000Y-111760000D01*
X128934272Y-111760000D01*
X128878818Y-111746909D01*
X128868978Y-111741989D01*
X128838340Y-111719906D01*
X128838261Y-111719996D01*
X128837413Y-111719238D01*
X128836751Y-111718761D01*
X128835673Y-111717683D01*
X128663958Y-111580745D01*
X128594143Y-111525069D01*
X128332565Y-111360708D01*
X128332562Y-111360706D01*
X128189811Y-111291961D01*
X128177639Y-111285233D01*
X128167580Y-111278912D01*
X128167561Y-111278902D01*
X127889237Y-111144868D01*
X127889223Y-111144862D01*
X127813646Y-111118416D01*
X127813645Y-111118416D01*
X127597636Y-111042832D01*
X127597635Y-111042831D01*
X127597633Y-111042831D01*
X127378552Y-110992827D01*
X127350691Y-110982845D01*
X125095001Y-109855000D01*
X125095000Y-109855000D01*
X110490000Y-109855000D01*
X110490000Y-115904847D01*
X110470315Y-115971886D01*
X110440312Y-116004113D01*
X110402452Y-116032455D01*
X110316206Y-116147664D01*
X110316202Y-116147671D01*
X110265908Y-116282517D01*
X110259501Y-116342116D01*
X110259500Y-116342135D01*
X110259500Y-117337870D01*
X110259501Y-117337876D01*
X110265908Y-117397483D01*
X110316202Y-117532328D01*
X110316203Y-117532329D01*
X110316204Y-117532331D01*
X110402452Y-117647543D01*
X110402451Y-117647543D01*
X110402452Y-117647544D01*
X110402454Y-117647546D01*
X110440313Y-117675887D01*
X110482181Y-117731816D01*
X110490000Y-117775151D01*
X110490000Y-121285000D01*
X111835799Y-121285000D01*
X111902838Y-121304685D01*
X111919337Y-121317363D01*
X111968437Y-121362123D01*
X111968439Y-121362125D01*
X112157595Y-121479245D01*
X112157596Y-121479245D01*
X112157599Y-121479247D01*
X112365060Y-121559618D01*
X112583757Y-121600500D01*
X112583759Y-121600500D01*
X112806241Y-121600500D01*
X112806243Y-121600500D01*
X113024940Y-121559618D01*
X113232401Y-121479247D01*
X113421562Y-121362124D01*
X113466323Y-121321319D01*
X113470663Y-121317363D01*
X113533467Y-121286746D01*
X113554201Y-121285000D01*
X114935000Y-121285000D01*
X114935000Y-118869000D01*
X114954685Y-118801961D01*
X115007489Y-118756206D01*
X115059000Y-118745000D01*
X128032040Y-118745000D01*
X128099079Y-118764685D01*
X128119721Y-118781319D01*
X128233681Y-118895279D01*
X128267166Y-118956602D01*
X128270000Y-118982960D01*
X128270000Y-124971000D01*
X128250315Y-125038039D01*
X128197511Y-125083794D01*
X128146000Y-125095000D01*
X109271362Y-125095000D01*
X109204323Y-125075315D01*
X109183681Y-125058681D01*
X105446319Y-121321319D01*
X105412834Y-121259996D01*
X105410000Y-121233638D01*
X105410000Y-104264000D01*
X105429685Y-104196961D01*
X105482489Y-104151206D01*
X105534000Y-104140000D01*
X110351103Y-104140000D01*
X110418142Y-104159685D01*
G37*
%TD.AperFunction*%
%TD*%
%TA.AperFunction,Conductor*%
%TO.N,GND1*%
G36*
X125121182Y-110503091D02*
G01*
X128904999Y-112395000D01*
X128905000Y-112395000D01*
X132715000Y-112395000D01*
X140593560Y-112395000D01*
X140660599Y-112414685D01*
X140706354Y-112467489D01*
X140716298Y-112536647D01*
X140687273Y-112600203D01*
X140681241Y-112606681D01*
X140550184Y-112737737D01*
X140454211Y-112890476D01*
X140394631Y-113060745D01*
X140394630Y-113060750D01*
X140374435Y-113239996D01*
X140374435Y-113240003D01*
X140394630Y-113419249D01*
X140394631Y-113419254D01*
X140422542Y-113499017D01*
X140429500Y-113539972D01*
X140429500Y-113970858D01*
X140409815Y-114037897D01*
X140357011Y-114083652D01*
X140348847Y-114087034D01*
X140337669Y-114091204D01*
X140337664Y-114091206D01*
X140222455Y-114177452D01*
X140222452Y-114177455D01*
X140136206Y-114292664D01*
X140136202Y-114292671D01*
X140085908Y-114427517D01*
X140079501Y-114487116D01*
X140079501Y-114487123D01*
X140079500Y-114487135D01*
X140079500Y-115382870D01*
X140079501Y-115382876D01*
X140085908Y-115442483D01*
X140136202Y-115577328D01*
X140136206Y-115577335D01*
X140222452Y-115692544D01*
X140222455Y-115692547D01*
X140337664Y-115778793D01*
X140337671Y-115778797D01*
X140472517Y-115829091D01*
X140472516Y-115829091D01*
X140479444Y-115829835D01*
X140532127Y-115835500D01*
X141827872Y-115835499D01*
X141887483Y-115829091D01*
X142022331Y-115778796D01*
X142137546Y-115692546D01*
X142223796Y-115577331D01*
X142274091Y-115442483D01*
X142280500Y-115382873D01*
X142280499Y-114487128D01*
X142274091Y-114427517D01*
X142223796Y-114292669D01*
X142223795Y-114292668D01*
X142223793Y-114292664D01*
X142137547Y-114177455D01*
X142137544Y-114177452D01*
X142022335Y-114091206D01*
X142022332Y-114091205D01*
X142022331Y-114091204D01*
X142011161Y-114087038D01*
X141955231Y-114045166D01*
X141930816Y-113979701D01*
X141930500Y-113970858D01*
X141930500Y-113539972D01*
X141937458Y-113499017D01*
X141962411Y-113427706D01*
X141965368Y-113419255D01*
X141965369Y-113419249D01*
X141985565Y-113240003D01*
X141985565Y-113239996D01*
X141965369Y-113060750D01*
X141965368Y-113060745D01*
X141905788Y-112890476D01*
X141861307Y-112819685D01*
X141809816Y-112737738D01*
X141682262Y-112610184D01*
X141678759Y-112606681D01*
X141645274Y-112545358D01*
X141650258Y-112475666D01*
X141692130Y-112419733D01*
X141757594Y-112395316D01*
X141766440Y-112395000D01*
X146471562Y-112395000D01*
X146538601Y-112414685D01*
X146584356Y-112467489D01*
X146594300Y-112536647D01*
X146589269Y-112557997D01*
X146585774Y-112568547D01*
X146564651Y-112632290D01*
X146564650Y-112632296D01*
X146559243Y-112685214D01*
X146550450Y-112720051D01*
X146542950Y-112738161D01*
X146542948Y-112738167D01*
X146504500Y-112931456D01*
X146504500Y-114160165D01*
X146484815Y-114227204D01*
X146479767Y-114234476D01*
X146436204Y-114292668D01*
X146436202Y-114292671D01*
X146385908Y-114427517D01*
X146379501Y-114487116D01*
X146379501Y-114487123D01*
X146379500Y-114487135D01*
X146379500Y-115382870D01*
X146379501Y-115382876D01*
X146385908Y-115442482D01*
X146417307Y-115526666D01*
X146422291Y-115596358D01*
X146417307Y-115613331D01*
X146385909Y-115697514D01*
X146385908Y-115697516D01*
X146379501Y-115757116D01*
X146379500Y-115757135D01*
X146379500Y-116652870D01*
X146379501Y-116652876D01*
X146385908Y-116712483D01*
X146436202Y-116847328D01*
X146436206Y-116847335D01*
X146522452Y-116962544D01*
X146522455Y-116962547D01*
X146637664Y-117048793D01*
X146637671Y-117048797D01*
X146682618Y-117065561D01*
X146772517Y-117099091D01*
X146832127Y-117105500D01*
X147014900Y-117105499D01*
X147062353Y-117114937D01*
X147188165Y-117167051D01*
X147188169Y-117167051D01*
X147188170Y-117167052D01*
X147381456Y-117205500D01*
X147381459Y-117205500D01*
X149057970Y-117205500D01*
X149082162Y-117207883D01*
X149140431Y-117219474D01*
X149140433Y-117219474D01*
X151268543Y-117219474D01*
X151344551Y-117204354D01*
X151382243Y-117196856D01*
X151406434Y-117194474D01*
X151426613Y-117194474D01*
X151426616Y-117194474D01*
X151497196Y-117188060D01*
X151659606Y-117137452D01*
X151805185Y-117049446D01*
X151827508Y-117027123D01*
X151907319Y-116947313D01*
X151968642Y-116913828D01*
X152038334Y-116918812D01*
X152082681Y-116947313D01*
X152184811Y-117049443D01*
X152184813Y-117049444D01*
X152184815Y-117049446D01*
X152330394Y-117137452D01*
X152492804Y-117188060D01*
X152563384Y-117194474D01*
X152583566Y-117194474D01*
X152607756Y-117196856D01*
X152636006Y-117202476D01*
X152721456Y-117219474D01*
X152721459Y-117219474D01*
X154185164Y-117219474D01*
X154224167Y-117225768D01*
X154281131Y-117244643D01*
X154282203Y-117244999D01*
X154384991Y-117255500D01*
X158585008Y-117255499D01*
X158687797Y-117244999D01*
X158854334Y-117189814D01*
X159003656Y-117097712D01*
X159127712Y-116973656D01*
X159219814Y-116824334D01*
X159274999Y-116657797D01*
X159285500Y-116555009D01*
X159285499Y-115854992D01*
X159274999Y-115752203D01*
X159219814Y-115585666D01*
X159127712Y-115436344D01*
X159003656Y-115312288D01*
X158854334Y-115220186D01*
X158687797Y-115165001D01*
X158687795Y-115165000D01*
X158585010Y-115154500D01*
X154384998Y-115154500D01*
X154384981Y-115154501D01*
X154282203Y-115165000D01*
X154282200Y-115165001D01*
X154139826Y-115212180D01*
X154100822Y-115218474D01*
X152721457Y-115218474D01*
X152645448Y-115233593D01*
X152607756Y-115241091D01*
X152583566Y-115243474D01*
X152563384Y-115243474D01*
X152544145Y-115245222D01*
X152492807Y-115249887D01*
X152330393Y-115300496D01*
X152184811Y-115388504D01*
X152184810Y-115388505D01*
X152082681Y-115490635D01*
X152021358Y-115524120D01*
X151951666Y-115519136D01*
X151907319Y-115490635D01*
X151805188Y-115388504D01*
X151795878Y-115382876D01*
X151659606Y-115300496D01*
X151497196Y-115249888D01*
X151497194Y-115249887D01*
X151497192Y-115249887D01*
X151447778Y-115245397D01*
X151426616Y-115243474D01*
X151426613Y-115243474D01*
X151406434Y-115243474D01*
X151382243Y-115241091D01*
X151344551Y-115233593D01*
X151268543Y-115218474D01*
X151268541Y-115218474D01*
X149406004Y-115218474D01*
X149381812Y-115216091D01*
X149323543Y-115204500D01*
X149323541Y-115204500D01*
X148704500Y-115204500D01*
X148637461Y-115184815D01*
X148591706Y-115132011D01*
X148580500Y-115080500D01*
X148580499Y-114487129D01*
X148580498Y-114487123D01*
X148580497Y-114487116D01*
X148574091Y-114427517D01*
X148523796Y-114292669D01*
X148523793Y-114292666D01*
X148520667Y-114286939D01*
X148505500Y-114227513D01*
X148505500Y-112931456D01*
X148467052Y-112738170D01*
X148467051Y-112738167D01*
X148467051Y-112738165D01*
X148459549Y-112720055D01*
X148450754Y-112685206D01*
X148445349Y-112632292D01*
X148438023Y-112610184D01*
X148420733Y-112558003D01*
X148418331Y-112488175D01*
X148454063Y-112428133D01*
X148516584Y-112396941D01*
X148538439Y-112395000D01*
X181239396Y-112395000D01*
X181120798Y-112591185D01*
X181120795Y-112591190D01*
X181028835Y-112819680D01*
X181014434Y-112883624D01*
X180981145Y-112944059D01*
X180742023Y-113183182D01*
X180680703Y-113216666D01*
X180654344Y-113219500D01*
X170804378Y-113219500D01*
X170737339Y-113199815D01*
X170698839Y-113160597D01*
X170677712Y-113126344D01*
X170553656Y-113002288D01*
X170438823Y-112931459D01*
X170404336Y-112910187D01*
X170404331Y-112910185D01*
X170344853Y-112890476D01*
X170237797Y-112855001D01*
X170237795Y-112855000D01*
X170135016Y-112844500D01*
X170135009Y-112844500D01*
X170135007Y-112844500D01*
X165285014Y-112844500D01*
X165285009Y-112844500D01*
X161134998Y-112844500D01*
X161134981Y-112844501D01*
X161032203Y-112855000D01*
X161032200Y-112855001D01*
X160865668Y-112910185D01*
X160865663Y-112910187D01*
X160716342Y-113002289D01*
X160592289Y-113126342D01*
X160500187Y-113275663D01*
X160500185Y-113275668D01*
X160449806Y-113427704D01*
X160449805Y-113427706D01*
X160445000Y-113442202D01*
X160434500Y-113544983D01*
X160434500Y-121783354D01*
X160414815Y-121850393D01*
X160408878Y-121858838D01*
X160404727Y-121864247D01*
X160404719Y-121864259D01*
X160309418Y-122029327D01*
X160288683Y-122065242D01*
X160288677Y-122065254D01*
X160199863Y-122279669D01*
X160139792Y-122503854D01*
X160109499Y-122733947D01*
X160109499Y-122970431D01*
X160109500Y-122970460D01*
X160109500Y-126546052D01*
X160139794Y-126776148D01*
X160199862Y-127000328D01*
X160288677Y-127214745D01*
X160288685Y-127214762D01*
X160404720Y-127415743D01*
X160404721Y-127415745D01*
X160546009Y-127599875D01*
X160546015Y-127599882D01*
X160710117Y-127763984D01*
X160710124Y-127763990D01*
X160894254Y-127905278D01*
X160894256Y-127905279D01*
X161095237Y-128021314D01*
X161095240Y-128021315D01*
X161095248Y-128021320D01*
X161309670Y-128110137D01*
X161533851Y-128170206D01*
X161763955Y-128200500D01*
X161763962Y-128200500D01*
X161996038Y-128200500D01*
X161996045Y-128200500D01*
X162226149Y-128170206D01*
X162450330Y-128110137D01*
X162664752Y-128021320D01*
X162865748Y-127905276D01*
X163049877Y-127763989D01*
X163213989Y-127599877D01*
X163355276Y-127415748D01*
X163471320Y-127214752D01*
X163560137Y-127000330D01*
X163620206Y-126776149D01*
X163650500Y-126546045D01*
X163650500Y-124769499D01*
X163670185Y-124702460D01*
X163722989Y-124656705D01*
X163774500Y-124645499D01*
X165984985Y-124645499D01*
X165984991Y-124645500D01*
X167244343Y-124645499D01*
X167311382Y-124665184D01*
X167332023Y-124681817D01*
X168569326Y-125919121D01*
X168810857Y-126111735D01*
X169072435Y-126276096D01*
X169350770Y-126410135D01*
X169569767Y-126486765D01*
X169642352Y-126512164D01*
X169642364Y-126512168D01*
X169943548Y-126580911D01*
X169943554Y-126580911D01*
X169943562Y-126580913D01*
X170148206Y-126603970D01*
X170250529Y-126615499D01*
X170250532Y-126615500D01*
X170250535Y-126615500D01*
X170559465Y-126615500D01*
X175105535Y-126615500D01*
X175414465Y-126615500D01*
X177645535Y-126615500D01*
X177954464Y-126615500D01*
X180820535Y-126615500D01*
X181129464Y-126615500D01*
X181775344Y-126615500D01*
X181842383Y-126635185D01*
X181888138Y-126687989D01*
X181898082Y-126757147D01*
X181869057Y-126820703D01*
X181863025Y-126827181D01*
X181660879Y-127029326D01*
X181468264Y-127270858D01*
X181303902Y-127532437D01*
X181169865Y-127810768D01*
X181067832Y-128102366D01*
X180999089Y-128403548D01*
X180999086Y-128403562D01*
X180964500Y-128710528D01*
X180964500Y-129019471D01*
X180999086Y-129326437D01*
X180999089Y-129326451D01*
X181067832Y-129627633D01*
X181169865Y-129919231D01*
X181303902Y-130197562D01*
X181303904Y-130197565D01*
X181468265Y-130459143D01*
X181660880Y-130700674D01*
X181879326Y-130919120D01*
X182120857Y-131111735D01*
X182382435Y-131276096D01*
X182660770Y-131410135D01*
X182952364Y-131512167D01*
X183253548Y-131580911D01*
X183253557Y-131580912D01*
X183253562Y-131580913D01*
X183458206Y-131603970D01*
X183560529Y-131615499D01*
X183560532Y-131615500D01*
X183560535Y-131615500D01*
X183869468Y-131615500D01*
X183869469Y-131615499D01*
X184026356Y-131597822D01*
X184176437Y-131580913D01*
X184176440Y-131580912D01*
X184176452Y-131580911D01*
X184477636Y-131512167D01*
X184591119Y-131472458D01*
X184632073Y-131465500D01*
X187416318Y-131465500D01*
X187483357Y-131485185D01*
X187529112Y-131537989D01*
X187539056Y-131607147D01*
X187535584Y-131623435D01*
X187529884Y-131643464D01*
X187509357Y-131864999D01*
X187509357Y-131865000D01*
X187529884Y-132086535D01*
X187529885Y-132086537D01*
X187590769Y-132300523D01*
X187590775Y-132300538D01*
X187689938Y-132499683D01*
X187689943Y-132499691D01*
X187804035Y-132650773D01*
X187828727Y-132716135D01*
X187814162Y-132784469D01*
X187764964Y-132834082D01*
X187705081Y-132849500D01*
X101589500Y-132849500D01*
X101522461Y-132829815D01*
X101476706Y-132777011D01*
X101465500Y-132725500D01*
X101465500Y-131399999D01*
X111489357Y-131399999D01*
X111489357Y-131400000D01*
X111509884Y-131621535D01*
X111509885Y-131621537D01*
X111570769Y-131835523D01*
X111570775Y-131835538D01*
X111669938Y-132034683D01*
X111669943Y-132034691D01*
X111804020Y-132212238D01*
X111968437Y-132362123D01*
X111968439Y-132362125D01*
X112157595Y-132479245D01*
X112157596Y-132479245D01*
X112157599Y-132479247D01*
X112365060Y-132559618D01*
X112583757Y-132600500D01*
X112583759Y-132600500D01*
X112806241Y-132600500D01*
X112806243Y-132600500D01*
X113024940Y-132559618D01*
X113232401Y-132479247D01*
X113421562Y-132362124D01*
X113585981Y-132212236D01*
X113720058Y-132034689D01*
X113819229Y-131835528D01*
X113880115Y-131621536D01*
X113900643Y-131400000D01*
X113880115Y-131178464D01*
X113819229Y-130964472D01*
X113819224Y-130964461D01*
X113720061Y-130765316D01*
X113720056Y-130765308D01*
X113585979Y-130587761D01*
X113421562Y-130437876D01*
X113421560Y-130437874D01*
X113232404Y-130320754D01*
X113232398Y-130320752D01*
X113024940Y-130240382D01*
X112806243Y-130199500D01*
X112583757Y-130199500D01*
X112365060Y-130240382D01*
X112233864Y-130291207D01*
X112157601Y-130320752D01*
X112157595Y-130320754D01*
X111968439Y-130437874D01*
X111968437Y-130437876D01*
X111804020Y-130587761D01*
X111669943Y-130765308D01*
X111669938Y-130765316D01*
X111570775Y-130964461D01*
X111570769Y-130964476D01*
X111509885Y-131178462D01*
X111509884Y-131178464D01*
X111489357Y-131399999D01*
X101465500Y-131399999D01*
X101465500Y-126365000D01*
X109220000Y-126365000D01*
X109400029Y-126365000D01*
X109440984Y-126371959D01*
X109727352Y-126472164D01*
X109727364Y-126472168D01*
X109972578Y-126528136D01*
X110028547Y-126540911D01*
X110047501Y-126543046D01*
X110059631Y-126544413D01*
X110059633Y-126544413D01*
X110335531Y-126575499D01*
X110335532Y-126575500D01*
X110335535Y-126575500D01*
X114949595Y-126575500D01*
X114949596Y-126575499D01*
X115106483Y-126557822D01*
X115256564Y-126540913D01*
X115256569Y-126540912D01*
X115256579Y-126540911D01*
X115557763Y-126472168D01*
X115773772Y-126396583D01*
X115821169Y-126379998D01*
X115844148Y-126371958D01*
X115885101Y-126365000D01*
X129540000Y-126365000D01*
X129540000Y-123009972D01*
X129546957Y-122969022D01*
X129647167Y-122682636D01*
X129715911Y-122381452D01*
X129750500Y-122074465D01*
X129750500Y-121765535D01*
X129720547Y-121499691D01*
X129715913Y-121458562D01*
X129715912Y-121458557D01*
X129715911Y-121458548D01*
X129647167Y-121157364D01*
X129546958Y-120870979D01*
X129540000Y-120830025D01*
X129540000Y-118110000D01*
X111249000Y-118110000D01*
X111181961Y-118090315D01*
X111136206Y-118037511D01*
X111125000Y-117986000D01*
X111125000Y-117914499D01*
X111144685Y-117847460D01*
X111197489Y-117801705D01*
X111248996Y-117790499D01*
X112807872Y-117790499D01*
X112867483Y-117784091D01*
X113002331Y-117733796D01*
X113117546Y-117647546D01*
X113203796Y-117532331D01*
X113225181Y-117474996D01*
X138259435Y-117474996D01*
X138259435Y-117475003D01*
X138279630Y-117654249D01*
X138279631Y-117654254D01*
X138339211Y-117824523D01*
X138416724Y-117947883D01*
X138435184Y-117977262D01*
X138562738Y-118104816D01*
X138715478Y-118200789D01*
X138877680Y-118257546D01*
X138885745Y-118260368D01*
X138885750Y-118260369D01*
X139064996Y-118280565D01*
X139065000Y-118280565D01*
X139065004Y-118280565D01*
X139244249Y-118260369D01*
X139244252Y-118260368D01*
X139244255Y-118260368D01*
X139324017Y-118232457D01*
X139364972Y-118225500D01*
X140171769Y-118225500D01*
X140238808Y-118245185D01*
X140246080Y-118250233D01*
X140337668Y-118318795D01*
X140337671Y-118318797D01*
X140472517Y-118369091D01*
X140472516Y-118369091D01*
X140479444Y-118369835D01*
X140532127Y-118375500D01*
X141827872Y-118375499D01*
X141887483Y-118369091D01*
X142022331Y-118318796D01*
X142137546Y-118232546D01*
X142223796Y-118117331D01*
X142274091Y-117982483D01*
X142280500Y-117922873D01*
X142280499Y-117027128D01*
X142274091Y-116967517D01*
X142272237Y-116962547D01*
X142223797Y-116832671D01*
X142223793Y-116832664D01*
X142137547Y-116717455D01*
X142137544Y-116717452D01*
X142022335Y-116631206D01*
X142022328Y-116631202D01*
X141887482Y-116580908D01*
X141887483Y-116580908D01*
X141827883Y-116574501D01*
X141827881Y-116574500D01*
X141827873Y-116574500D01*
X141827864Y-116574500D01*
X140532129Y-116574500D01*
X140532123Y-116574501D01*
X140472516Y-116580908D01*
X140337671Y-116631202D01*
X140337668Y-116631204D01*
X140246080Y-116699767D01*
X140180615Y-116724184D01*
X140171769Y-116724500D01*
X139364972Y-116724500D01*
X139324017Y-116717542D01*
X139323768Y-116717455D01*
X139316892Y-116715048D01*
X139244254Y-116689631D01*
X139244249Y-116689630D01*
X139065004Y-116669435D01*
X139064996Y-116669435D01*
X138885750Y-116689630D01*
X138885745Y-116689631D01*
X138715476Y-116749211D01*
X138562737Y-116845184D01*
X138435184Y-116972737D01*
X138339211Y-117125476D01*
X138279631Y-117295745D01*
X138279630Y-117295750D01*
X138259435Y-117474996D01*
X113225181Y-117474996D01*
X113254091Y-117397483D01*
X113260500Y-117337873D01*
X113260499Y-116342128D01*
X113254091Y-116282517D01*
X113203796Y-116147669D01*
X113203795Y-116147668D01*
X113203793Y-116147664D01*
X113117547Y-116032455D01*
X113117544Y-116032452D01*
X113002335Y-115946206D01*
X113002328Y-115946202D01*
X112867482Y-115895908D01*
X112867483Y-115895908D01*
X112807883Y-115889501D01*
X112807881Y-115889500D01*
X112807873Y-115889500D01*
X112807865Y-115889500D01*
X111249000Y-115889500D01*
X111181961Y-115869815D01*
X111136206Y-115817011D01*
X111125000Y-115765500D01*
X111125000Y-110614000D01*
X111144685Y-110546961D01*
X111197489Y-110501206D01*
X111249000Y-110490000D01*
X125065728Y-110490000D01*
X125121182Y-110503091D01*
G37*
%TD.AperFunction*%
%TA.AperFunction,Conductor*%
G36*
X199524500Y-132725500D02*
G01*
X199504815Y-132792539D01*
X199452011Y-132838294D01*
X199400500Y-132849500D01*
X189724919Y-132849500D01*
X189657880Y-132829815D01*
X189612125Y-132777011D01*
X189602181Y-132707853D01*
X189625965Y-132650773D01*
X189694802Y-132559618D01*
X189740058Y-132499689D01*
X189839229Y-132300528D01*
X189900115Y-132086536D01*
X189920643Y-131865000D01*
X189900115Y-131643464D01*
X189894416Y-131623434D01*
X189895002Y-131553567D01*
X189933269Y-131495109D01*
X189997066Y-131466618D01*
X190013682Y-131465500D01*
X190209468Y-131465500D01*
X190209468Y-131465499D01*
X190516452Y-131430911D01*
X190522757Y-131429472D01*
X190817636Y-131362168D01*
X191033645Y-131286583D01*
X191085352Y-131268489D01*
X191109228Y-131260136D01*
X191109228Y-131260135D01*
X191109230Y-131260135D01*
X191387565Y-131126096D01*
X191649143Y-130961735D01*
X191890674Y-130769120D01*
X198269121Y-124390674D01*
X198461735Y-124149143D01*
X198626096Y-123887565D01*
X198689611Y-123755674D01*
X198760130Y-123609240D01*
X198760131Y-123609237D01*
X198760135Y-123609229D01*
X198862168Y-123317636D01*
X198930911Y-123016452D01*
X198936097Y-122970431D01*
X198954732Y-122805031D01*
X198965500Y-122709464D01*
X198965500Y-122400535D01*
X198965500Y-112875535D01*
X198933272Y-112589500D01*
X198930911Y-112568547D01*
X198910966Y-112481162D01*
X198891300Y-112395000D01*
X199524500Y-112395000D01*
X199524500Y-132725500D01*
G37*
%TD.AperFunction*%
%TA.AperFunction,Conductor*%
G36*
X193428181Y-114132975D02*
G01*
X193461666Y-114194298D01*
X193464500Y-114220656D01*
X193464500Y-121364343D01*
X193444815Y-121431382D01*
X193428181Y-121452024D01*
X188952025Y-125928181D01*
X188890702Y-125961666D01*
X188864344Y-125964500D01*
X186047418Y-125964500D01*
X185980379Y-125944815D01*
X185934624Y-125892011D01*
X185924680Y-125822853D01*
X185931236Y-125797167D01*
X185938348Y-125778097D01*
X185959091Y-125722483D01*
X185965500Y-125662873D01*
X185965499Y-125488874D01*
X185984505Y-125422902D01*
X186126096Y-125197566D01*
X186260135Y-124919230D01*
X186362168Y-124627636D01*
X186430911Y-124326452D01*
X186465500Y-124019465D01*
X186465500Y-123710536D01*
X186430911Y-123403548D01*
X186362168Y-123102364D01*
X186316003Y-122970431D01*
X186272458Y-122845985D01*
X186265500Y-122805031D01*
X186265500Y-120864999D01*
X187509357Y-120864999D01*
X187509357Y-120865000D01*
X187529884Y-121086535D01*
X187529885Y-121086537D01*
X187590769Y-121300523D01*
X187590775Y-121300538D01*
X187689938Y-121499683D01*
X187689943Y-121499691D01*
X187824020Y-121677238D01*
X187988437Y-121827123D01*
X187988439Y-121827125D01*
X188177595Y-121944245D01*
X188177596Y-121944245D01*
X188177599Y-121944247D01*
X188385060Y-122024618D01*
X188603757Y-122065500D01*
X188603759Y-122065500D01*
X188826241Y-122065500D01*
X188826243Y-122065500D01*
X189044940Y-122024618D01*
X189252401Y-121944247D01*
X189441562Y-121827124D01*
X189605981Y-121677236D01*
X189740058Y-121499689D01*
X189839229Y-121300528D01*
X189900115Y-121086536D01*
X189920643Y-120865000D01*
X189900115Y-120643464D01*
X189839229Y-120429472D01*
X189787635Y-120325857D01*
X189740061Y-120230316D01*
X189740056Y-120230308D01*
X189605979Y-120052761D01*
X189441562Y-119902876D01*
X189441560Y-119902874D01*
X189252404Y-119785754D01*
X189252398Y-119785752D01*
X189044940Y-119705382D01*
X188826243Y-119664500D01*
X188603757Y-119664500D01*
X188385060Y-119705382D01*
X188253864Y-119756207D01*
X188177601Y-119785752D01*
X188177595Y-119785754D01*
X187988439Y-119902874D01*
X187988437Y-119902876D01*
X187824020Y-120052761D01*
X187689943Y-120230308D01*
X187689938Y-120230316D01*
X187590775Y-120429461D01*
X187590769Y-120429476D01*
X187529885Y-120643462D01*
X187529884Y-120643464D01*
X187509357Y-120864999D01*
X186265500Y-120864999D01*
X186265500Y-116952135D01*
X188014500Y-116952135D01*
X188014500Y-117947870D01*
X188014501Y-117947876D01*
X188020908Y-118007483D01*
X188071202Y-118142328D01*
X188071206Y-118142335D01*
X188157452Y-118257544D01*
X188157455Y-118257547D01*
X188272664Y-118343793D01*
X188272671Y-118343797D01*
X188407517Y-118394091D01*
X188407516Y-118394091D01*
X188414444Y-118394835D01*
X188467127Y-118400500D01*
X190562872Y-118400499D01*
X190622483Y-118394091D01*
X190757331Y-118343796D01*
X190872546Y-118257546D01*
X190958796Y-118142331D01*
X191009091Y-118007483D01*
X191015500Y-117947873D01*
X191015499Y-116952128D01*
X191009091Y-116892517D01*
X190992239Y-116847335D01*
X190958797Y-116757671D01*
X190958793Y-116757664D01*
X190872547Y-116642455D01*
X190872544Y-116642452D01*
X190757335Y-116556206D01*
X190757328Y-116556202D01*
X190622482Y-116505908D01*
X190622483Y-116505908D01*
X190562883Y-116499501D01*
X190562881Y-116499500D01*
X190562873Y-116499500D01*
X190562864Y-116499500D01*
X188467129Y-116499500D01*
X188467123Y-116499501D01*
X188407516Y-116505908D01*
X188272671Y-116556202D01*
X188272664Y-116556206D01*
X188157455Y-116642452D01*
X188157452Y-116642455D01*
X188071206Y-116757664D01*
X188071202Y-116757671D01*
X188020908Y-116892517D01*
X188014501Y-116952116D01*
X188014501Y-116952123D01*
X188014500Y-116952135D01*
X186265500Y-116952135D01*
X186265500Y-114145532D01*
X186265499Y-114145528D01*
X186230913Y-113838562D01*
X186230910Y-113838544D01*
X186162169Y-113537369D01*
X186162168Y-113537364D01*
X186154214Y-113514632D01*
X186148750Y-113499017D01*
X186072457Y-113280982D01*
X186065499Y-113240028D01*
X186065499Y-113204707D01*
X186065499Y-113204706D01*
X186055281Y-113059966D01*
X186001165Y-112819683D01*
X185909205Y-112591191D01*
X185790603Y-112395000D01*
X191690206Y-112395000D01*
X193428181Y-114132975D01*
G37*
%TD.AperFunction*%
%TD*%
%TA.AperFunction,Conductor*%
%TO.N,GND1*%
G36*
X104415039Y-100984685D02*
G01*
X104460794Y-101037489D01*
X104472000Y-101089000D01*
X104472000Y-101269181D01*
X104482063Y-101367683D01*
X104534950Y-101527284D01*
X104534955Y-101527295D01*
X104623216Y-101670387D01*
X104623219Y-101670391D01*
X104742108Y-101789280D01*
X104742112Y-101789283D01*
X104885204Y-101877544D01*
X104885207Y-101877545D01*
X104885213Y-101877549D01*
X105044815Y-101930436D01*
X105143326Y-101940500D01*
X105143331Y-101940500D01*
X105676669Y-101940500D01*
X105676674Y-101940500D01*
X105775185Y-101930436D01*
X105934787Y-101877549D01*
X106077891Y-101789281D01*
X106115353Y-101751819D01*
X106176676Y-101718334D01*
X106203034Y-101715500D01*
X106358481Y-101715500D01*
X106425520Y-101735185D01*
X106446163Y-101751820D01*
X106489811Y-101795468D01*
X106489811Y-101795469D01*
X106489813Y-101795470D01*
X106489815Y-101795472D01*
X106635394Y-101883478D01*
X106797804Y-101934086D01*
X106868384Y-101940500D01*
X106868387Y-101940500D01*
X107381613Y-101940500D01*
X107381616Y-101940500D01*
X107452196Y-101934086D01*
X107614606Y-101883478D01*
X107760185Y-101795472D01*
X107805289Y-101750368D01*
X107862319Y-101693339D01*
X107923642Y-101659854D01*
X107993334Y-101664838D01*
X108037681Y-101693339D01*
X108139811Y-101795469D01*
X108139813Y-101795470D01*
X108139815Y-101795472D01*
X108285394Y-101883478D01*
X108447804Y-101934086D01*
X108518384Y-101940500D01*
X108518387Y-101940500D01*
X109031613Y-101940500D01*
X109031616Y-101940500D01*
X109102196Y-101934086D01*
X109264606Y-101883478D01*
X109410185Y-101795472D01*
X109453837Y-101751820D01*
X109515160Y-101718334D01*
X109541519Y-101715500D01*
X119080028Y-101715500D01*
X119120982Y-101722457D01*
X119200745Y-101750368D01*
X119200750Y-101750369D01*
X119379996Y-101770565D01*
X119380000Y-101770565D01*
X119380004Y-101770565D01*
X119559249Y-101750369D01*
X119559252Y-101750368D01*
X119559255Y-101750368D01*
X119729522Y-101690789D01*
X119882262Y-101594816D01*
X120009816Y-101467262D01*
X120031825Y-101432233D01*
X120084156Y-101385944D01*
X120153210Y-101375294D01*
X120161010Y-101376589D01*
X120256079Y-101395500D01*
X120256082Y-101395500D01*
X146873920Y-101395500D01*
X146975498Y-101375294D01*
X147018913Y-101366658D01*
X147155495Y-101310084D01*
X147216199Y-101269523D01*
X147278416Y-101227952D01*
X147505049Y-101001319D01*
X147566372Y-100967834D01*
X147592730Y-100965000D01*
X199400500Y-100965000D01*
X199467539Y-100984685D01*
X199513294Y-101037489D01*
X199524500Y-101089000D01*
X199524500Y-112395000D01*
X198891300Y-112395000D01*
X198862168Y-112267364D01*
X198760135Y-111975771D01*
X198690644Y-111831474D01*
X198690643Y-111831473D01*
X198690643Y-111831470D01*
X198626100Y-111697444D01*
X198626098Y-111697441D01*
X198626095Y-111697434D01*
X198461735Y-111435856D01*
X198269120Y-111194326D01*
X192120674Y-105045880D01*
X191879143Y-104853265D01*
X191617565Y-104688904D01*
X191617562Y-104688902D01*
X191339237Y-104554868D01*
X191339223Y-104554862D01*
X191263645Y-104528416D01*
X191098544Y-104470644D01*
X191041768Y-104429923D01*
X191016021Y-104364970D01*
X191015499Y-104353603D01*
X191015499Y-103452129D01*
X191015498Y-103452123D01*
X191015497Y-103452116D01*
X191009091Y-103392517D01*
X190958796Y-103257669D01*
X190958795Y-103257668D01*
X190958793Y-103257664D01*
X190872547Y-103142455D01*
X190872544Y-103142452D01*
X190757335Y-103056206D01*
X190757328Y-103056202D01*
X190622482Y-103005908D01*
X190622483Y-103005908D01*
X190562883Y-102999501D01*
X190562881Y-102999500D01*
X190562873Y-102999500D01*
X190562864Y-102999500D01*
X188467129Y-102999500D01*
X188467123Y-102999501D01*
X188407516Y-103005908D01*
X188272671Y-103056202D01*
X188272664Y-103056206D01*
X188157455Y-103142452D01*
X188157452Y-103142455D01*
X188071206Y-103257664D01*
X188071202Y-103257671D01*
X188020908Y-103392517D01*
X188019639Y-103404326D01*
X188014500Y-103452127D01*
X188014500Y-103842832D01*
X188014501Y-104225500D01*
X187994817Y-104292539D01*
X187942013Y-104338294D01*
X187890501Y-104349500D01*
X184705656Y-104349500D01*
X184638617Y-104329815D01*
X184617975Y-104313181D01*
X183490673Y-103185879D01*
X183328068Y-103056206D01*
X183249143Y-102993265D01*
X183021640Y-102850315D01*
X182987562Y-102828902D01*
X182709237Y-102694868D01*
X182709223Y-102694862D01*
X182633646Y-102668416D01*
X182633645Y-102668416D01*
X182417636Y-102592832D01*
X182417630Y-102592830D01*
X182116455Y-102524089D01*
X182116437Y-102524086D01*
X181809471Y-102489500D01*
X181809465Y-102489500D01*
X170534465Y-102489500D01*
X170225535Y-102489500D01*
X170225528Y-102489500D01*
X169918562Y-102524086D01*
X169918544Y-102524089D01*
X169617364Y-102592831D01*
X169617352Y-102592835D01*
X169325777Y-102694862D01*
X169325763Y-102694868D01*
X169047437Y-102828903D01*
X168785858Y-102993264D01*
X168544326Y-103185879D01*
X168325879Y-103404326D01*
X168133264Y-103645858D01*
X167968903Y-103907437D01*
X167834868Y-104185763D01*
X167834862Y-104185777D01*
X167732835Y-104477352D01*
X167732831Y-104477364D01*
X167664089Y-104778544D01*
X167664086Y-104778562D01*
X167629500Y-105085528D01*
X167629500Y-109394471D01*
X167664086Y-109701437D01*
X167664089Y-109701455D01*
X167732831Y-110002635D01*
X167732835Y-110002647D01*
X167834862Y-110294222D01*
X167834868Y-110294236D01*
X167968903Y-110572562D01*
X167968905Y-110572565D01*
X168133265Y-110834143D01*
X168325880Y-111075674D01*
X168544326Y-111294120D01*
X168785857Y-111486735D01*
X169047435Y-111651095D01*
X169325771Y-111785135D01*
X169325777Y-111785137D01*
X169617352Y-111887164D01*
X169617364Y-111887168D01*
X169918548Y-111955911D01*
X169918554Y-111955911D01*
X169918562Y-111955913D01*
X170094802Y-111975770D01*
X170225529Y-111990499D01*
X170225532Y-111990500D01*
X181311609Y-111990500D01*
X181378648Y-112010185D01*
X181424403Y-112062989D01*
X181434347Y-112132147D01*
X181406062Y-112194841D01*
X181248219Y-112380407D01*
X181248212Y-112380417D01*
X181239396Y-112395000D01*
X160020000Y-112395000D01*
X160020000Y-102870000D01*
X157813691Y-102870000D01*
X157747719Y-102850994D01*
X157712565Y-102828905D01*
X157712562Y-102828903D01*
X157434236Y-102694868D01*
X157434222Y-102694862D01*
X157142647Y-102592835D01*
X157142635Y-102592831D01*
X156841455Y-102524089D01*
X156841437Y-102524086D01*
X156534471Y-102489500D01*
X156534465Y-102489500D01*
X156225535Y-102489500D01*
X156225528Y-102489500D01*
X155918562Y-102524086D01*
X155918544Y-102524089D01*
X155617364Y-102592831D01*
X155617352Y-102592835D01*
X155325777Y-102694862D01*
X155325763Y-102694868D01*
X155277293Y-102718211D01*
X155277292Y-102718211D01*
X155047439Y-102828901D01*
X155021394Y-102845267D01*
X155013361Y-102850315D01*
X155012280Y-102850994D01*
X154946308Y-102870000D01*
X113372815Y-102870000D01*
X113305776Y-102850315D01*
X113260021Y-102797511D01*
X113256633Y-102789333D01*
X113203797Y-102647671D01*
X113203793Y-102647664D01*
X113117547Y-102532455D01*
X113117544Y-102532452D01*
X113002335Y-102446206D01*
X113002328Y-102446202D01*
X112867482Y-102395908D01*
X112867483Y-102395908D01*
X112807883Y-102389501D01*
X112807881Y-102389500D01*
X112807873Y-102389500D01*
X112807864Y-102389500D01*
X110712129Y-102389500D01*
X110712123Y-102389501D01*
X110652516Y-102395908D01*
X110517671Y-102446202D01*
X110517664Y-102446206D01*
X110402455Y-102532452D01*
X110402452Y-102532455D01*
X110316206Y-102647664D01*
X110316202Y-102647671D01*
X110263367Y-102789333D01*
X110221496Y-102845267D01*
X110156032Y-102869684D01*
X110147185Y-102870000D01*
X104775000Y-102870000D01*
X104775000Y-121920000D01*
X105641179Y-122786179D01*
X105658492Y-122807888D01*
X105703263Y-122879141D01*
X105881278Y-123102364D01*
X105895880Y-123120674D01*
X108654326Y-125879120D01*
X108895856Y-126071735D01*
X108955308Y-126109091D01*
X108967112Y-126116508D01*
X108988821Y-126133821D01*
X109220000Y-126365000D01*
X101465500Y-126365000D01*
X101465500Y-101089000D01*
X101485185Y-101021961D01*
X101537989Y-100976206D01*
X101589500Y-100965000D01*
X104348000Y-100965000D01*
X104415039Y-100984685D01*
G37*
%TD.AperFunction*%
%TA.AperFunction,Conductor*%
G36*
X189161383Y-109870185D02*
G01*
X189182025Y-109886819D01*
X191690206Y-112395000D01*
X185790603Y-112395000D01*
X185781784Y-112380411D01*
X185634308Y-112207032D01*
X185622201Y-112192798D01*
X185459611Y-112054500D01*
X185434589Y-112033216D01*
X185223809Y-111905795D01*
X185177517Y-111887164D01*
X184995318Y-111813835D01*
X184755036Y-111759719D01*
X184755029Y-111759718D01*
X184610297Y-111749500D01*
X184610295Y-111749500D01*
X184574967Y-111749500D01*
X184534012Y-111742542D01*
X184405129Y-111697444D01*
X184277636Y-111652832D01*
X184277635Y-111652831D01*
X184277633Y-111652831D01*
X183976455Y-111584089D01*
X183976437Y-111584086D01*
X183669471Y-111549500D01*
X183669465Y-111549500D01*
X183360535Y-111549500D01*
X183360528Y-111549500D01*
X183240797Y-111562990D01*
X183171975Y-111550935D01*
X183120596Y-111503586D01*
X183102972Y-111435975D01*
X183124699Y-111369570D01*
X183149596Y-111342827D01*
X183210674Y-111294120D01*
X184617975Y-109886819D01*
X184679298Y-109853334D01*
X184705656Y-109850500D01*
X189094344Y-109850500D01*
X189161383Y-109870185D01*
G37*
%TD.AperFunction*%
%TD*%
%TA.AperFunction,Conductor*%
%TO.N,GND*%
G36*
X101670703Y-96382516D02*
G01*
X101677181Y-96388548D01*
X102089548Y-96800915D01*
X102089549Y-96800916D01*
X102156114Y-96867481D01*
X102194085Y-96905452D01*
X102316998Y-96987580D01*
X102317011Y-96987587D01*
X102374224Y-97011285D01*
X102453587Y-97044158D01*
X102453591Y-97044158D01*
X102453592Y-97044159D01*
X102598579Y-97073000D01*
X102598582Y-97073000D01*
X107817649Y-97073000D01*
X107884688Y-97092685D01*
X107930443Y-97145489D01*
X107940939Y-97183748D01*
X107945908Y-97229983D01*
X107996202Y-97364828D01*
X107996206Y-97364835D01*
X108082452Y-97480044D01*
X108082455Y-97480047D01*
X108197664Y-97566293D01*
X108197671Y-97566297D01*
X108332517Y-97616591D01*
X108332516Y-97616591D01*
X108339444Y-97617335D01*
X108392127Y-97623000D01*
X110087872Y-97622999D01*
X110147483Y-97616591D01*
X110282331Y-97566296D01*
X110397546Y-97480046D01*
X110483796Y-97364831D01*
X110534091Y-97229983D01*
X110534092Y-97229972D01*
X110535365Y-97224588D01*
X110569933Y-97163869D01*
X110631841Y-97131478D01*
X110701433Y-97137699D01*
X110743725Y-97165412D01*
X110900858Y-97322545D01*
X110900861Y-97322547D01*
X111087266Y-97453068D01*
X111293504Y-97549239D01*
X111513308Y-97608135D01*
X111675230Y-97622301D01*
X111739998Y-97627968D01*
X111740000Y-97627968D01*
X111740002Y-97627968D01*
X111796807Y-97622998D01*
X111966692Y-97608135D01*
X112186496Y-97549239D01*
X112392734Y-97453068D01*
X112579139Y-97322547D01*
X112740047Y-97161639D01*
X112765088Y-97125877D01*
X112819665Y-97082252D01*
X112866663Y-97073000D01*
X115645270Y-97073000D01*
X115712309Y-97092685D01*
X115732951Y-97109319D01*
X117471951Y-98848319D01*
X117505436Y-98909642D01*
X117500452Y-98979334D01*
X117458580Y-99035267D01*
X117393116Y-99059684D01*
X117384270Y-99060000D01*
X112676378Y-99060000D01*
X112609339Y-99040315D01*
X112563584Y-98987511D01*
X112553158Y-98949883D01*
X112545369Y-98880749D01*
X112545368Y-98880745D01*
X112534022Y-98848319D01*
X112485789Y-98710478D01*
X112481590Y-98703796D01*
X112427397Y-98617548D01*
X112389816Y-98557738D01*
X112262262Y-98430184D01*
X112109523Y-98334211D01*
X111939254Y-98274631D01*
X111939249Y-98274630D01*
X111760004Y-98254435D01*
X111759996Y-98254435D01*
X111580750Y-98274630D01*
X111580745Y-98274631D01*
X111500983Y-98302542D01*
X111460028Y-98309500D01*
X109541519Y-98309500D01*
X109474480Y-98289815D01*
X109453837Y-98273180D01*
X109410188Y-98229531D01*
X109410188Y-98229530D01*
X109264606Y-98141522D01*
X109170792Y-98112289D01*
X109102196Y-98090914D01*
X109102194Y-98090913D01*
X109102192Y-98090913D01*
X109052778Y-98086423D01*
X109031616Y-98084500D01*
X108518384Y-98084500D01*
X108499145Y-98086248D01*
X108447807Y-98090913D01*
X108285393Y-98141522D01*
X108139811Y-98229530D01*
X108139810Y-98229531D01*
X108037681Y-98331661D01*
X107976358Y-98365146D01*
X107906666Y-98360162D01*
X107862319Y-98331661D01*
X107760188Y-98229530D01*
X107614606Y-98141522D01*
X107520792Y-98112289D01*
X107452196Y-98090914D01*
X107452194Y-98090913D01*
X107452192Y-98090913D01*
X107402778Y-98086423D01*
X107381616Y-98084500D01*
X106868384Y-98084500D01*
X106849145Y-98086248D01*
X106797807Y-98090913D01*
X106635393Y-98141522D01*
X106489811Y-98229530D01*
X106489811Y-98229531D01*
X106446163Y-98273180D01*
X106384840Y-98306666D01*
X106358481Y-98309500D01*
X106203034Y-98309500D01*
X106135995Y-98289815D01*
X106115353Y-98273181D01*
X106077891Y-98235719D01*
X106077887Y-98235716D01*
X105934795Y-98147455D01*
X105934789Y-98147452D01*
X105934787Y-98147451D01*
X105775185Y-98094564D01*
X105775183Y-98094563D01*
X105676681Y-98084500D01*
X105676674Y-98084500D01*
X105143326Y-98084500D01*
X105143318Y-98084500D01*
X105044816Y-98094563D01*
X105044815Y-98094564D01*
X104991328Y-98112288D01*
X104885215Y-98147450D01*
X104885204Y-98147455D01*
X104742112Y-98235716D01*
X104742108Y-98235719D01*
X104623219Y-98354608D01*
X104623216Y-98354612D01*
X104534955Y-98497704D01*
X104534950Y-98497715D01*
X104528961Y-98515789D01*
X104482064Y-98657315D01*
X104482064Y-98657316D01*
X104482063Y-98657316D01*
X104472000Y-98755818D01*
X104472000Y-98936000D01*
X104452315Y-99003039D01*
X104399511Y-99048794D01*
X104348000Y-99060000D01*
X101589500Y-99060000D01*
X101522461Y-99040315D01*
X101476706Y-98987511D01*
X101465500Y-98936000D01*
X101465500Y-96476229D01*
X101485185Y-96409190D01*
X101537989Y-96363435D01*
X101607147Y-96353491D01*
X101670703Y-96382516D01*
G37*
%TD.AperFunction*%
%TA.AperFunction,Conductor*%
G36*
X120406583Y-94948202D02*
G01*
X120446954Y-94988599D01*
X120462031Y-95013043D01*
X120471307Y-95022319D01*
X120504792Y-95083642D01*
X120499808Y-95153334D01*
X120471307Y-95197681D01*
X120462032Y-95206955D01*
X120462029Y-95206959D01*
X120373001Y-95351294D01*
X120372996Y-95351305D01*
X120319651Y-95512290D01*
X120309500Y-95611647D01*
X120309500Y-95648564D01*
X120307117Y-95672755D01*
X120284500Y-95786456D01*
X120284500Y-95786460D01*
X120284500Y-95983540D01*
X120297583Y-96049319D01*
X120307118Y-96097253D01*
X120309500Y-96121440D01*
X120309500Y-96158336D01*
X120309501Y-96158356D01*
X120319650Y-96257707D01*
X120319651Y-96257710D01*
X120372996Y-96418694D01*
X120373001Y-96418705D01*
X120462029Y-96563040D01*
X120462032Y-96563044D01*
X120581956Y-96682968D01*
X120581958Y-96682969D01*
X120587620Y-96687446D01*
X120586570Y-96688773D01*
X120627316Y-96734065D01*
X120639500Y-96787667D01*
X120639500Y-98936000D01*
X120619815Y-99003039D01*
X120567011Y-99048794D01*
X120515500Y-99060000D01*
X119857729Y-99060000D01*
X119790690Y-99040315D01*
X119770048Y-99023681D01*
X116485921Y-95739552D01*
X116485920Y-95739551D01*
X116452976Y-95717539D01*
X116385149Y-95672219D01*
X116385149Y-95672218D01*
X116362995Y-95657416D01*
X116362990Y-95657413D01*
X116226417Y-95600843D01*
X116226407Y-95600840D01*
X116081420Y-95572000D01*
X116081418Y-95572000D01*
X112866663Y-95572000D01*
X112799624Y-95552315D01*
X112765088Y-95519123D01*
X112740048Y-95483362D01*
X112711677Y-95454991D01*
X112666865Y-95410179D01*
X112633382Y-95348859D01*
X112638366Y-95279167D01*
X112666865Y-95234820D01*
X112740047Y-95161639D01*
X112751716Y-95144972D01*
X112765088Y-95125877D01*
X112819665Y-95082252D01*
X112866663Y-95073000D01*
X119935592Y-95073000D01*
X120033134Y-95053596D01*
X120080585Y-95044158D01*
X120217167Y-94987584D01*
X120272525Y-94950594D01*
X120339203Y-94929717D01*
X120406583Y-94948202D01*
G37*
%TD.AperFunction*%
%TA.AperFunction,Conductor*%
G36*
X199467539Y-83705185D02*
G01*
X199513294Y-83757989D01*
X199524500Y-83809500D01*
X199524500Y-87408112D01*
X199504815Y-87475151D01*
X199452011Y-87520906D01*
X199382853Y-87530850D01*
X199319297Y-87501825D01*
X199300182Y-87480998D01*
X199295934Y-87475151D01*
X199241379Y-87400063D01*
X199079937Y-87238621D01*
X198895228Y-87104421D01*
X198691803Y-87000770D01*
X198624872Y-86979023D01*
X198587705Y-86959468D01*
X198470745Y-86869721D01*
X198470743Y-86869720D01*
X198269762Y-86753685D01*
X198269754Y-86753681D01*
X198269752Y-86753680D01*
X198266947Y-86752518D01*
X198055328Y-86664862D01*
X197913203Y-86626780D01*
X197831149Y-86604794D01*
X197802386Y-86601007D01*
X197601052Y-86574500D01*
X197601045Y-86574500D01*
X184868955Y-86574500D01*
X184868954Y-86574500D01*
X184717913Y-86594384D01*
X184648877Y-86583618D01*
X184614047Y-86559126D01*
X183149209Y-85094289D01*
X183149206Y-85094285D01*
X183149206Y-85094286D01*
X183142139Y-85087219D01*
X183142139Y-85087218D01*
X183002782Y-84947861D01*
X183002781Y-84947860D01*
X183002780Y-84947859D01*
X182838920Y-84838371D01*
X182838911Y-84838366D01*
X182766315Y-84808296D01*
X182710165Y-84785038D01*
X182656836Y-84762949D01*
X182656832Y-84762948D01*
X182656828Y-84762946D01*
X182560188Y-84743724D01*
X182463544Y-84724500D01*
X182463541Y-84724500D01*
X165891459Y-84724500D01*
X165872129Y-84728345D01*
X165732767Y-84756065D01*
X165698164Y-84762948D01*
X165516088Y-84838366D01*
X165516079Y-84838371D01*
X165352219Y-84947859D01*
X165352215Y-84947862D01*
X164026899Y-86273181D01*
X163965576Y-86306666D01*
X163939218Y-86309500D01*
X161546457Y-86309500D01*
X161353167Y-86347948D01*
X161353165Y-86347948D01*
X161348056Y-86350065D01*
X161300612Y-86359500D01*
X160847129Y-86359500D01*
X160847123Y-86359501D01*
X160787516Y-86365908D01*
X160652671Y-86416202D01*
X160652664Y-86416206D01*
X160537455Y-86502452D01*
X160537452Y-86502455D01*
X160451206Y-86617664D01*
X160451202Y-86617671D01*
X160400908Y-86752517D01*
X160396020Y-86797989D01*
X160394501Y-86812123D01*
X160394500Y-86812135D01*
X160394500Y-87807870D01*
X160394501Y-87807876D01*
X160400908Y-87867483D01*
X160454303Y-88010641D01*
X160452575Y-88011285D01*
X160465095Y-88068853D01*
X160453310Y-88108988D01*
X160454303Y-88109359D01*
X160400908Y-88252517D01*
X160396104Y-88297204D01*
X160394501Y-88312123D01*
X160394500Y-88312135D01*
X160394500Y-89307870D01*
X160394501Y-89307876D01*
X160400908Y-89367483D01*
X160454303Y-89510641D01*
X160452575Y-89511285D01*
X160465095Y-89568853D01*
X160453310Y-89608988D01*
X160454303Y-89609359D01*
X160400908Y-89752517D01*
X160394501Y-89812116D01*
X160394500Y-89812135D01*
X160394500Y-90807870D01*
X160394501Y-90807876D01*
X160400908Y-90867483D01*
X160454303Y-91010641D01*
X160452575Y-91011285D01*
X160465095Y-91068853D01*
X160453310Y-91108988D01*
X160454303Y-91109359D01*
X160400908Y-91252517D01*
X160394501Y-91312116D01*
X160394501Y-91312123D01*
X160394500Y-91312135D01*
X160394500Y-92307870D01*
X160394501Y-92307876D01*
X160400908Y-92367483D01*
X160454303Y-92510641D01*
X160452575Y-92511285D01*
X160465095Y-92568853D01*
X160453310Y-92608988D01*
X160454303Y-92609359D01*
X160400908Y-92752517D01*
X160394501Y-92812116D01*
X160394501Y-92812123D01*
X160394500Y-92812135D01*
X160394500Y-93105500D01*
X160374815Y-93172539D01*
X160322011Y-93218294D01*
X160270500Y-93229500D01*
X149524972Y-93229500D01*
X149484017Y-93222542D01*
X149404254Y-93194631D01*
X149404249Y-93194630D01*
X149225004Y-93174435D01*
X149224996Y-93174435D01*
X149045750Y-93194630D01*
X149045745Y-93194631D01*
X148875476Y-93254211D01*
X148722737Y-93350184D01*
X148595184Y-93477737D01*
X148499211Y-93630476D01*
X148439631Y-93800745D01*
X148439630Y-93800750D01*
X148419435Y-93979996D01*
X148419435Y-93980003D01*
X148439630Y-94159249D01*
X148439631Y-94159254D01*
X148499211Y-94329523D01*
X148595184Y-94482262D01*
X148722738Y-94609816D01*
X148813080Y-94666582D01*
X148872681Y-94704032D01*
X148875478Y-94705789D01*
X149045739Y-94765366D01*
X149045745Y-94765368D01*
X149045750Y-94765369D01*
X149224996Y-94785565D01*
X149225000Y-94785565D01*
X149225004Y-94785565D01*
X149404249Y-94765369D01*
X149404252Y-94765368D01*
X149404255Y-94765368D01*
X149484017Y-94737457D01*
X149524972Y-94730500D01*
X160270500Y-94730500D01*
X160337539Y-94750185D01*
X160383294Y-94802989D01*
X160394500Y-94854500D01*
X160394500Y-95307870D01*
X160394501Y-95307876D01*
X160400908Y-95367483D01*
X160454303Y-95510641D01*
X160452575Y-95511285D01*
X160465095Y-95568853D01*
X160453310Y-95608988D01*
X160454303Y-95609359D01*
X160400908Y-95752517D01*
X160394851Y-95808862D01*
X160394501Y-95812123D01*
X160394500Y-95812135D01*
X160394500Y-96807870D01*
X160394501Y-96807876D01*
X160400909Y-96867485D01*
X160410115Y-96892168D01*
X160415099Y-96961860D01*
X160381613Y-97023182D01*
X160320289Y-97056667D01*
X160293933Y-97059500D01*
X159742129Y-97059500D01*
X159701174Y-97052542D01*
X159564254Y-97004631D01*
X159564249Y-97004630D01*
X159385004Y-96984435D01*
X159384996Y-96984435D01*
X159205750Y-97004630D01*
X159205745Y-97004631D01*
X159035476Y-97064211D01*
X158882737Y-97160184D01*
X158755184Y-97287737D01*
X158659211Y-97440476D01*
X158599631Y-97610745D01*
X158599630Y-97610750D01*
X158579435Y-97789996D01*
X158579435Y-97790003D01*
X158599630Y-97969249D01*
X158599631Y-97969254D01*
X158659211Y-98139523D01*
X158720047Y-98236342D01*
X158755184Y-98292262D01*
X158882738Y-98419816D01*
X158899239Y-98430184D01*
X159014059Y-98502331D01*
X159035478Y-98515789D01*
X159161777Y-98559983D01*
X159205745Y-98575368D01*
X159205750Y-98575369D01*
X159384996Y-98595565D01*
X159385000Y-98595565D01*
X159385004Y-98595565D01*
X159564246Y-98575369D01*
X159564245Y-98575369D01*
X159564255Y-98575368D01*
X159586857Y-98567458D01*
X159627812Y-98560500D01*
X160432680Y-98560500D01*
X160499719Y-98580185D01*
X160531948Y-98610191D01*
X160537454Y-98617546D01*
X160537457Y-98617548D01*
X160652664Y-98703793D01*
X160652671Y-98703797D01*
X160787517Y-98754091D01*
X160787516Y-98754091D01*
X160794444Y-98754835D01*
X160847127Y-98760500D01*
X162442872Y-98760499D01*
X162502483Y-98754091D01*
X162637331Y-98703796D01*
X162752546Y-98617546D01*
X162754040Y-98615550D01*
X162756035Y-98614055D01*
X162758820Y-98611272D01*
X162759219Y-98611671D01*
X162809969Y-98573675D01*
X162879660Y-98568685D01*
X162922203Y-98586751D01*
X163009498Y-98645080D01*
X163009511Y-98645087D01*
X163146082Y-98701656D01*
X163146087Y-98701658D01*
X163146091Y-98701658D01*
X163146092Y-98701659D01*
X163291079Y-98730500D01*
X163291082Y-98730500D01*
X163438917Y-98730500D01*
X163712023Y-98730500D01*
X163776171Y-98748382D01*
X163900394Y-98823478D01*
X163900395Y-98823478D01*
X163906813Y-98827358D01*
X163905968Y-98828754D01*
X163952220Y-98868391D01*
X163972271Y-98935322D01*
X163952954Y-99002468D01*
X163900401Y-99048511D01*
X163848273Y-99060000D01*
X153316378Y-99060000D01*
X153249339Y-99040315D01*
X153203584Y-98987511D01*
X153193158Y-98949883D01*
X153185369Y-98880749D01*
X153185368Y-98880745D01*
X153174022Y-98848319D01*
X153125789Y-98710478D01*
X153121590Y-98703796D01*
X153067397Y-98617548D01*
X153029816Y-98557738D01*
X152902262Y-98430184D01*
X152749523Y-98334211D01*
X152579254Y-98274631D01*
X152579249Y-98274630D01*
X152400004Y-98254435D01*
X152399996Y-98254435D01*
X152220750Y-98274630D01*
X152220745Y-98274631D01*
X152050476Y-98334211D01*
X151897737Y-98430184D01*
X151770184Y-98557737D01*
X151674211Y-98710476D01*
X151614631Y-98880745D01*
X151614630Y-98880749D01*
X151606842Y-98949883D01*
X151579776Y-99014297D01*
X151522182Y-99053852D01*
X151483622Y-99060000D01*
X148194500Y-99060000D01*
X148127461Y-99040315D01*
X148081706Y-98987511D01*
X148070500Y-98936000D01*
X148070500Y-92161079D01*
X148041659Y-92016092D01*
X148041658Y-92016091D01*
X148041658Y-92016087D01*
X148039067Y-92009831D01*
X147985087Y-91879511D01*
X147985080Y-91879498D01*
X147902952Y-91756585D01*
X147863585Y-91717218D01*
X147798416Y-91652049D01*
X147346161Y-91199794D01*
X145873421Y-89727052D01*
X145873414Y-89727046D01*
X145766294Y-89655472D01*
X145750495Y-89644916D01*
X145750490Y-89644913D01*
X145613917Y-89588343D01*
X145613907Y-89588340D01*
X145470843Y-89559882D01*
X145408932Y-89527497D01*
X145374358Y-89466781D01*
X145378099Y-89397011D01*
X145378833Y-89394985D01*
X145389091Y-89367483D01*
X145395500Y-89307873D01*
X145395499Y-88312128D01*
X145389091Y-88252517D01*
X145338796Y-88117669D01*
X145338794Y-88117666D01*
X145335696Y-88109360D01*
X145337426Y-88108714D01*
X145324902Y-88051163D01*
X145336691Y-88011011D01*
X145335696Y-88010640D01*
X145338794Y-88002333D01*
X145338796Y-88002331D01*
X145389091Y-87867483D01*
X145395500Y-87807873D01*
X145395499Y-86812128D01*
X145389091Y-86752517D01*
X145338796Y-86617669D01*
X145338794Y-86617666D01*
X145335696Y-86609360D01*
X145337426Y-86608714D01*
X145324902Y-86551163D01*
X145336691Y-86511011D01*
X145335696Y-86510640D01*
X145338794Y-86502333D01*
X145338796Y-86502331D01*
X145389091Y-86367483D01*
X145395500Y-86307873D01*
X145395499Y-85312128D01*
X145389140Y-85252970D01*
X145389091Y-85252516D01*
X145338797Y-85117671D01*
X145338793Y-85117664D01*
X145252547Y-85002455D01*
X145252544Y-85002452D01*
X145137335Y-84916206D01*
X145137328Y-84916202D01*
X145002482Y-84865908D01*
X145002483Y-84865908D01*
X144942883Y-84859501D01*
X144942881Y-84859500D01*
X144942873Y-84859500D01*
X144942864Y-84859500D01*
X143347129Y-84859500D01*
X143347123Y-84859501D01*
X143287516Y-84865908D01*
X143152671Y-84916202D01*
X143152664Y-84916206D01*
X143037455Y-85002452D01*
X143037452Y-85002455D01*
X142951206Y-85117664D01*
X142951202Y-85117671D01*
X142900908Y-85252517D01*
X142894501Y-85312116D01*
X142894501Y-85312123D01*
X142894500Y-85312135D01*
X142894500Y-86307870D01*
X142894501Y-86307876D01*
X142900908Y-86367483D01*
X142954303Y-86510641D01*
X142952575Y-86511285D01*
X142965095Y-86568853D01*
X142953310Y-86608988D01*
X142954303Y-86609359D01*
X142900908Y-86752517D01*
X142896020Y-86797989D01*
X142894501Y-86812123D01*
X142894500Y-86812135D01*
X142894500Y-87807870D01*
X142894501Y-87807876D01*
X142900908Y-87867483D01*
X142954303Y-88010641D01*
X142952575Y-88011285D01*
X142965095Y-88068853D01*
X142953310Y-88108988D01*
X142954303Y-88109359D01*
X142900908Y-88252517D01*
X142896104Y-88297204D01*
X142894501Y-88312123D01*
X142894500Y-88312135D01*
X142894500Y-89307870D01*
X142894501Y-89307876D01*
X142900908Y-89367483D01*
X142954303Y-89510641D01*
X142952575Y-89511285D01*
X142965095Y-89568853D01*
X142953310Y-89608988D01*
X142954303Y-89609359D01*
X142900908Y-89752517D01*
X142894501Y-89812116D01*
X142894500Y-89812135D01*
X142894500Y-90807870D01*
X142894501Y-90807876D01*
X142900909Y-90867485D01*
X142910115Y-90892168D01*
X142915099Y-90961860D01*
X142881613Y-91023182D01*
X142820289Y-91056667D01*
X142793933Y-91059500D01*
X122300248Y-91059500D01*
X122271414Y-91065234D01*
X122271415Y-91065235D01*
X122155265Y-91088339D01*
X122155261Y-91088340D01*
X122084754Y-91117546D01*
X122084753Y-91117546D01*
X122018680Y-91144913D01*
X121936544Y-91199795D01*
X121895757Y-91227047D01*
X121895753Y-91227050D01*
X119587123Y-93535681D01*
X119525800Y-93569166D01*
X119499442Y-93572000D01*
X112866663Y-93572000D01*
X112799624Y-93552315D01*
X112765088Y-93519123D01*
X112740045Y-93483358D01*
X112579141Y-93322454D01*
X112392734Y-93191932D01*
X112392732Y-93191931D01*
X112186497Y-93095761D01*
X112186488Y-93095758D01*
X111966697Y-93036866D01*
X111966693Y-93036865D01*
X111966692Y-93036865D01*
X111966691Y-93036864D01*
X111966686Y-93036864D01*
X111740002Y-93017032D01*
X111739998Y-93017032D01*
X111513313Y-93036864D01*
X111513302Y-93036866D01*
X111293511Y-93095758D01*
X111293502Y-93095761D01*
X111087267Y-93191931D01*
X111087265Y-93191932D01*
X110900858Y-93322454D01*
X110739954Y-93483358D01*
X110609432Y-93669765D01*
X110609431Y-93669767D01*
X110513261Y-93876002D01*
X110513258Y-93876011D01*
X110454366Y-94095802D01*
X110454364Y-94095813D01*
X110434532Y-94322498D01*
X110434532Y-94322501D01*
X110454364Y-94549186D01*
X110454366Y-94549197D01*
X110513258Y-94768988D01*
X110513261Y-94768997D01*
X110609431Y-94975232D01*
X110609432Y-94975234D01*
X110739954Y-95161641D01*
X110813132Y-95234819D01*
X110846617Y-95296142D01*
X110841633Y-95365834D01*
X110813132Y-95410182D01*
X110743726Y-95479587D01*
X110682402Y-95513071D01*
X110612711Y-95508086D01*
X110556777Y-95466215D01*
X110535369Y-95420423D01*
X110534091Y-95415018D01*
X110534089Y-95415013D01*
X110489754Y-95296142D01*
X110483797Y-95280171D01*
X110483793Y-95280164D01*
X110397547Y-95164955D01*
X110397544Y-95164952D01*
X110282335Y-95078706D01*
X110282328Y-95078702D01*
X110147482Y-95028408D01*
X110147483Y-95028408D01*
X110087883Y-95022001D01*
X110087881Y-95022000D01*
X110087873Y-95022000D01*
X110087864Y-95022000D01*
X108392129Y-95022000D01*
X108392123Y-95022001D01*
X108332516Y-95028408D01*
X108197671Y-95078702D01*
X108197664Y-95078706D01*
X108082455Y-95164952D01*
X108082452Y-95164955D01*
X107996206Y-95280164D01*
X107996202Y-95280171D01*
X107963637Y-95367485D01*
X107945909Y-95415017D01*
X107940937Y-95461257D01*
X107914201Y-95525806D01*
X107856809Y-95565654D01*
X107817649Y-95572000D01*
X103034729Y-95572000D01*
X102967690Y-95552315D01*
X102947048Y-95535681D01*
X102576819Y-95165451D01*
X102543334Y-95104128D01*
X102540500Y-95077770D01*
X102540500Y-89822230D01*
X102560185Y-89755191D01*
X102576819Y-89734549D01*
X102677825Y-89633543D01*
X122189499Y-89633543D01*
X122227948Y-89826833D01*
X122227950Y-89826840D01*
X122235449Y-89844946D01*
X122244244Y-89879789D01*
X122249651Y-89932709D01*
X122302996Y-90093694D01*
X122303001Y-90093705D01*
X122392029Y-90238040D01*
X122392032Y-90238044D01*
X122511955Y-90357967D01*
X122511959Y-90357970D01*
X122656294Y-90446998D01*
X122656297Y-90446999D01*
X122656303Y-90447003D01*
X122817292Y-90500349D01*
X122916655Y-90510500D01*
X122953563Y-90510499D01*
X122977754Y-90512881D01*
X123043596Y-90525979D01*
X123091458Y-90535500D01*
X123091459Y-90535500D01*
X128818543Y-90535500D01*
X128902332Y-90518832D01*
X128944228Y-90510499D01*
X129011836Y-90497051D01*
X129065165Y-90474961D01*
X129193914Y-90421632D01*
X129357782Y-90312139D01*
X129497139Y-90172782D01*
X129497140Y-90172779D01*
X129638103Y-90031816D01*
X129699426Y-89998333D01*
X129725783Y-89995499D01*
X130260002Y-89995499D01*
X130260008Y-89995499D01*
X130362797Y-89984999D01*
X130529334Y-89929814D01*
X130678656Y-89837712D01*
X130802712Y-89713656D01*
X130894814Y-89564334D01*
X130949999Y-89397797D01*
X130960500Y-89295009D01*
X130960499Y-88494992D01*
X130956838Y-88459157D01*
X130949999Y-88392203D01*
X130949998Y-88392200D01*
X130923465Y-88312129D01*
X130894814Y-88225666D01*
X130802712Y-88076344D01*
X130678656Y-87952288D01*
X130569854Y-87885179D01*
X130529336Y-87860187D01*
X130529331Y-87860185D01*
X130520588Y-87857288D01*
X130362797Y-87805001D01*
X130362795Y-87805000D01*
X130260010Y-87794500D01*
X128459998Y-87794500D01*
X128459981Y-87794501D01*
X128357203Y-87805000D01*
X128357200Y-87805001D01*
X128190668Y-87860185D01*
X128190663Y-87860187D01*
X128041342Y-87952289D01*
X127917289Y-88076342D01*
X127825187Y-88225663D01*
X127825185Y-88225668D01*
X127770001Y-88392204D01*
X127770000Y-88392205D01*
X127766844Y-88423103D01*
X127740447Y-88487795D01*
X127683266Y-88527946D01*
X127643486Y-88534500D01*
X127404499Y-88534500D01*
X127337460Y-88514815D01*
X127291705Y-88462011D01*
X127280499Y-88410500D01*
X127280499Y-88399998D01*
X127280498Y-88399981D01*
X127269999Y-88297203D01*
X127269998Y-88297200D01*
X127248007Y-88230837D01*
X127214814Y-88130666D01*
X127122712Y-87981344D01*
X126998656Y-87857288D01*
X126905888Y-87800069D01*
X126849336Y-87765187D01*
X126849331Y-87765185D01*
X126824301Y-87756891D01*
X126682797Y-87710001D01*
X126682795Y-87710000D01*
X126580010Y-87699500D01*
X124879998Y-87699500D01*
X124879981Y-87699501D01*
X124777203Y-87710000D01*
X124777200Y-87710001D01*
X124610668Y-87765185D01*
X124610663Y-87765187D01*
X124461342Y-87857289D01*
X124337289Y-87981342D01*
X124245187Y-88130663D01*
X124245185Y-88130668D01*
X124217349Y-88214670D01*
X124190001Y-88297203D01*
X124190001Y-88297204D01*
X124190000Y-88297204D01*
X124179500Y-88399983D01*
X124179500Y-88410500D01*
X124159815Y-88477539D01*
X124107011Y-88523294D01*
X124055500Y-88534500D01*
X123091459Y-88534500D01*
X123064049Y-88539952D01*
X122977745Y-88557118D01*
X122953558Y-88559500D01*
X122916663Y-88559500D01*
X122916643Y-88559501D01*
X122817292Y-88569650D01*
X122817289Y-88569651D01*
X122656305Y-88622996D01*
X122656294Y-88623001D01*
X122511959Y-88712029D01*
X122511955Y-88712032D01*
X122392032Y-88831955D01*
X122392029Y-88831959D01*
X122303001Y-88976294D01*
X122302996Y-88976305D01*
X122249651Y-89137290D01*
X122249650Y-89137296D01*
X122244243Y-89190214D01*
X122235450Y-89225051D01*
X122227950Y-89243161D01*
X122227948Y-89243167D01*
X122189500Y-89436456D01*
X122189500Y-89436459D01*
X122189500Y-89633541D01*
X122189500Y-89633543D01*
X122189499Y-89633543D01*
X102677825Y-89633543D01*
X107069549Y-85241819D01*
X107130872Y-85208334D01*
X107157230Y-85205500D01*
X120483126Y-85205500D01*
X120550165Y-85225185D01*
X120570807Y-85241819D01*
X120581955Y-85252967D01*
X120581959Y-85252970D01*
X120726294Y-85341998D01*
X120726297Y-85341999D01*
X120726303Y-85342003D01*
X120887292Y-85395349D01*
X120940212Y-85400755D01*
X120975059Y-85409551D01*
X120993165Y-85417051D01*
X121033117Y-85424998D01*
X121186456Y-85455500D01*
X121186459Y-85455500D01*
X124322770Y-85455500D01*
X124389809Y-85475185D01*
X124410451Y-85491819D01*
X124461344Y-85542712D01*
X124610666Y-85634814D01*
X124777203Y-85689999D01*
X124879991Y-85700500D01*
X126580008Y-85700499D01*
X126682797Y-85689999D01*
X126849334Y-85634814D01*
X126998656Y-85542712D01*
X127049549Y-85491819D01*
X127110872Y-85458334D01*
X127137230Y-85455500D01*
X129338542Y-85455500D01*
X129427110Y-85437882D01*
X129451302Y-85435499D01*
X130260002Y-85435499D01*
X130260008Y-85435499D01*
X130362797Y-85424999D01*
X130529334Y-85369814D01*
X130678656Y-85277712D01*
X130802712Y-85153656D01*
X130894814Y-85004334D01*
X130949999Y-84837797D01*
X130960500Y-84735009D01*
X130960499Y-83934992D01*
X130949999Y-83832203D01*
X130949311Y-83825467D01*
X130951456Y-83825247D01*
X130955918Y-83765763D01*
X130997984Y-83709976D01*
X131063532Y-83685786D01*
X131071949Y-83685500D01*
X199400500Y-83685500D01*
X199467539Y-83705185D01*
G37*
%TD.AperFunction*%
%TA.AperFunction,Conductor*%
G36*
X183051442Y-89052446D02*
G01*
X183090485Y-89097504D01*
X183094421Y-89105228D01*
X183228621Y-89289937D01*
X183390063Y-89451379D01*
X183574772Y-89585579D01*
X183647803Y-89622790D01*
X183778200Y-89689231D01*
X183778206Y-89689233D01*
X183845125Y-89710976D01*
X183882292Y-89730529D01*
X183999252Y-89820276D01*
X183999259Y-89820281D01*
X184200237Y-89936314D01*
X184200240Y-89936315D01*
X184200248Y-89936320D01*
X184414670Y-90025137D01*
X184638851Y-90085206D01*
X184868955Y-90115500D01*
X184868962Y-90115500D01*
X197601038Y-90115500D01*
X197601045Y-90115500D01*
X197831149Y-90085206D01*
X198055330Y-90025137D01*
X198269752Y-89936320D01*
X198459379Y-89826840D01*
X198470743Y-89820279D01*
X198470747Y-89820277D01*
X198587705Y-89730531D01*
X198624870Y-89710976D01*
X198691799Y-89689231D01*
X198895228Y-89585579D01*
X199079937Y-89451379D01*
X199241379Y-89289937D01*
X199300184Y-89208999D01*
X199355512Y-89166336D01*
X199425125Y-89160357D01*
X199486920Y-89192963D01*
X199521278Y-89253802D01*
X199524500Y-89281887D01*
X199524500Y-98936000D01*
X199504815Y-99003039D01*
X199452011Y-99048794D01*
X199400500Y-99060000D01*
X165081727Y-99060000D01*
X165014688Y-99040315D01*
X164968933Y-98987511D01*
X164958989Y-98918353D01*
X164988014Y-98854797D01*
X165023711Y-98828226D01*
X165023187Y-98827358D01*
X165029604Y-98823478D01*
X165029606Y-98823478D01*
X165175185Y-98735472D01*
X165295472Y-98615185D01*
X165383478Y-98469606D01*
X165434086Y-98307196D01*
X165440500Y-98236616D01*
X165440500Y-97723384D01*
X165434086Y-97652804D01*
X165383478Y-97490394D01*
X165295472Y-97344815D01*
X165295470Y-97344813D01*
X165295469Y-97344811D01*
X165193339Y-97242681D01*
X165159854Y-97181358D01*
X165164838Y-97111666D01*
X165193339Y-97067319D01*
X165295468Y-96965189D01*
X165295469Y-96965188D01*
X165295472Y-96965185D01*
X165383478Y-96819606D01*
X165434086Y-96657196D01*
X165440500Y-96586616D01*
X165440500Y-96566434D01*
X165442883Y-96542242D01*
X165465500Y-96428542D01*
X165465500Y-92820782D01*
X165485185Y-92753743D01*
X165501819Y-92733101D01*
X166686430Y-91548490D01*
X168104049Y-90130870D01*
X168165370Y-90097387D01*
X168207909Y-90095614D01*
X168358955Y-90115500D01*
X168358962Y-90115500D01*
X181091038Y-90115500D01*
X181091045Y-90115500D01*
X181321149Y-90085206D01*
X181545330Y-90025137D01*
X181759752Y-89936320D01*
X181949379Y-89826840D01*
X181960743Y-89820279D01*
X181960747Y-89820277D01*
X182077705Y-89730531D01*
X182114870Y-89710976D01*
X182181799Y-89689231D01*
X182385228Y-89585579D01*
X182569937Y-89451379D01*
X182731379Y-89289937D01*
X182865579Y-89105228D01*
X182869514Y-89097504D01*
X182917486Y-89046708D01*
X182985307Y-89029911D01*
X183051442Y-89052446D01*
G37*
%TD.AperFunction*%
%TA.AperFunction,Conductor*%
G36*
X106270809Y-83705185D02*
G01*
X106316564Y-83757989D01*
X106326508Y-83827147D01*
X106297483Y-83890703D01*
X106291451Y-83897181D01*
X101677181Y-88511451D01*
X101615858Y-88544936D01*
X101546166Y-88539952D01*
X101490233Y-88498080D01*
X101465816Y-88432616D01*
X101465500Y-88423770D01*
X101465500Y-83809500D01*
X101485185Y-83742461D01*
X101537989Y-83696706D01*
X101589500Y-83685500D01*
X106203770Y-83685500D01*
X106270809Y-83705185D01*
G37*
%TD.AperFunction*%
%TD*%
M02*
