%TF.GenerationSoftware,KiCad,Pcbnew,8.0.3*%
%TF.CreationDate,2024-08-31T13:36:08+09:00*%
%TF.ProjectId,Altair_Remote_Emergency_Stop_V1,416c7461-6972-45f5-9265-6d6f74655f45,rev?*%
%TF.SameCoordinates,Original*%
%TF.FileFunction,Legend,Top*%
%TF.FilePolarity,Positive*%
%FSLAX46Y46*%
G04 Gerber Fmt 4.6, Leading zero omitted, Abs format (unit mm)*
G04 Created by KiCad (PCBNEW 8.0.3) date 2024-08-31 13:36:08*
%MOMM*%
%LPD*%
G01*
G04 APERTURE LIST*
%ADD10C,0.100000*%
%ADD11C,0.150000*%
%ADD12C,0.000000*%
%ADD13C,0.120000*%
G04 APERTURE END LIST*
D10*
X152656265Y-131666704D02*
X153132455Y-131666704D01*
X152561027Y-131952419D02*
X152894360Y-130952419D01*
X152894360Y-130952419D02*
X153227693Y-131952419D01*
X153703884Y-131952419D02*
X153608646Y-131904800D01*
X153608646Y-131904800D02*
X153561027Y-131809561D01*
X153561027Y-131809561D02*
X153561027Y-130952419D01*
X153941980Y-131285752D02*
X154322932Y-131285752D01*
X154084837Y-130952419D02*
X154084837Y-131809561D01*
X154084837Y-131809561D02*
X154132456Y-131904800D01*
X154132456Y-131904800D02*
X154227694Y-131952419D01*
X154227694Y-131952419D02*
X154322932Y-131952419D01*
X155084837Y-131952419D02*
X155084837Y-131428609D01*
X155084837Y-131428609D02*
X155037218Y-131333371D01*
X155037218Y-131333371D02*
X154941980Y-131285752D01*
X154941980Y-131285752D02*
X154751504Y-131285752D01*
X154751504Y-131285752D02*
X154656266Y-131333371D01*
X155084837Y-131904800D02*
X154989599Y-131952419D01*
X154989599Y-131952419D02*
X154751504Y-131952419D01*
X154751504Y-131952419D02*
X154656266Y-131904800D01*
X154656266Y-131904800D02*
X154608647Y-131809561D01*
X154608647Y-131809561D02*
X154608647Y-131714323D01*
X154608647Y-131714323D02*
X154656266Y-131619085D01*
X154656266Y-131619085D02*
X154751504Y-131571466D01*
X154751504Y-131571466D02*
X154989599Y-131571466D01*
X154989599Y-131571466D02*
X155084837Y-131523847D01*
X155561028Y-131952419D02*
X155561028Y-131285752D01*
X155561028Y-130952419D02*
X155513409Y-131000038D01*
X155513409Y-131000038D02*
X155561028Y-131047657D01*
X155561028Y-131047657D02*
X155608647Y-131000038D01*
X155608647Y-131000038D02*
X155561028Y-130952419D01*
X155561028Y-130952419D02*
X155561028Y-131047657D01*
X156037218Y-131952419D02*
X156037218Y-131285752D01*
X156037218Y-131476228D02*
X156084837Y-131380990D01*
X156084837Y-131380990D02*
X156132456Y-131333371D01*
X156132456Y-131333371D02*
X156227694Y-131285752D01*
X156227694Y-131285752D02*
X156322932Y-131285752D01*
X156418171Y-132047657D02*
X157180075Y-132047657D01*
X157989599Y-131952419D02*
X157656266Y-131476228D01*
X157418171Y-131952419D02*
X157418171Y-130952419D01*
X157418171Y-130952419D02*
X157799123Y-130952419D01*
X157799123Y-130952419D02*
X157894361Y-131000038D01*
X157894361Y-131000038D02*
X157941980Y-131047657D01*
X157941980Y-131047657D02*
X157989599Y-131142895D01*
X157989599Y-131142895D02*
X157989599Y-131285752D01*
X157989599Y-131285752D02*
X157941980Y-131380990D01*
X157941980Y-131380990D02*
X157894361Y-131428609D01*
X157894361Y-131428609D02*
X157799123Y-131476228D01*
X157799123Y-131476228D02*
X157418171Y-131476228D01*
X158799123Y-131904800D02*
X158703885Y-131952419D01*
X158703885Y-131952419D02*
X158513409Y-131952419D01*
X158513409Y-131952419D02*
X158418171Y-131904800D01*
X158418171Y-131904800D02*
X158370552Y-131809561D01*
X158370552Y-131809561D02*
X158370552Y-131428609D01*
X158370552Y-131428609D02*
X158418171Y-131333371D01*
X158418171Y-131333371D02*
X158513409Y-131285752D01*
X158513409Y-131285752D02*
X158703885Y-131285752D01*
X158703885Y-131285752D02*
X158799123Y-131333371D01*
X158799123Y-131333371D02*
X158846742Y-131428609D01*
X158846742Y-131428609D02*
X158846742Y-131523847D01*
X158846742Y-131523847D02*
X158370552Y-131619085D01*
X159275314Y-131952419D02*
X159275314Y-131285752D01*
X159275314Y-131380990D02*
X159322933Y-131333371D01*
X159322933Y-131333371D02*
X159418171Y-131285752D01*
X159418171Y-131285752D02*
X159561028Y-131285752D01*
X159561028Y-131285752D02*
X159656266Y-131333371D01*
X159656266Y-131333371D02*
X159703885Y-131428609D01*
X159703885Y-131428609D02*
X159703885Y-131952419D01*
X159703885Y-131428609D02*
X159751504Y-131333371D01*
X159751504Y-131333371D02*
X159846742Y-131285752D01*
X159846742Y-131285752D02*
X159989599Y-131285752D01*
X159989599Y-131285752D02*
X160084838Y-131333371D01*
X160084838Y-131333371D02*
X160132457Y-131428609D01*
X160132457Y-131428609D02*
X160132457Y-131952419D01*
X160751504Y-131952419D02*
X160656266Y-131904800D01*
X160656266Y-131904800D02*
X160608647Y-131857180D01*
X160608647Y-131857180D02*
X160561028Y-131761942D01*
X160561028Y-131761942D02*
X160561028Y-131476228D01*
X160561028Y-131476228D02*
X160608647Y-131380990D01*
X160608647Y-131380990D02*
X160656266Y-131333371D01*
X160656266Y-131333371D02*
X160751504Y-131285752D01*
X160751504Y-131285752D02*
X160894361Y-131285752D01*
X160894361Y-131285752D02*
X160989599Y-131333371D01*
X160989599Y-131333371D02*
X161037218Y-131380990D01*
X161037218Y-131380990D02*
X161084837Y-131476228D01*
X161084837Y-131476228D02*
X161084837Y-131761942D01*
X161084837Y-131761942D02*
X161037218Y-131857180D01*
X161037218Y-131857180D02*
X160989599Y-131904800D01*
X160989599Y-131904800D02*
X160894361Y-131952419D01*
X160894361Y-131952419D02*
X160751504Y-131952419D01*
X161370552Y-131285752D02*
X161751504Y-131285752D01*
X161513409Y-130952419D02*
X161513409Y-131809561D01*
X161513409Y-131809561D02*
X161561028Y-131904800D01*
X161561028Y-131904800D02*
X161656266Y-131952419D01*
X161656266Y-131952419D02*
X161751504Y-131952419D01*
X162465790Y-131904800D02*
X162370552Y-131952419D01*
X162370552Y-131952419D02*
X162180076Y-131952419D01*
X162180076Y-131952419D02*
X162084838Y-131904800D01*
X162084838Y-131904800D02*
X162037219Y-131809561D01*
X162037219Y-131809561D02*
X162037219Y-131428609D01*
X162037219Y-131428609D02*
X162084838Y-131333371D01*
X162084838Y-131333371D02*
X162180076Y-131285752D01*
X162180076Y-131285752D02*
X162370552Y-131285752D01*
X162370552Y-131285752D02*
X162465790Y-131333371D01*
X162465790Y-131333371D02*
X162513409Y-131428609D01*
X162513409Y-131428609D02*
X162513409Y-131523847D01*
X162513409Y-131523847D02*
X162037219Y-131619085D01*
X162703886Y-132047657D02*
X163465790Y-132047657D01*
X163703886Y-131428609D02*
X164037219Y-131428609D01*
X164180076Y-131952419D02*
X163703886Y-131952419D01*
X163703886Y-131952419D02*
X163703886Y-130952419D01*
X163703886Y-130952419D02*
X164180076Y-130952419D01*
X164608648Y-131952419D02*
X164608648Y-131285752D01*
X164608648Y-131380990D02*
X164656267Y-131333371D01*
X164656267Y-131333371D02*
X164751505Y-131285752D01*
X164751505Y-131285752D02*
X164894362Y-131285752D01*
X164894362Y-131285752D02*
X164989600Y-131333371D01*
X164989600Y-131333371D02*
X165037219Y-131428609D01*
X165037219Y-131428609D02*
X165037219Y-131952419D01*
X165037219Y-131428609D02*
X165084838Y-131333371D01*
X165084838Y-131333371D02*
X165180076Y-131285752D01*
X165180076Y-131285752D02*
X165322933Y-131285752D01*
X165322933Y-131285752D02*
X165418172Y-131333371D01*
X165418172Y-131333371D02*
X165465791Y-131428609D01*
X165465791Y-131428609D02*
X165465791Y-131952419D01*
X166322933Y-131904800D02*
X166227695Y-131952419D01*
X166227695Y-131952419D02*
X166037219Y-131952419D01*
X166037219Y-131952419D02*
X165941981Y-131904800D01*
X165941981Y-131904800D02*
X165894362Y-131809561D01*
X165894362Y-131809561D02*
X165894362Y-131428609D01*
X165894362Y-131428609D02*
X165941981Y-131333371D01*
X165941981Y-131333371D02*
X166037219Y-131285752D01*
X166037219Y-131285752D02*
X166227695Y-131285752D01*
X166227695Y-131285752D02*
X166322933Y-131333371D01*
X166322933Y-131333371D02*
X166370552Y-131428609D01*
X166370552Y-131428609D02*
X166370552Y-131523847D01*
X166370552Y-131523847D02*
X165894362Y-131619085D01*
X166799124Y-131952419D02*
X166799124Y-131285752D01*
X166799124Y-131476228D02*
X166846743Y-131380990D01*
X166846743Y-131380990D02*
X166894362Y-131333371D01*
X166894362Y-131333371D02*
X166989600Y-131285752D01*
X166989600Y-131285752D02*
X167084838Y-131285752D01*
X167846743Y-131285752D02*
X167846743Y-132095276D01*
X167846743Y-132095276D02*
X167799124Y-132190514D01*
X167799124Y-132190514D02*
X167751505Y-132238133D01*
X167751505Y-132238133D02*
X167656267Y-132285752D01*
X167656267Y-132285752D02*
X167513410Y-132285752D01*
X167513410Y-132285752D02*
X167418172Y-132238133D01*
X167846743Y-131904800D02*
X167751505Y-131952419D01*
X167751505Y-131952419D02*
X167561029Y-131952419D01*
X167561029Y-131952419D02*
X167465791Y-131904800D01*
X167465791Y-131904800D02*
X167418172Y-131857180D01*
X167418172Y-131857180D02*
X167370553Y-131761942D01*
X167370553Y-131761942D02*
X167370553Y-131476228D01*
X167370553Y-131476228D02*
X167418172Y-131380990D01*
X167418172Y-131380990D02*
X167465791Y-131333371D01*
X167465791Y-131333371D02*
X167561029Y-131285752D01*
X167561029Y-131285752D02*
X167751505Y-131285752D01*
X167751505Y-131285752D02*
X167846743Y-131333371D01*
X168703886Y-131904800D02*
X168608648Y-131952419D01*
X168608648Y-131952419D02*
X168418172Y-131952419D01*
X168418172Y-131952419D02*
X168322934Y-131904800D01*
X168322934Y-131904800D02*
X168275315Y-131809561D01*
X168275315Y-131809561D02*
X168275315Y-131428609D01*
X168275315Y-131428609D02*
X168322934Y-131333371D01*
X168322934Y-131333371D02*
X168418172Y-131285752D01*
X168418172Y-131285752D02*
X168608648Y-131285752D01*
X168608648Y-131285752D02*
X168703886Y-131333371D01*
X168703886Y-131333371D02*
X168751505Y-131428609D01*
X168751505Y-131428609D02*
X168751505Y-131523847D01*
X168751505Y-131523847D02*
X168275315Y-131619085D01*
X169180077Y-131285752D02*
X169180077Y-131952419D01*
X169180077Y-131380990D02*
X169227696Y-131333371D01*
X169227696Y-131333371D02*
X169322934Y-131285752D01*
X169322934Y-131285752D02*
X169465791Y-131285752D01*
X169465791Y-131285752D02*
X169561029Y-131333371D01*
X169561029Y-131333371D02*
X169608648Y-131428609D01*
X169608648Y-131428609D02*
X169608648Y-131952419D01*
X170513410Y-131904800D02*
X170418172Y-131952419D01*
X170418172Y-131952419D02*
X170227696Y-131952419D01*
X170227696Y-131952419D02*
X170132458Y-131904800D01*
X170132458Y-131904800D02*
X170084839Y-131857180D01*
X170084839Y-131857180D02*
X170037220Y-131761942D01*
X170037220Y-131761942D02*
X170037220Y-131476228D01*
X170037220Y-131476228D02*
X170084839Y-131380990D01*
X170084839Y-131380990D02*
X170132458Y-131333371D01*
X170132458Y-131333371D02*
X170227696Y-131285752D01*
X170227696Y-131285752D02*
X170418172Y-131285752D01*
X170418172Y-131285752D02*
X170513410Y-131333371D01*
X170846744Y-131285752D02*
X171084839Y-131952419D01*
X171322934Y-131285752D02*
X171084839Y-131952419D01*
X171084839Y-131952419D02*
X170989601Y-132190514D01*
X170989601Y-132190514D02*
X170941982Y-132238133D01*
X170941982Y-132238133D02*
X170846744Y-132285752D01*
X171465792Y-132047657D02*
X172227696Y-132047657D01*
X172418173Y-131904800D02*
X172561030Y-131952419D01*
X172561030Y-131952419D02*
X172799125Y-131952419D01*
X172799125Y-131952419D02*
X172894363Y-131904800D01*
X172894363Y-131904800D02*
X172941982Y-131857180D01*
X172941982Y-131857180D02*
X172989601Y-131761942D01*
X172989601Y-131761942D02*
X172989601Y-131666704D01*
X172989601Y-131666704D02*
X172941982Y-131571466D01*
X172941982Y-131571466D02*
X172894363Y-131523847D01*
X172894363Y-131523847D02*
X172799125Y-131476228D01*
X172799125Y-131476228D02*
X172608649Y-131428609D01*
X172608649Y-131428609D02*
X172513411Y-131380990D01*
X172513411Y-131380990D02*
X172465792Y-131333371D01*
X172465792Y-131333371D02*
X172418173Y-131238133D01*
X172418173Y-131238133D02*
X172418173Y-131142895D01*
X172418173Y-131142895D02*
X172465792Y-131047657D01*
X172465792Y-131047657D02*
X172513411Y-131000038D01*
X172513411Y-131000038D02*
X172608649Y-130952419D01*
X172608649Y-130952419D02*
X172846744Y-130952419D01*
X172846744Y-130952419D02*
X172989601Y-131000038D01*
X173275316Y-131285752D02*
X173656268Y-131285752D01*
X173418173Y-130952419D02*
X173418173Y-131809561D01*
X173418173Y-131809561D02*
X173465792Y-131904800D01*
X173465792Y-131904800D02*
X173561030Y-131952419D01*
X173561030Y-131952419D02*
X173656268Y-131952419D01*
X174132459Y-131952419D02*
X174037221Y-131904800D01*
X174037221Y-131904800D02*
X173989602Y-131857180D01*
X173989602Y-131857180D02*
X173941983Y-131761942D01*
X173941983Y-131761942D02*
X173941983Y-131476228D01*
X173941983Y-131476228D02*
X173989602Y-131380990D01*
X173989602Y-131380990D02*
X174037221Y-131333371D01*
X174037221Y-131333371D02*
X174132459Y-131285752D01*
X174132459Y-131285752D02*
X174275316Y-131285752D01*
X174275316Y-131285752D02*
X174370554Y-131333371D01*
X174370554Y-131333371D02*
X174418173Y-131380990D01*
X174418173Y-131380990D02*
X174465792Y-131476228D01*
X174465792Y-131476228D02*
X174465792Y-131761942D01*
X174465792Y-131761942D02*
X174418173Y-131857180D01*
X174418173Y-131857180D02*
X174370554Y-131904800D01*
X174370554Y-131904800D02*
X174275316Y-131952419D01*
X174275316Y-131952419D02*
X174132459Y-131952419D01*
X174894364Y-131285752D02*
X174894364Y-132285752D01*
X174894364Y-131333371D02*
X174989602Y-131285752D01*
X174989602Y-131285752D02*
X175180078Y-131285752D01*
X175180078Y-131285752D02*
X175275316Y-131333371D01*
X175275316Y-131333371D02*
X175322935Y-131380990D01*
X175322935Y-131380990D02*
X175370554Y-131476228D01*
X175370554Y-131476228D02*
X175370554Y-131761942D01*
X175370554Y-131761942D02*
X175322935Y-131857180D01*
X175322935Y-131857180D02*
X175275316Y-131904800D01*
X175275316Y-131904800D02*
X175180078Y-131952419D01*
X175180078Y-131952419D02*
X174989602Y-131952419D01*
X174989602Y-131952419D02*
X174894364Y-131904800D01*
X175561031Y-132047657D02*
X176322935Y-132047657D01*
X176418174Y-130952419D02*
X176751507Y-131952419D01*
X176751507Y-131952419D02*
X177084840Y-130952419D01*
X177941983Y-131952419D02*
X177370555Y-131952419D01*
X177656269Y-131952419D02*
X177656269Y-130952419D01*
X177656269Y-130952419D02*
X177561031Y-131095276D01*
X177561031Y-131095276D02*
X177465793Y-131190514D01*
X177465793Y-131190514D02*
X177370555Y-131238133D01*
D11*
X164919819Y-90971666D02*
X164443628Y-91304999D01*
X164919819Y-91543094D02*
X163919819Y-91543094D01*
X163919819Y-91543094D02*
X163919819Y-91162142D01*
X163919819Y-91162142D02*
X163967438Y-91066904D01*
X163967438Y-91066904D02*
X164015057Y-91019285D01*
X164015057Y-91019285D02*
X164110295Y-90971666D01*
X164110295Y-90971666D02*
X164253152Y-90971666D01*
X164253152Y-90971666D02*
X164348390Y-91019285D01*
X164348390Y-91019285D02*
X164396009Y-91066904D01*
X164396009Y-91066904D02*
X164443628Y-91162142D01*
X164443628Y-91162142D02*
X164443628Y-91543094D01*
X163919819Y-90638332D02*
X163919819Y-90019285D01*
X163919819Y-90019285D02*
X164300771Y-90352618D01*
X164300771Y-90352618D02*
X164300771Y-90209761D01*
X164300771Y-90209761D02*
X164348390Y-90114523D01*
X164348390Y-90114523D02*
X164396009Y-90066904D01*
X164396009Y-90066904D02*
X164491247Y-90019285D01*
X164491247Y-90019285D02*
X164729342Y-90019285D01*
X164729342Y-90019285D02*
X164824580Y-90066904D01*
X164824580Y-90066904D02*
X164872200Y-90114523D01*
X164872200Y-90114523D02*
X164919819Y-90209761D01*
X164919819Y-90209761D02*
X164919819Y-90495475D01*
X164919819Y-90495475D02*
X164872200Y-90590713D01*
X164872200Y-90590713D02*
X164824580Y-90638332D01*
X127359580Y-110021666D02*
X127407200Y-110069285D01*
X127407200Y-110069285D02*
X127454819Y-110212142D01*
X127454819Y-110212142D02*
X127454819Y-110307380D01*
X127454819Y-110307380D02*
X127407200Y-110450237D01*
X127407200Y-110450237D02*
X127311961Y-110545475D01*
X127311961Y-110545475D02*
X127216723Y-110593094D01*
X127216723Y-110593094D02*
X127026247Y-110640713D01*
X127026247Y-110640713D02*
X126883390Y-110640713D01*
X126883390Y-110640713D02*
X126692914Y-110593094D01*
X126692914Y-110593094D02*
X126597676Y-110545475D01*
X126597676Y-110545475D02*
X126502438Y-110450237D01*
X126502438Y-110450237D02*
X126454819Y-110307380D01*
X126454819Y-110307380D02*
X126454819Y-110212142D01*
X126454819Y-110212142D02*
X126502438Y-110069285D01*
X126502438Y-110069285D02*
X126550057Y-110021666D01*
X127454819Y-109545475D02*
X127454819Y-109354999D01*
X127454819Y-109354999D02*
X127407200Y-109259761D01*
X127407200Y-109259761D02*
X127359580Y-109212142D01*
X127359580Y-109212142D02*
X127216723Y-109116904D01*
X127216723Y-109116904D02*
X127026247Y-109069285D01*
X127026247Y-109069285D02*
X126645295Y-109069285D01*
X126645295Y-109069285D02*
X126550057Y-109116904D01*
X126550057Y-109116904D02*
X126502438Y-109164523D01*
X126502438Y-109164523D02*
X126454819Y-109259761D01*
X126454819Y-109259761D02*
X126454819Y-109450237D01*
X126454819Y-109450237D02*
X126502438Y-109545475D01*
X126502438Y-109545475D02*
X126550057Y-109593094D01*
X126550057Y-109593094D02*
X126645295Y-109640713D01*
X126645295Y-109640713D02*
X126883390Y-109640713D01*
X126883390Y-109640713D02*
X126978628Y-109593094D01*
X126978628Y-109593094D02*
X127026247Y-109545475D01*
X127026247Y-109545475D02*
X127073866Y-109450237D01*
X127073866Y-109450237D02*
X127073866Y-109259761D01*
X127073866Y-109259761D02*
X127026247Y-109164523D01*
X127026247Y-109164523D02*
X126978628Y-109116904D01*
X126978628Y-109116904D02*
X126883390Y-109069285D01*
X151828333Y-115243793D02*
X151495000Y-114767602D01*
X151256905Y-115243793D02*
X151256905Y-114243793D01*
X151256905Y-114243793D02*
X151637857Y-114243793D01*
X151637857Y-114243793D02*
X151733095Y-114291412D01*
X151733095Y-114291412D02*
X151780714Y-114339031D01*
X151780714Y-114339031D02*
X151828333Y-114434269D01*
X151828333Y-114434269D02*
X151828333Y-114577126D01*
X151828333Y-114577126D02*
X151780714Y-114672364D01*
X151780714Y-114672364D02*
X151733095Y-114719983D01*
X151733095Y-114719983D02*
X151637857Y-114767602D01*
X151637857Y-114767602D02*
X151256905Y-114767602D01*
X152685476Y-114243793D02*
X152495000Y-114243793D01*
X152495000Y-114243793D02*
X152399762Y-114291412D01*
X152399762Y-114291412D02*
X152352143Y-114339031D01*
X152352143Y-114339031D02*
X152256905Y-114481888D01*
X152256905Y-114481888D02*
X152209286Y-114672364D01*
X152209286Y-114672364D02*
X152209286Y-115053316D01*
X152209286Y-115053316D02*
X152256905Y-115148554D01*
X152256905Y-115148554D02*
X152304524Y-115196174D01*
X152304524Y-115196174D02*
X152399762Y-115243793D01*
X152399762Y-115243793D02*
X152590238Y-115243793D01*
X152590238Y-115243793D02*
X152685476Y-115196174D01*
X152685476Y-115196174D02*
X152733095Y-115148554D01*
X152733095Y-115148554D02*
X152780714Y-115053316D01*
X152780714Y-115053316D02*
X152780714Y-114815221D01*
X152780714Y-114815221D02*
X152733095Y-114719983D01*
X152733095Y-114719983D02*
X152685476Y-114672364D01*
X152685476Y-114672364D02*
X152590238Y-114624745D01*
X152590238Y-114624745D02*
X152399762Y-114624745D01*
X152399762Y-114624745D02*
X152304524Y-114672364D01*
X152304524Y-114672364D02*
X152256905Y-114719983D01*
X152256905Y-114719983D02*
X152209286Y-114815221D01*
X109944819Y-89868333D02*
X110659104Y-89868333D01*
X110659104Y-89868333D02*
X110801961Y-89915952D01*
X110801961Y-89915952D02*
X110897200Y-90011190D01*
X110897200Y-90011190D02*
X110944819Y-90154047D01*
X110944819Y-90154047D02*
X110944819Y-90249285D01*
X110944819Y-88868333D02*
X110944819Y-89439761D01*
X110944819Y-89154047D02*
X109944819Y-89154047D01*
X109944819Y-89154047D02*
X110087676Y-89249285D01*
X110087676Y-89249285D02*
X110182914Y-89344523D01*
X110182914Y-89344523D02*
X110230533Y-89439761D01*
X126184819Y-97598094D02*
X125184819Y-97598094D01*
X125184819Y-97598094D02*
X125184819Y-97359999D01*
X125184819Y-97359999D02*
X125232438Y-97217142D01*
X125232438Y-97217142D02*
X125327676Y-97121904D01*
X125327676Y-97121904D02*
X125422914Y-97074285D01*
X125422914Y-97074285D02*
X125613390Y-97026666D01*
X125613390Y-97026666D02*
X125756247Y-97026666D01*
X125756247Y-97026666D02*
X125946723Y-97074285D01*
X125946723Y-97074285D02*
X126041961Y-97121904D01*
X126041961Y-97121904D02*
X126137200Y-97217142D01*
X126137200Y-97217142D02*
X126184819Y-97359999D01*
X126184819Y-97359999D02*
X126184819Y-97598094D01*
X125518152Y-96169523D02*
X126184819Y-96169523D01*
X125137200Y-96407618D02*
X125851485Y-96645713D01*
X125851485Y-96645713D02*
X125851485Y-96026666D01*
X140803333Y-96775204D02*
X140470000Y-96299013D01*
X140231905Y-96775204D02*
X140231905Y-95775204D01*
X140231905Y-95775204D02*
X140612857Y-95775204D01*
X140612857Y-95775204D02*
X140708095Y-95822823D01*
X140708095Y-95822823D02*
X140755714Y-95870442D01*
X140755714Y-95870442D02*
X140803333Y-95965680D01*
X140803333Y-95965680D02*
X140803333Y-96108537D01*
X140803333Y-96108537D02*
X140755714Y-96203775D01*
X140755714Y-96203775D02*
X140708095Y-96251394D01*
X140708095Y-96251394D02*
X140612857Y-96299013D01*
X140612857Y-96299013D02*
X140231905Y-96299013D01*
X141708095Y-95775204D02*
X141231905Y-95775204D01*
X141231905Y-95775204D02*
X141184286Y-96251394D01*
X141184286Y-96251394D02*
X141231905Y-96203775D01*
X141231905Y-96203775D02*
X141327143Y-96156156D01*
X141327143Y-96156156D02*
X141565238Y-96156156D01*
X141565238Y-96156156D02*
X141660476Y-96203775D01*
X141660476Y-96203775D02*
X141708095Y-96251394D01*
X141708095Y-96251394D02*
X141755714Y-96346632D01*
X141755714Y-96346632D02*
X141755714Y-96584727D01*
X141755714Y-96584727D02*
X141708095Y-96679965D01*
X141708095Y-96679965D02*
X141660476Y-96727585D01*
X141660476Y-96727585D02*
X141565238Y-96775204D01*
X141565238Y-96775204D02*
X141327143Y-96775204D01*
X141327143Y-96775204D02*
X141231905Y-96727585D01*
X141231905Y-96727585D02*
X141184286Y-96679965D01*
X121644580Y-97956666D02*
X121692200Y-98004285D01*
X121692200Y-98004285D02*
X121739819Y-98147142D01*
X121739819Y-98147142D02*
X121739819Y-98242380D01*
X121739819Y-98242380D02*
X121692200Y-98385237D01*
X121692200Y-98385237D02*
X121596961Y-98480475D01*
X121596961Y-98480475D02*
X121501723Y-98528094D01*
X121501723Y-98528094D02*
X121311247Y-98575713D01*
X121311247Y-98575713D02*
X121168390Y-98575713D01*
X121168390Y-98575713D02*
X120977914Y-98528094D01*
X120977914Y-98528094D02*
X120882676Y-98480475D01*
X120882676Y-98480475D02*
X120787438Y-98385237D01*
X120787438Y-98385237D02*
X120739819Y-98242380D01*
X120739819Y-98242380D02*
X120739819Y-98147142D01*
X120739819Y-98147142D02*
X120787438Y-98004285D01*
X120787438Y-98004285D02*
X120835057Y-97956666D01*
X121073152Y-97099523D02*
X121739819Y-97099523D01*
X120692200Y-97337618D02*
X121406485Y-97575713D01*
X121406485Y-97575713D02*
X121406485Y-96956666D01*
X186739093Y-110935350D02*
X187453378Y-110935350D01*
X187453378Y-110935350D02*
X187596235Y-110982969D01*
X187596235Y-110982969D02*
X187691474Y-111078207D01*
X187691474Y-111078207D02*
X187739093Y-111221064D01*
X187739093Y-111221064D02*
X187739093Y-111316302D01*
X186834331Y-110506778D02*
X186786712Y-110459159D01*
X186786712Y-110459159D02*
X186739093Y-110363921D01*
X186739093Y-110363921D02*
X186739093Y-110125826D01*
X186739093Y-110125826D02*
X186786712Y-110030588D01*
X186786712Y-110030588D02*
X186834331Y-109982969D01*
X186834331Y-109982969D02*
X186929569Y-109935350D01*
X186929569Y-109935350D02*
X187024807Y-109935350D01*
X187024807Y-109935350D02*
X187167664Y-109982969D01*
X187167664Y-109982969D02*
X187739093Y-110554397D01*
X187739093Y-110554397D02*
X187739093Y-109935350D01*
X181129700Y-105371428D02*
X181129700Y-104228571D01*
X181701128Y-104799999D02*
X180558271Y-104799999D01*
X181088866Y-117480951D02*
X181088866Y-116719047D01*
X158941905Y-129134819D02*
X158941905Y-128134819D01*
X158941905Y-128134819D02*
X159180000Y-128134819D01*
X159180000Y-128134819D02*
X159322857Y-128182438D01*
X159322857Y-128182438D02*
X159418095Y-128277676D01*
X159418095Y-128277676D02*
X159465714Y-128372914D01*
X159465714Y-128372914D02*
X159513333Y-128563390D01*
X159513333Y-128563390D02*
X159513333Y-128706247D01*
X159513333Y-128706247D02*
X159465714Y-128896723D01*
X159465714Y-128896723D02*
X159418095Y-128991961D01*
X159418095Y-128991961D02*
X159322857Y-129087200D01*
X159322857Y-129087200D02*
X159180000Y-129134819D01*
X159180000Y-129134819D02*
X158941905Y-129134819D01*
X159846667Y-128134819D02*
X160465714Y-128134819D01*
X160465714Y-128134819D02*
X160132381Y-128515771D01*
X160132381Y-128515771D02*
X160275238Y-128515771D01*
X160275238Y-128515771D02*
X160370476Y-128563390D01*
X160370476Y-128563390D02*
X160418095Y-128611009D01*
X160418095Y-128611009D02*
X160465714Y-128706247D01*
X160465714Y-128706247D02*
X160465714Y-128944342D01*
X160465714Y-128944342D02*
X160418095Y-129039580D01*
X160418095Y-129039580D02*
X160370476Y-129087200D01*
X160370476Y-129087200D02*
X160275238Y-129134819D01*
X160275238Y-129134819D02*
X159989524Y-129134819D01*
X159989524Y-129134819D02*
X159894286Y-129087200D01*
X159894286Y-129087200D02*
X159846667Y-129039580D01*
X114085623Y-126228522D02*
X114799908Y-126228522D01*
X114799908Y-126228522D02*
X114942765Y-126276141D01*
X114942765Y-126276141D02*
X115038004Y-126371379D01*
X115038004Y-126371379D02*
X115085623Y-126514236D01*
X115085623Y-126514236D02*
X115085623Y-126609474D01*
X114418956Y-125323760D02*
X115085623Y-125323760D01*
X114038004Y-125561855D02*
X114752289Y-125799950D01*
X114752289Y-125799950D02*
X114752289Y-125180903D01*
X117809700Y-120971428D02*
X117809700Y-119828571D01*
X118381128Y-120399999D02*
X117238271Y-120399999D01*
X117809700Y-131971428D02*
X117809700Y-130828571D01*
X173391667Y-91252200D02*
X173534524Y-91299819D01*
X173534524Y-91299819D02*
X173772619Y-91299819D01*
X173772619Y-91299819D02*
X173867857Y-91252200D01*
X173867857Y-91252200D02*
X173915476Y-91204580D01*
X173915476Y-91204580D02*
X173963095Y-91109342D01*
X173963095Y-91109342D02*
X173963095Y-91014104D01*
X173963095Y-91014104D02*
X173915476Y-90918866D01*
X173915476Y-90918866D02*
X173867857Y-90871247D01*
X173867857Y-90871247D02*
X173772619Y-90823628D01*
X173772619Y-90823628D02*
X173582143Y-90776009D01*
X173582143Y-90776009D02*
X173486905Y-90728390D01*
X173486905Y-90728390D02*
X173439286Y-90680771D01*
X173439286Y-90680771D02*
X173391667Y-90585533D01*
X173391667Y-90585533D02*
X173391667Y-90490295D01*
X173391667Y-90490295D02*
X173439286Y-90395057D01*
X173439286Y-90395057D02*
X173486905Y-90347438D01*
X173486905Y-90347438D02*
X173582143Y-90299819D01*
X173582143Y-90299819D02*
X173820238Y-90299819D01*
X173820238Y-90299819D02*
X173963095Y-90347438D01*
X174296429Y-90299819D02*
X174534524Y-91299819D01*
X174534524Y-91299819D02*
X174725000Y-90585533D01*
X174725000Y-90585533D02*
X174915476Y-91299819D01*
X174915476Y-91299819D02*
X175153572Y-90299819D01*
X176058333Y-91299819D02*
X175486905Y-91299819D01*
X175772619Y-91299819D02*
X175772619Y-90299819D01*
X175772619Y-90299819D02*
X175677381Y-90442676D01*
X175677381Y-90442676D02*
X175582143Y-90537914D01*
X175582143Y-90537914D02*
X175486905Y-90585533D01*
X101496905Y-99514819D02*
X101496905Y-98514819D01*
X101496905Y-98514819D02*
X101735000Y-98514819D01*
X101735000Y-98514819D02*
X101877857Y-98562438D01*
X101877857Y-98562438D02*
X101973095Y-98657676D01*
X101973095Y-98657676D02*
X102020714Y-98752914D01*
X102020714Y-98752914D02*
X102068333Y-98943390D01*
X102068333Y-98943390D02*
X102068333Y-99086247D01*
X102068333Y-99086247D02*
X102020714Y-99276723D01*
X102020714Y-99276723D02*
X101973095Y-99371961D01*
X101973095Y-99371961D02*
X101877857Y-99467200D01*
X101877857Y-99467200D02*
X101735000Y-99514819D01*
X101735000Y-99514819D02*
X101496905Y-99514819D01*
X103020714Y-99514819D02*
X102449286Y-99514819D01*
X102735000Y-99514819D02*
X102735000Y-98514819D01*
X102735000Y-98514819D02*
X102639762Y-98657676D01*
X102639762Y-98657676D02*
X102544524Y-98752914D01*
X102544524Y-98752914D02*
X102449286Y-98800533D01*
X122248333Y-91324580D02*
X122200714Y-91372200D01*
X122200714Y-91372200D02*
X122057857Y-91419819D01*
X122057857Y-91419819D02*
X121962619Y-91419819D01*
X121962619Y-91419819D02*
X121819762Y-91372200D01*
X121819762Y-91372200D02*
X121724524Y-91276961D01*
X121724524Y-91276961D02*
X121676905Y-91181723D01*
X121676905Y-91181723D02*
X121629286Y-90991247D01*
X121629286Y-90991247D02*
X121629286Y-90848390D01*
X121629286Y-90848390D02*
X121676905Y-90657914D01*
X121676905Y-90657914D02*
X121724524Y-90562676D01*
X121724524Y-90562676D02*
X121819762Y-90467438D01*
X121819762Y-90467438D02*
X121962619Y-90419819D01*
X121962619Y-90419819D02*
X122057857Y-90419819D01*
X122057857Y-90419819D02*
X122200714Y-90467438D01*
X122200714Y-90467438D02*
X122248333Y-90515057D01*
X122581667Y-90419819D02*
X123200714Y-90419819D01*
X123200714Y-90419819D02*
X122867381Y-90800771D01*
X122867381Y-90800771D02*
X123010238Y-90800771D01*
X123010238Y-90800771D02*
X123105476Y-90848390D01*
X123105476Y-90848390D02*
X123153095Y-90896009D01*
X123153095Y-90896009D02*
X123200714Y-90991247D01*
X123200714Y-90991247D02*
X123200714Y-91229342D01*
X123200714Y-91229342D02*
X123153095Y-91324580D01*
X123153095Y-91324580D02*
X123105476Y-91372200D01*
X123105476Y-91372200D02*
X123010238Y-91419819D01*
X123010238Y-91419819D02*
X122724524Y-91419819D01*
X122724524Y-91419819D02*
X122629286Y-91372200D01*
X122629286Y-91372200D02*
X122581667Y-91324580D01*
X186386230Y-126861566D02*
X187100515Y-126861566D01*
X187100515Y-126861566D02*
X187243372Y-126909185D01*
X187243372Y-126909185D02*
X187338611Y-127004423D01*
X187338611Y-127004423D02*
X187386230Y-127147280D01*
X187386230Y-127147280D02*
X187386230Y-127242518D01*
X186386230Y-125909185D02*
X186386230Y-126385375D01*
X186386230Y-126385375D02*
X186862420Y-126432994D01*
X186862420Y-126432994D02*
X186814801Y-126385375D01*
X186814801Y-126385375D02*
X186767182Y-126290137D01*
X186767182Y-126290137D02*
X186767182Y-126052042D01*
X186767182Y-126052042D02*
X186814801Y-125956804D01*
X186814801Y-125956804D02*
X186862420Y-125909185D01*
X186862420Y-125909185D02*
X186957658Y-125861566D01*
X186957658Y-125861566D02*
X187195753Y-125861566D01*
X187195753Y-125861566D02*
X187290991Y-125909185D01*
X187290991Y-125909185D02*
X187338611Y-125956804D01*
X187338611Y-125956804D02*
X187386230Y-126052042D01*
X187386230Y-126052042D02*
X187386230Y-126290137D01*
X187386230Y-126290137D02*
X187338611Y-126385375D01*
X187338611Y-126385375D02*
X187290991Y-126432994D01*
X183829700Y-121436428D02*
X183829700Y-120293571D01*
X183829700Y-132436428D02*
X183829700Y-131293571D01*
X184401128Y-131864999D02*
X183258271Y-131864999D01*
X122248333Y-101484580D02*
X122200714Y-101532200D01*
X122200714Y-101532200D02*
X122057857Y-101579819D01*
X122057857Y-101579819D02*
X121962619Y-101579819D01*
X121962619Y-101579819D02*
X121819762Y-101532200D01*
X121819762Y-101532200D02*
X121724524Y-101436961D01*
X121724524Y-101436961D02*
X121676905Y-101341723D01*
X121676905Y-101341723D02*
X121629286Y-101151247D01*
X121629286Y-101151247D02*
X121629286Y-101008390D01*
X121629286Y-101008390D02*
X121676905Y-100817914D01*
X121676905Y-100817914D02*
X121724524Y-100722676D01*
X121724524Y-100722676D02*
X121819762Y-100627438D01*
X121819762Y-100627438D02*
X121962619Y-100579819D01*
X121962619Y-100579819D02*
X122057857Y-100579819D01*
X122057857Y-100579819D02*
X122200714Y-100627438D01*
X122200714Y-100627438D02*
X122248333Y-100675057D01*
X123105476Y-100579819D02*
X122915000Y-100579819D01*
X122915000Y-100579819D02*
X122819762Y-100627438D01*
X122819762Y-100627438D02*
X122772143Y-100675057D01*
X122772143Y-100675057D02*
X122676905Y-100817914D01*
X122676905Y-100817914D02*
X122629286Y-101008390D01*
X122629286Y-101008390D02*
X122629286Y-101389342D01*
X122629286Y-101389342D02*
X122676905Y-101484580D01*
X122676905Y-101484580D02*
X122724524Y-101532200D01*
X122724524Y-101532200D02*
X122819762Y-101579819D01*
X122819762Y-101579819D02*
X123010238Y-101579819D01*
X123010238Y-101579819D02*
X123105476Y-101532200D01*
X123105476Y-101532200D02*
X123153095Y-101484580D01*
X123153095Y-101484580D02*
X123200714Y-101389342D01*
X123200714Y-101389342D02*
X123200714Y-101151247D01*
X123200714Y-101151247D02*
X123153095Y-101056009D01*
X123153095Y-101056009D02*
X123105476Y-101008390D01*
X123105476Y-101008390D02*
X123010238Y-100960771D01*
X123010238Y-100960771D02*
X122819762Y-100960771D01*
X122819762Y-100960771D02*
X122724524Y-101008390D01*
X122724524Y-101008390D02*
X122676905Y-101056009D01*
X122676905Y-101056009D02*
X122629286Y-101151247D01*
X110323333Y-99514819D02*
X109990000Y-99038628D01*
X109751905Y-99514819D02*
X109751905Y-98514819D01*
X109751905Y-98514819D02*
X110132857Y-98514819D01*
X110132857Y-98514819D02*
X110228095Y-98562438D01*
X110228095Y-98562438D02*
X110275714Y-98610057D01*
X110275714Y-98610057D02*
X110323333Y-98705295D01*
X110323333Y-98705295D02*
X110323333Y-98848152D01*
X110323333Y-98848152D02*
X110275714Y-98943390D01*
X110275714Y-98943390D02*
X110228095Y-98991009D01*
X110228095Y-98991009D02*
X110132857Y-99038628D01*
X110132857Y-99038628D02*
X109751905Y-99038628D01*
X111275714Y-99514819D02*
X110704286Y-99514819D01*
X110990000Y-99514819D02*
X110990000Y-98514819D01*
X110990000Y-98514819D02*
X110894762Y-98657676D01*
X110894762Y-98657676D02*
X110799524Y-98752914D01*
X110799524Y-98752914D02*
X110704286Y-98800533D01*
X146563333Y-112119580D02*
X146515714Y-112167200D01*
X146515714Y-112167200D02*
X146372857Y-112214819D01*
X146372857Y-112214819D02*
X146277619Y-112214819D01*
X146277619Y-112214819D02*
X146134762Y-112167200D01*
X146134762Y-112167200D02*
X146039524Y-112071961D01*
X146039524Y-112071961D02*
X145991905Y-111976723D01*
X145991905Y-111976723D02*
X145944286Y-111786247D01*
X145944286Y-111786247D02*
X145944286Y-111643390D01*
X145944286Y-111643390D02*
X145991905Y-111452914D01*
X145991905Y-111452914D02*
X146039524Y-111357676D01*
X146039524Y-111357676D02*
X146134762Y-111262438D01*
X146134762Y-111262438D02*
X146277619Y-111214819D01*
X146277619Y-111214819D02*
X146372857Y-111214819D01*
X146372857Y-111214819D02*
X146515714Y-111262438D01*
X146515714Y-111262438D02*
X146563333Y-111310057D01*
X146896667Y-111214819D02*
X147563333Y-111214819D01*
X147563333Y-111214819D02*
X147134762Y-112214819D01*
X164919819Y-99861666D02*
X164443628Y-100194999D01*
X164919819Y-100433094D02*
X163919819Y-100433094D01*
X163919819Y-100433094D02*
X163919819Y-100052142D01*
X163919819Y-100052142D02*
X163967438Y-99956904D01*
X163967438Y-99956904D02*
X164015057Y-99909285D01*
X164015057Y-99909285D02*
X164110295Y-99861666D01*
X164110295Y-99861666D02*
X164253152Y-99861666D01*
X164253152Y-99861666D02*
X164348390Y-99909285D01*
X164348390Y-99909285D02*
X164396009Y-99956904D01*
X164396009Y-99956904D02*
X164443628Y-100052142D01*
X164443628Y-100052142D02*
X164443628Y-100433094D01*
X164015057Y-99480713D02*
X163967438Y-99433094D01*
X163967438Y-99433094D02*
X163919819Y-99337856D01*
X163919819Y-99337856D02*
X163919819Y-99099761D01*
X163919819Y-99099761D02*
X163967438Y-99004523D01*
X163967438Y-99004523D02*
X164015057Y-98956904D01*
X164015057Y-98956904D02*
X164110295Y-98909285D01*
X164110295Y-98909285D02*
X164205533Y-98909285D01*
X164205533Y-98909285D02*
X164348390Y-98956904D01*
X164348390Y-98956904D02*
X164919819Y-99528332D01*
X164919819Y-99528332D02*
X164919819Y-98909285D01*
X127359580Y-126086666D02*
X127407200Y-126134285D01*
X127407200Y-126134285D02*
X127454819Y-126277142D01*
X127454819Y-126277142D02*
X127454819Y-126372380D01*
X127454819Y-126372380D02*
X127407200Y-126515237D01*
X127407200Y-126515237D02*
X127311961Y-126610475D01*
X127311961Y-126610475D02*
X127216723Y-126658094D01*
X127216723Y-126658094D02*
X127026247Y-126705713D01*
X127026247Y-126705713D02*
X126883390Y-126705713D01*
X126883390Y-126705713D02*
X126692914Y-126658094D01*
X126692914Y-126658094D02*
X126597676Y-126610475D01*
X126597676Y-126610475D02*
X126502438Y-126515237D01*
X126502438Y-126515237D02*
X126454819Y-126372380D01*
X126454819Y-126372380D02*
X126454819Y-126277142D01*
X126454819Y-126277142D02*
X126502438Y-126134285D01*
X126502438Y-126134285D02*
X126550057Y-126086666D01*
X126883390Y-125515237D02*
X126835771Y-125610475D01*
X126835771Y-125610475D02*
X126788152Y-125658094D01*
X126788152Y-125658094D02*
X126692914Y-125705713D01*
X126692914Y-125705713D02*
X126645295Y-125705713D01*
X126645295Y-125705713D02*
X126550057Y-125658094D01*
X126550057Y-125658094D02*
X126502438Y-125610475D01*
X126502438Y-125610475D02*
X126454819Y-125515237D01*
X126454819Y-125515237D02*
X126454819Y-125324761D01*
X126454819Y-125324761D02*
X126502438Y-125229523D01*
X126502438Y-125229523D02*
X126550057Y-125181904D01*
X126550057Y-125181904D02*
X126645295Y-125134285D01*
X126645295Y-125134285D02*
X126692914Y-125134285D01*
X126692914Y-125134285D02*
X126788152Y-125181904D01*
X126788152Y-125181904D02*
X126835771Y-125229523D01*
X126835771Y-125229523D02*
X126883390Y-125324761D01*
X126883390Y-125324761D02*
X126883390Y-125515237D01*
X126883390Y-125515237D02*
X126931009Y-125610475D01*
X126931009Y-125610475D02*
X126978628Y-125658094D01*
X126978628Y-125658094D02*
X127073866Y-125705713D01*
X127073866Y-125705713D02*
X127264342Y-125705713D01*
X127264342Y-125705713D02*
X127359580Y-125658094D01*
X127359580Y-125658094D02*
X127407200Y-125610475D01*
X127407200Y-125610475D02*
X127454819Y-125515237D01*
X127454819Y-125515237D02*
X127454819Y-125324761D01*
X127454819Y-125324761D02*
X127407200Y-125229523D01*
X127407200Y-125229523D02*
X127359580Y-125181904D01*
X127359580Y-125181904D02*
X127264342Y-125134285D01*
X127264342Y-125134285D02*
X127073866Y-125134285D01*
X127073866Y-125134285D02*
X126978628Y-125181904D01*
X126978628Y-125181904D02*
X126931009Y-125229523D01*
X126931009Y-125229523D02*
X126883390Y-125324761D01*
X113754819Y-110423333D02*
X114469104Y-110423333D01*
X114469104Y-110423333D02*
X114611961Y-110470952D01*
X114611961Y-110470952D02*
X114707200Y-110566190D01*
X114707200Y-110566190D02*
X114754819Y-110709047D01*
X114754819Y-110709047D02*
X114754819Y-110804285D01*
X113754819Y-110042380D02*
X113754819Y-109423333D01*
X113754819Y-109423333D02*
X114135771Y-109756666D01*
X114135771Y-109756666D02*
X114135771Y-109613809D01*
X114135771Y-109613809D02*
X114183390Y-109518571D01*
X114183390Y-109518571D02*
X114231009Y-109470952D01*
X114231009Y-109470952D02*
X114326247Y-109423333D01*
X114326247Y-109423333D02*
X114564342Y-109423333D01*
X114564342Y-109423333D02*
X114659580Y-109470952D01*
X114659580Y-109470952D02*
X114707200Y-109518571D01*
X114707200Y-109518571D02*
X114754819Y-109613809D01*
X114754819Y-109613809D02*
X114754819Y-109899523D01*
X114754819Y-109899523D02*
X114707200Y-109994761D01*
X114707200Y-109994761D02*
X114659580Y-110042380D01*
X120374700Y-104761428D02*
X120374700Y-103618571D01*
X120946128Y-104189999D02*
X119803271Y-104189999D01*
X120374700Y-117061428D02*
X120374700Y-115918571D01*
X163068095Y-105564819D02*
X163068095Y-106374342D01*
X163068095Y-106374342D02*
X163115714Y-106469580D01*
X163115714Y-106469580D02*
X163163333Y-106517200D01*
X163163333Y-106517200D02*
X163258571Y-106564819D01*
X163258571Y-106564819D02*
X163449047Y-106564819D01*
X163449047Y-106564819D02*
X163544285Y-106517200D01*
X163544285Y-106517200D02*
X163591904Y-106469580D01*
X163591904Y-106469580D02*
X163639523Y-106374342D01*
X163639523Y-106374342D02*
X163639523Y-105564819D01*
X164591904Y-105564819D02*
X164115714Y-105564819D01*
X164115714Y-105564819D02*
X164068095Y-106041009D01*
X164068095Y-106041009D02*
X164115714Y-105993390D01*
X164115714Y-105993390D02*
X164210952Y-105945771D01*
X164210952Y-105945771D02*
X164449047Y-105945771D01*
X164449047Y-105945771D02*
X164544285Y-105993390D01*
X164544285Y-105993390D02*
X164591904Y-106041009D01*
X164591904Y-106041009D02*
X164639523Y-106136247D01*
X164639523Y-106136247D02*
X164639523Y-106374342D01*
X164639523Y-106374342D02*
X164591904Y-106469580D01*
X164591904Y-106469580D02*
X164544285Y-106517200D01*
X164544285Y-106517200D02*
X164449047Y-106564819D01*
X164449047Y-106564819D02*
X164210952Y-106564819D01*
X164210952Y-106564819D02*
X164115714Y-106517200D01*
X164115714Y-106517200D02*
X164068095Y-106469580D01*
X129142693Y-96410410D02*
X129142693Y-97219933D01*
X129142693Y-97219933D02*
X129190312Y-97315171D01*
X129190312Y-97315171D02*
X129237931Y-97362791D01*
X129237931Y-97362791D02*
X129333169Y-97410410D01*
X129333169Y-97410410D02*
X129523645Y-97410410D01*
X129523645Y-97410410D02*
X129618883Y-97362791D01*
X129618883Y-97362791D02*
X129666502Y-97315171D01*
X129666502Y-97315171D02*
X129714121Y-97219933D01*
X129714121Y-97219933D02*
X129714121Y-96410410D01*
X130095074Y-96410410D02*
X130714121Y-96410410D01*
X130714121Y-96410410D02*
X130380788Y-96791362D01*
X130380788Y-96791362D02*
X130523645Y-96791362D01*
X130523645Y-96791362D02*
X130618883Y-96838981D01*
X130618883Y-96838981D02*
X130666502Y-96886600D01*
X130666502Y-96886600D02*
X130714121Y-96981838D01*
X130714121Y-96981838D02*
X130714121Y-97219933D01*
X130714121Y-97219933D02*
X130666502Y-97315171D01*
X130666502Y-97315171D02*
X130618883Y-97362791D01*
X130618883Y-97362791D02*
X130523645Y-97410410D01*
X130523645Y-97410410D02*
X130237931Y-97410410D01*
X130237931Y-97410410D02*
X130142693Y-97362791D01*
X130142693Y-97362791D02*
X130095074Y-97315171D01*
X149679819Y-120181666D02*
X149203628Y-120514999D01*
X149679819Y-120753094D02*
X148679819Y-120753094D01*
X148679819Y-120753094D02*
X148679819Y-120372142D01*
X148679819Y-120372142D02*
X148727438Y-120276904D01*
X148727438Y-120276904D02*
X148775057Y-120229285D01*
X148775057Y-120229285D02*
X148870295Y-120181666D01*
X148870295Y-120181666D02*
X149013152Y-120181666D01*
X149013152Y-120181666D02*
X149108390Y-120229285D01*
X149108390Y-120229285D02*
X149156009Y-120276904D01*
X149156009Y-120276904D02*
X149203628Y-120372142D01*
X149203628Y-120372142D02*
X149203628Y-120753094D01*
X148679819Y-119848332D02*
X148679819Y-119181666D01*
X148679819Y-119181666D02*
X149679819Y-119610237D01*
X123549580Y-87796666D02*
X123597200Y-87844285D01*
X123597200Y-87844285D02*
X123644819Y-87987142D01*
X123644819Y-87987142D02*
X123644819Y-88082380D01*
X123644819Y-88082380D02*
X123597200Y-88225237D01*
X123597200Y-88225237D02*
X123501961Y-88320475D01*
X123501961Y-88320475D02*
X123406723Y-88368094D01*
X123406723Y-88368094D02*
X123216247Y-88415713D01*
X123216247Y-88415713D02*
X123073390Y-88415713D01*
X123073390Y-88415713D02*
X122882914Y-88368094D01*
X122882914Y-88368094D02*
X122787676Y-88320475D01*
X122787676Y-88320475D02*
X122692438Y-88225237D01*
X122692438Y-88225237D02*
X122644819Y-88082380D01*
X122644819Y-88082380D02*
X122644819Y-87987142D01*
X122644819Y-87987142D02*
X122692438Y-87844285D01*
X122692438Y-87844285D02*
X122740057Y-87796666D01*
X123644819Y-86844285D02*
X123644819Y-87415713D01*
X123644819Y-87129999D02*
X122644819Y-87129999D01*
X122644819Y-87129999D02*
X122787676Y-87225237D01*
X122787676Y-87225237D02*
X122882914Y-87320475D01*
X122882914Y-87320475D02*
X122930533Y-87415713D01*
X152133095Y-88694819D02*
X152133095Y-89504342D01*
X152133095Y-89504342D02*
X152180714Y-89599580D01*
X152180714Y-89599580D02*
X152228333Y-89647200D01*
X152228333Y-89647200D02*
X152323571Y-89694819D01*
X152323571Y-89694819D02*
X152514047Y-89694819D01*
X152514047Y-89694819D02*
X152609285Y-89647200D01*
X152609285Y-89647200D02*
X152656904Y-89599580D01*
X152656904Y-89599580D02*
X152704523Y-89504342D01*
X152704523Y-89504342D02*
X152704523Y-88694819D01*
X153704523Y-89694819D02*
X153133095Y-89694819D01*
X153418809Y-89694819D02*
X153418809Y-88694819D01*
X153418809Y-88694819D02*
X153323571Y-88837676D01*
X153323571Y-88837676D02*
X153228333Y-88932914D01*
X153228333Y-88932914D02*
X153133095Y-88980533D01*
X101496905Y-101419819D02*
X101496905Y-100419819D01*
X101496905Y-100419819D02*
X101735000Y-100419819D01*
X101735000Y-100419819D02*
X101877857Y-100467438D01*
X101877857Y-100467438D02*
X101973095Y-100562676D01*
X101973095Y-100562676D02*
X102020714Y-100657914D01*
X102020714Y-100657914D02*
X102068333Y-100848390D01*
X102068333Y-100848390D02*
X102068333Y-100991247D01*
X102068333Y-100991247D02*
X102020714Y-101181723D01*
X102020714Y-101181723D02*
X101973095Y-101276961D01*
X101973095Y-101276961D02*
X101877857Y-101372200D01*
X101877857Y-101372200D02*
X101735000Y-101419819D01*
X101735000Y-101419819D02*
X101496905Y-101419819D01*
X102449286Y-100515057D02*
X102496905Y-100467438D01*
X102496905Y-100467438D02*
X102592143Y-100419819D01*
X102592143Y-100419819D02*
X102830238Y-100419819D01*
X102830238Y-100419819D02*
X102925476Y-100467438D01*
X102925476Y-100467438D02*
X102973095Y-100515057D01*
X102973095Y-100515057D02*
X103020714Y-100610295D01*
X103020714Y-100610295D02*
X103020714Y-100705533D01*
X103020714Y-100705533D02*
X102973095Y-100848390D01*
X102973095Y-100848390D02*
X102401667Y-101419819D01*
X102401667Y-101419819D02*
X103020714Y-101419819D01*
X164039761Y-119295057D02*
X163944523Y-119247438D01*
X163944523Y-119247438D02*
X163849285Y-119152200D01*
X163849285Y-119152200D02*
X163706428Y-119009342D01*
X163706428Y-119009342D02*
X163611190Y-118961723D01*
X163611190Y-118961723D02*
X163515952Y-118961723D01*
X163563571Y-119199819D02*
X163468333Y-119152200D01*
X163468333Y-119152200D02*
X163373095Y-119056961D01*
X163373095Y-119056961D02*
X163325476Y-118866485D01*
X163325476Y-118866485D02*
X163325476Y-118533152D01*
X163325476Y-118533152D02*
X163373095Y-118342676D01*
X163373095Y-118342676D02*
X163468333Y-118247438D01*
X163468333Y-118247438D02*
X163563571Y-118199819D01*
X163563571Y-118199819D02*
X163754047Y-118199819D01*
X163754047Y-118199819D02*
X163849285Y-118247438D01*
X163849285Y-118247438D02*
X163944523Y-118342676D01*
X163944523Y-118342676D02*
X163992142Y-118533152D01*
X163992142Y-118533152D02*
X163992142Y-118866485D01*
X163992142Y-118866485D02*
X163944523Y-119056961D01*
X163944523Y-119056961D02*
X163849285Y-119152200D01*
X163849285Y-119152200D02*
X163754047Y-119199819D01*
X163754047Y-119199819D02*
X163563571Y-119199819D01*
X164944523Y-119199819D02*
X164373095Y-119199819D01*
X164658809Y-119199819D02*
X164658809Y-118199819D01*
X164658809Y-118199819D02*
X164563571Y-118342676D01*
X164563571Y-118342676D02*
X164468333Y-118437914D01*
X164468333Y-118437914D02*
X164373095Y-118485533D01*
X129199849Y-86250862D02*
X129199849Y-87060385D01*
X129199849Y-87060385D02*
X129247468Y-87155623D01*
X129247468Y-87155623D02*
X129295087Y-87203243D01*
X129295087Y-87203243D02*
X129390325Y-87250862D01*
X129390325Y-87250862D02*
X129580801Y-87250862D01*
X129580801Y-87250862D02*
X129676039Y-87203243D01*
X129676039Y-87203243D02*
X129723658Y-87155623D01*
X129723658Y-87155623D02*
X129771277Y-87060385D01*
X129771277Y-87060385D02*
X129771277Y-86250862D01*
X130199849Y-86346100D02*
X130247468Y-86298481D01*
X130247468Y-86298481D02*
X130342706Y-86250862D01*
X130342706Y-86250862D02*
X130580801Y-86250862D01*
X130580801Y-86250862D02*
X130676039Y-86298481D01*
X130676039Y-86298481D02*
X130723658Y-86346100D01*
X130723658Y-86346100D02*
X130771277Y-86441338D01*
X130771277Y-86441338D02*
X130771277Y-86536576D01*
X130771277Y-86536576D02*
X130723658Y-86679433D01*
X130723658Y-86679433D02*
X130152230Y-87250862D01*
X130152230Y-87250862D02*
X130771277Y-87250862D01*
X189901667Y-91252200D02*
X190044524Y-91299819D01*
X190044524Y-91299819D02*
X190282619Y-91299819D01*
X190282619Y-91299819D02*
X190377857Y-91252200D01*
X190377857Y-91252200D02*
X190425476Y-91204580D01*
X190425476Y-91204580D02*
X190473095Y-91109342D01*
X190473095Y-91109342D02*
X190473095Y-91014104D01*
X190473095Y-91014104D02*
X190425476Y-90918866D01*
X190425476Y-90918866D02*
X190377857Y-90871247D01*
X190377857Y-90871247D02*
X190282619Y-90823628D01*
X190282619Y-90823628D02*
X190092143Y-90776009D01*
X190092143Y-90776009D02*
X189996905Y-90728390D01*
X189996905Y-90728390D02*
X189949286Y-90680771D01*
X189949286Y-90680771D02*
X189901667Y-90585533D01*
X189901667Y-90585533D02*
X189901667Y-90490295D01*
X189901667Y-90490295D02*
X189949286Y-90395057D01*
X189949286Y-90395057D02*
X189996905Y-90347438D01*
X189996905Y-90347438D02*
X190092143Y-90299819D01*
X190092143Y-90299819D02*
X190330238Y-90299819D01*
X190330238Y-90299819D02*
X190473095Y-90347438D01*
X190806429Y-90299819D02*
X191044524Y-91299819D01*
X191044524Y-91299819D02*
X191235000Y-90585533D01*
X191235000Y-90585533D02*
X191425476Y-91299819D01*
X191425476Y-91299819D02*
X191663572Y-90299819D01*
X191996905Y-90395057D02*
X192044524Y-90347438D01*
X192044524Y-90347438D02*
X192139762Y-90299819D01*
X192139762Y-90299819D02*
X192377857Y-90299819D01*
X192377857Y-90299819D02*
X192473095Y-90347438D01*
X192473095Y-90347438D02*
X192520714Y-90395057D01*
X192520714Y-90395057D02*
X192568333Y-90490295D01*
X192568333Y-90490295D02*
X192568333Y-90585533D01*
X192568333Y-90585533D02*
X192520714Y-90728390D01*
X192520714Y-90728390D02*
X191949286Y-91299819D01*
X191949286Y-91299819D02*
X192568333Y-91299819D01*
X110323333Y-101419819D02*
X109990000Y-100943628D01*
X109751905Y-101419819D02*
X109751905Y-100419819D01*
X109751905Y-100419819D02*
X110132857Y-100419819D01*
X110132857Y-100419819D02*
X110228095Y-100467438D01*
X110228095Y-100467438D02*
X110275714Y-100515057D01*
X110275714Y-100515057D02*
X110323333Y-100610295D01*
X110323333Y-100610295D02*
X110323333Y-100753152D01*
X110323333Y-100753152D02*
X110275714Y-100848390D01*
X110275714Y-100848390D02*
X110228095Y-100896009D01*
X110228095Y-100896009D02*
X110132857Y-100943628D01*
X110132857Y-100943628D02*
X109751905Y-100943628D01*
X111180476Y-100753152D02*
X111180476Y-101419819D01*
X110942381Y-100372200D02*
X110704286Y-101086485D01*
X110704286Y-101086485D02*
X111323333Y-101086485D01*
X123549580Y-97956666D02*
X123597200Y-98004285D01*
X123597200Y-98004285D02*
X123644819Y-98147142D01*
X123644819Y-98147142D02*
X123644819Y-98242380D01*
X123644819Y-98242380D02*
X123597200Y-98385237D01*
X123597200Y-98385237D02*
X123501961Y-98480475D01*
X123501961Y-98480475D02*
X123406723Y-98528094D01*
X123406723Y-98528094D02*
X123216247Y-98575713D01*
X123216247Y-98575713D02*
X123073390Y-98575713D01*
X123073390Y-98575713D02*
X122882914Y-98528094D01*
X122882914Y-98528094D02*
X122787676Y-98480475D01*
X122787676Y-98480475D02*
X122692438Y-98385237D01*
X122692438Y-98385237D02*
X122644819Y-98242380D01*
X122644819Y-98242380D02*
X122644819Y-98147142D01*
X122644819Y-98147142D02*
X122692438Y-98004285D01*
X122692438Y-98004285D02*
X122740057Y-97956666D01*
X122644819Y-97051904D02*
X122644819Y-97528094D01*
X122644819Y-97528094D02*
X123121009Y-97575713D01*
X123121009Y-97575713D02*
X123073390Y-97528094D01*
X123073390Y-97528094D02*
X123025771Y-97432856D01*
X123025771Y-97432856D02*
X123025771Y-97194761D01*
X123025771Y-97194761D02*
X123073390Y-97099523D01*
X123073390Y-97099523D02*
X123121009Y-97051904D01*
X123121009Y-97051904D02*
X123216247Y-97004285D01*
X123216247Y-97004285D02*
X123454342Y-97004285D01*
X123454342Y-97004285D02*
X123549580Y-97051904D01*
X123549580Y-97051904D02*
X123597200Y-97099523D01*
X123597200Y-97099523D02*
X123644819Y-97194761D01*
X123644819Y-97194761D02*
X123644819Y-97432856D01*
X123644819Y-97432856D02*
X123597200Y-97528094D01*
X123597200Y-97528094D02*
X123549580Y-97575713D01*
X121644580Y-87796666D02*
X121692200Y-87844285D01*
X121692200Y-87844285D02*
X121739819Y-87987142D01*
X121739819Y-87987142D02*
X121739819Y-88082380D01*
X121739819Y-88082380D02*
X121692200Y-88225237D01*
X121692200Y-88225237D02*
X121596961Y-88320475D01*
X121596961Y-88320475D02*
X121501723Y-88368094D01*
X121501723Y-88368094D02*
X121311247Y-88415713D01*
X121311247Y-88415713D02*
X121168390Y-88415713D01*
X121168390Y-88415713D02*
X120977914Y-88368094D01*
X120977914Y-88368094D02*
X120882676Y-88320475D01*
X120882676Y-88320475D02*
X120787438Y-88225237D01*
X120787438Y-88225237D02*
X120739819Y-88082380D01*
X120739819Y-88082380D02*
X120739819Y-87987142D01*
X120739819Y-87987142D02*
X120787438Y-87844285D01*
X120787438Y-87844285D02*
X120835057Y-87796666D01*
X120835057Y-87415713D02*
X120787438Y-87368094D01*
X120787438Y-87368094D02*
X120739819Y-87272856D01*
X120739819Y-87272856D02*
X120739819Y-87034761D01*
X120739819Y-87034761D02*
X120787438Y-86939523D01*
X120787438Y-86939523D02*
X120835057Y-86891904D01*
X120835057Y-86891904D02*
X120930295Y-86844285D01*
X120930295Y-86844285D02*
X121025533Y-86844285D01*
X121025533Y-86844285D02*
X121168390Y-86891904D01*
X121168390Y-86891904D02*
X121739819Y-87463332D01*
X121739819Y-87463332D02*
X121739819Y-86844285D01*
X143568095Y-115659819D02*
X143568095Y-116469342D01*
X143568095Y-116469342D02*
X143615714Y-116564580D01*
X143615714Y-116564580D02*
X143663333Y-116612200D01*
X143663333Y-116612200D02*
X143758571Y-116659819D01*
X143758571Y-116659819D02*
X143949047Y-116659819D01*
X143949047Y-116659819D02*
X144044285Y-116612200D01*
X144044285Y-116612200D02*
X144091904Y-116564580D01*
X144091904Y-116564580D02*
X144139523Y-116469342D01*
X144139523Y-116469342D02*
X144139523Y-115659819D01*
X145044285Y-115993152D02*
X145044285Y-116659819D01*
X144806190Y-115612200D02*
X144568095Y-116326485D01*
X144568095Y-116326485D02*
X145187142Y-116326485D01*
X126184819Y-87438094D02*
X125184819Y-87438094D01*
X125184819Y-87438094D02*
X125184819Y-87199999D01*
X125184819Y-87199999D02*
X125232438Y-87057142D01*
X125232438Y-87057142D02*
X125327676Y-86961904D01*
X125327676Y-86961904D02*
X125422914Y-86914285D01*
X125422914Y-86914285D02*
X125613390Y-86866666D01*
X125613390Y-86866666D02*
X125756247Y-86866666D01*
X125756247Y-86866666D02*
X125946723Y-86914285D01*
X125946723Y-86914285D02*
X126041961Y-86961904D01*
X126041961Y-86961904D02*
X126137200Y-87057142D01*
X126137200Y-87057142D02*
X126184819Y-87199999D01*
X126184819Y-87199999D02*
X126184819Y-87438094D01*
X125184819Y-85961904D02*
X125184819Y-86438094D01*
X125184819Y-86438094D02*
X125661009Y-86485713D01*
X125661009Y-86485713D02*
X125613390Y-86438094D01*
X125613390Y-86438094D02*
X125565771Y-86342856D01*
X125565771Y-86342856D02*
X125565771Y-86104761D01*
X125565771Y-86104761D02*
X125613390Y-86009523D01*
X125613390Y-86009523D02*
X125661009Y-85961904D01*
X125661009Y-85961904D02*
X125756247Y-85914285D01*
X125756247Y-85914285D02*
X125994342Y-85914285D01*
X125994342Y-85914285D02*
X126089580Y-85961904D01*
X126089580Y-85961904D02*
X126137200Y-86009523D01*
X126137200Y-86009523D02*
X126184819Y-86104761D01*
X126184819Y-86104761D02*
X126184819Y-86342856D01*
X126184819Y-86342856D02*
X126137200Y-86438094D01*
X126137200Y-86438094D02*
X126089580Y-86485713D01*
D12*
%TO.C,G\u002A\u002A\u002A*%
G36*
X147498434Y-120748516D02*
G01*
X147622967Y-120781691D01*
X147757203Y-120833800D01*
X147896724Y-120902492D01*
X148037116Y-120985410D01*
X148173963Y-121080203D01*
X148302848Y-121184516D01*
X148399988Y-121276006D01*
X148561224Y-121453937D01*
X148693992Y-121632441D01*
X148799780Y-121814374D01*
X148880075Y-122002591D01*
X148936364Y-122199948D01*
X148964172Y-122359081D01*
X148974633Y-122463401D01*
X148981328Y-122583655D01*
X148984392Y-122713702D01*
X148983959Y-122847401D01*
X148980164Y-122978608D01*
X148973143Y-123101183D01*
X148963030Y-123208984D01*
X148949959Y-123295870D01*
X148942909Y-123327440D01*
X148906728Y-123451670D01*
X148865973Y-123564367D01*
X148822717Y-123660870D01*
X148779030Y-123736517D01*
X148740022Y-123783889D01*
X148720654Y-123804413D01*
X148712509Y-123823839D01*
X148717558Y-123846997D01*
X148737772Y-123878720D01*
X148775124Y-123923841D01*
X148815799Y-123969636D01*
X148874182Y-124038140D01*
X148925726Y-124107209D01*
X148971776Y-124180181D01*
X149013678Y-124260393D01*
X149052775Y-124351183D01*
X149090414Y-124455890D01*
X149127938Y-124577851D01*
X149166694Y-124720403D01*
X149208025Y-124886884D01*
X149239750Y-125021783D01*
X149280049Y-125201132D01*
X149312428Y-125357931D01*
X149337756Y-125498353D01*
X149356903Y-125628573D01*
X149370739Y-125754767D01*
X149380134Y-125883109D01*
X149385959Y-126019774D01*
X149387268Y-126068717D01*
X149389136Y-126237665D01*
X149385667Y-126383300D01*
X149376091Y-126512002D01*
X149359638Y-126630150D01*
X149335539Y-126744123D01*
X149303025Y-126860300D01*
X149285041Y-126916205D01*
X149214717Y-127099014D01*
X149122451Y-127294007D01*
X149011321Y-127496737D01*
X148884401Y-127702758D01*
X148744770Y-127907622D01*
X148595503Y-128106884D01*
X148439677Y-128296096D01*
X148280368Y-128470812D01*
X148120654Y-128626585D01*
X148071213Y-128670618D01*
X147975259Y-128754052D01*
X148063126Y-128887168D01*
X148111271Y-128958171D01*
X148168955Y-129040360D01*
X148227300Y-129121189D01*
X148258305Y-129162981D01*
X148309662Y-129232194D01*
X148356418Y-129297587D01*
X148401416Y-129363628D01*
X148447499Y-129434783D01*
X148497511Y-129515523D01*
X148554295Y-129610314D01*
X148620694Y-129723626D01*
X148677431Y-129821573D01*
X148754260Y-129955939D01*
X148818513Y-130071849D01*
X148873586Y-130176287D01*
X148922879Y-130276240D01*
X148969790Y-130378691D01*
X149017716Y-130490626D01*
X149070055Y-130619031D01*
X149091357Y-130672460D01*
X149134998Y-130780725D01*
X149184946Y-130901931D01*
X149236382Y-131024548D01*
X149284487Y-131137042D01*
X149307891Y-131190674D01*
X149363342Y-131318456D01*
X149406501Y-131422811D01*
X149438490Y-131507196D01*
X149460430Y-131575065D01*
X149473445Y-131629872D01*
X149478655Y-131675072D01*
X149477370Y-131712515D01*
X149457969Y-131776839D01*
X149420267Y-131821568D01*
X149370151Y-131844921D01*
X149313510Y-131845118D01*
X149256231Y-131820379D01*
X149221311Y-131789936D01*
X149195457Y-131754371D01*
X149186656Y-131725800D01*
X149187609Y-131721111D01*
X149185541Y-131697070D01*
X149171787Y-131655756D01*
X149149333Y-131606124D01*
X149123613Y-131554550D01*
X149102277Y-131510084D01*
X149090508Y-131483679D01*
X149074921Y-131446259D01*
X149049903Y-131388480D01*
X149018500Y-131317310D01*
X148987086Y-131247103D01*
X148957478Y-131180227D01*
X148921690Y-131097675D01*
X148884968Y-131011557D01*
X148881362Y-131003016D01*
X148848948Y-130925261D01*
X148825353Y-130866338D01*
X148807143Y-130817655D01*
X148806285Y-130815258D01*
X148789911Y-130771231D01*
X148775365Y-130734872D01*
X148774404Y-130732644D01*
X148761933Y-130702215D01*
X148743682Y-130655676D01*
X148730019Y-130619989D01*
X148702800Y-130548786D01*
X148680841Y-130493861D01*
X148659845Y-130445522D01*
X148635520Y-130394076D01*
X148603568Y-130329829D01*
X148586275Y-130295576D01*
X148541521Y-130209383D01*
X148485317Y-130104642D01*
X148421666Y-129988565D01*
X148354571Y-129868365D01*
X148288035Y-129751256D01*
X148226060Y-129644452D01*
X148207829Y-129613602D01*
X148168745Y-129551326D01*
X148119031Y-129477076D01*
X148066603Y-129402510D01*
X148039606Y-129365760D01*
X147992482Y-129301552D01*
X147946731Y-129236944D01*
X147908726Y-129181044D01*
X147891017Y-129153402D01*
X147859323Y-129109151D01*
X147828006Y-129077524D01*
X147810175Y-129067238D01*
X147780577Y-129063216D01*
X147729822Y-129060073D01*
X147666790Y-129058281D01*
X147637005Y-129058041D01*
X147570330Y-129057328D01*
X147526247Y-129054344D01*
X147497311Y-129047466D01*
X147476081Y-129035072D01*
X147458726Y-129019181D01*
X147432241Y-128985457D01*
X147426086Y-128949920D01*
X147428738Y-128927114D01*
X147434599Y-128906994D01*
X147447590Y-128883068D01*
X147470154Y-128852506D01*
X147504732Y-128812479D01*
X147553768Y-128760157D01*
X147619704Y-128692710D01*
X147703253Y-128609028D01*
X147931040Y-128373390D01*
X148142520Y-128136682D01*
X148336134Y-127901063D01*
X148510324Y-127668690D01*
X148663531Y-127441725D01*
X148794195Y-127222324D01*
X148900760Y-127012648D01*
X148964132Y-126862540D01*
X149013057Y-126704381D01*
X149048561Y-126524279D01*
X149070304Y-126327333D01*
X149077942Y-126118647D01*
X149071133Y-125903321D01*
X149049534Y-125686457D01*
X149045220Y-125655648D01*
X149024343Y-125523010D01*
X148997919Y-125372381D01*
X148967574Y-125211868D01*
X148934932Y-125049581D01*
X148901620Y-124893627D01*
X148869263Y-124752114D01*
X148842571Y-124644824D01*
X148806425Y-124516702D01*
X148770266Y-124411259D01*
X148730920Y-124321303D01*
X148685213Y-124239639D01*
X148629972Y-124159071D01*
X148625884Y-124153578D01*
X148547326Y-124038470D01*
X148494685Y-123938049D01*
X148467996Y-123852405D01*
X148467292Y-123781626D01*
X148475037Y-123755662D01*
X148490886Y-123727202D01*
X148504651Y-123717853D01*
X148505654Y-123718300D01*
X148516476Y-123710664D01*
X148527176Y-123682177D01*
X148528438Y-123676802D01*
X148539599Y-123639437D01*
X148559302Y-123585384D01*
X148583626Y-123525290D01*
X148587956Y-123515198D01*
X148640590Y-123380724D01*
X148679759Y-123248642D01*
X148706787Y-123111687D01*
X148722995Y-122962593D01*
X148729705Y-122794095D01*
X148730062Y-122734122D01*
X148723086Y-122517067D01*
X148701433Y-122322660D01*
X148663370Y-122146437D01*
X148607163Y-121983935D01*
X148531079Y-121830693D01*
X148433383Y-121682246D01*
X148312342Y-121534133D01*
X148229317Y-121445137D01*
X148136534Y-121358480D01*
X148028088Y-121271600D01*
X147910766Y-121188934D01*
X147791356Y-121114920D01*
X147676646Y-121053997D01*
X147573423Y-121010602D01*
X147555772Y-121004737D01*
X147440387Y-120981639D01*
X147307228Y-120979775D01*
X147155642Y-120999253D01*
X146984979Y-121040177D01*
X146794586Y-121102655D01*
X146676679Y-121148075D01*
X146546580Y-121202641D01*
X146439416Y-121252879D01*
X146349176Y-121302495D01*
X146269849Y-121355196D01*
X146195423Y-121414688D01*
X146119887Y-121484678D01*
X146101950Y-121502425D01*
X146044127Y-121562923D01*
X145990554Y-121623885D01*
X145946993Y-121678439D01*
X145919207Y-121719712D01*
X145918146Y-121721655D01*
X145896376Y-121768675D01*
X145868996Y-121837337D01*
X145838012Y-121921567D01*
X145805426Y-122015292D01*
X145773242Y-122112439D01*
X145743464Y-122206933D01*
X145718094Y-122292702D01*
X145699136Y-122363673D01*
X145688594Y-122413771D01*
X145687743Y-122420113D01*
X145685783Y-122487212D01*
X145696082Y-122562334D01*
X145709653Y-122619714D01*
X145725865Y-122688393D01*
X145732114Y-122740724D01*
X145728776Y-122788566D01*
X145716680Y-122842094D01*
X145698861Y-122863352D01*
X145664063Y-122882401D01*
X145657860Y-122884610D01*
X145624871Y-122892426D01*
X145590204Y-122891867D01*
X145544132Y-122881968D01*
X145499750Y-122868924D01*
X145408584Y-122844686D01*
X145310537Y-122826958D01*
X145201635Y-122815538D01*
X145077906Y-122810222D01*
X144935377Y-122810808D01*
X144770074Y-122817092D01*
X144637047Y-122824880D01*
X144435037Y-122839374D01*
X144261120Y-122854804D01*
X144113354Y-122871484D01*
X143989798Y-122889730D01*
X143888511Y-122909856D01*
X143807550Y-122932177D01*
X143744974Y-122957007D01*
X143713292Y-122974607D01*
X143670335Y-123000588D01*
X143639565Y-123011981D01*
X143608527Y-123011381D01*
X143573786Y-123003671D01*
X143506124Y-122986634D01*
X143498613Y-122856623D01*
X143491740Y-122766683D01*
X143481315Y-122666170D01*
X143468411Y-122562909D01*
X143454099Y-122464726D01*
X143439451Y-122379448D01*
X143425540Y-122314900D01*
X143423182Y-122306032D01*
X143383411Y-122201140D01*
X143320229Y-122085121D01*
X143236233Y-121961885D01*
X143134020Y-121835340D01*
X143049041Y-121742756D01*
X142991856Y-121684827D01*
X142934391Y-121628758D01*
X142880954Y-121578517D01*
X142835852Y-121538075D01*
X142803392Y-121511400D01*
X142788242Y-121502425D01*
X142772059Y-121494985D01*
X142736942Y-121475124D01*
X142689312Y-121446530D01*
X142668355Y-121433573D01*
X142521019Y-121350973D01*
X142385377Y-121294556D01*
X142259468Y-121263749D01*
X142141327Y-121257977D01*
X142087686Y-121263788D01*
X142008848Y-121283717D01*
X141913683Y-121319423D01*
X141809148Y-121367698D01*
X141702199Y-121425335D01*
X141601829Y-121487761D01*
X141522872Y-121545860D01*
X141436789Y-121617814D01*
X141350213Y-121697306D01*
X141269772Y-121778022D01*
X141202100Y-121853645D01*
X141159995Y-121908581D01*
X141124399Y-121965543D01*
X141080854Y-122042655D01*
X141033170Y-122132420D01*
X140985156Y-122227343D01*
X140940621Y-122319929D01*
X140903375Y-122402682D01*
X140881397Y-122456738D01*
X140836631Y-122612272D01*
X140821413Y-122762953D01*
X140835760Y-122909422D01*
X140879685Y-123052320D01*
X140895773Y-123088589D01*
X140923742Y-123142217D01*
X140962823Y-123209583D01*
X141009288Y-123285016D01*
X141059407Y-123362843D01*
X141109453Y-123437394D01*
X141155695Y-123502997D01*
X141194404Y-123553979D01*
X141221853Y-123584670D01*
X141222039Y-123584838D01*
X141258546Y-123613430D01*
X141313183Y-123651222D01*
X141377719Y-123693009D01*
X141443923Y-123733584D01*
X141503564Y-123767740D01*
X141543040Y-123787879D01*
X141595210Y-123816647D01*
X141646813Y-123852299D01*
X141655086Y-123858992D01*
X141686218Y-123887580D01*
X141696401Y-123906642D01*
X141689280Y-123923900D01*
X141687043Y-123926693D01*
X141658457Y-123946793D01*
X141640563Y-123950799D01*
X141614136Y-123962457D01*
X141588384Y-123990028D01*
X141567260Y-124017327D01*
X141530917Y-124059478D01*
X141485162Y-124109875D01*
X141452489Y-124144593D01*
X141395666Y-124208331D01*
X141342141Y-124278353D01*
X141287072Y-124361540D01*
X141225618Y-124464774D01*
X141218558Y-124477126D01*
X141174424Y-124553700D01*
X141132728Y-124624421D01*
X141096857Y-124683661D01*
X141070198Y-124725794D01*
X141059823Y-124740803D01*
X141037346Y-124772814D01*
X141025411Y-124794020D01*
X141024826Y-124796470D01*
X141017766Y-124813380D01*
X140999485Y-124847720D01*
X140980066Y-124881569D01*
X140881897Y-125060396D01*
X140796168Y-125241536D01*
X140725347Y-125418927D01*
X140671902Y-125586507D01*
X140643542Y-125708220D01*
X140627304Y-125803729D01*
X140611361Y-125914149D01*
X140596091Y-126035087D01*
X140581871Y-126162148D01*
X140569081Y-126290938D01*
X140558098Y-126417060D01*
X140549301Y-126536121D01*
X140543067Y-126643727D01*
X140539776Y-126735481D01*
X140539804Y-126806990D01*
X140543531Y-126853859D01*
X140544521Y-126858888D01*
X140550249Y-126896155D01*
X140556324Y-126955450D01*
X140562040Y-127028778D01*
X140566691Y-127108145D01*
X140566895Y-127112377D01*
X140572200Y-127202711D01*
X140579632Y-127283863D01*
X140590418Y-127364232D01*
X140605785Y-127452215D01*
X140626959Y-127556212D01*
X140641543Y-127623359D01*
X140654601Y-127668250D01*
X140678016Y-127734735D01*
X140709451Y-127817183D01*
X140746569Y-127909961D01*
X140787035Y-128007435D01*
X140828511Y-128103972D01*
X140868661Y-128193941D01*
X140905149Y-128271707D01*
X140934388Y-128329332D01*
X140969486Y-128389993D01*
X141012708Y-128458654D01*
X141050146Y-128513905D01*
X141093463Y-128569870D01*
X141134318Y-128608456D01*
X141183683Y-128639152D01*
X141209995Y-128652165D01*
X141271842Y-128686682D01*
X141338346Y-128731849D01*
X141385323Y-128769534D01*
X141467936Y-128843092D01*
X141685736Y-128860552D01*
X141784947Y-128868232D01*
X141900751Y-128876771D01*
X142019756Y-128885203D01*
X142128571Y-128892563D01*
X142143854Y-128893558D01*
X142225725Y-128899447D01*
X142296671Y-128905676D01*
X142351443Y-128911693D01*
X142384792Y-128916949D01*
X142392449Y-128919632D01*
X142401987Y-128938197D01*
X142418610Y-128976107D01*
X142436293Y-129019151D01*
X142462304Y-129079816D01*
X142491147Y-129140627D01*
X142508172Y-129173113D01*
X142544485Y-129238084D01*
X142675231Y-129238084D01*
X142748675Y-129240868D01*
X142823223Y-129248226D01*
X142884520Y-129258669D01*
X142892480Y-129260615D01*
X142952879Y-129273459D01*
X143013011Y-129281729D01*
X143042087Y-129283381D01*
X143087795Y-129286669D01*
X143143946Y-129294979D01*
X143201391Y-129306403D01*
X143250986Y-129319029D01*
X143283584Y-129330946D01*
X143289865Y-129335136D01*
X143291101Y-129351451D01*
X143265548Y-129368171D01*
X143216414Y-129384060D01*
X143146908Y-129397880D01*
X143115528Y-129402370D01*
X143042459Y-129413456D01*
X142968410Y-129427321D01*
X142907579Y-129441263D01*
X142899408Y-129443493D01*
X142816334Y-129459378D01*
X142728432Y-129458844D01*
X142715404Y-129457617D01*
X142665605Y-129453295D01*
X142630218Y-129451713D01*
X142617020Y-129453170D01*
X142621960Y-129470898D01*
X142635678Y-129512182D01*
X142656521Y-129572409D01*
X142682833Y-129646961D01*
X142712961Y-129731225D01*
X142745251Y-129820585D01*
X142778049Y-129910426D01*
X142809701Y-129996133D01*
X142838553Y-130073091D01*
X142849469Y-130101774D01*
X142915124Y-130273414D01*
X142971078Y-130419898D01*
X143018421Y-130544107D01*
X143058238Y-130648924D01*
X143091620Y-130737230D01*
X143119652Y-130811908D01*
X143143424Y-130875837D01*
X143164024Y-130931901D01*
X143182539Y-130982981D01*
X143189732Y-131003016D01*
X143215381Y-131073485D01*
X143239544Y-131137806D01*
X143259244Y-131188171D01*
X143270193Y-131214041D01*
X143291494Y-131259837D01*
X143593670Y-131255988D01*
X143698683Y-131253856D01*
X143805228Y-131250296D01*
X143905230Y-131245674D01*
X143990612Y-131240359D01*
X144048775Y-131235234D01*
X144136713Y-131228016D01*
X144236923Y-131223603D01*
X144331709Y-131222678D01*
X144358342Y-131223242D01*
X144514981Y-131228154D01*
X144564434Y-131130475D01*
X144603631Y-131063687D01*
X144658077Y-130985632D01*
X144723448Y-130901216D01*
X144795419Y-130815347D01*
X144869669Y-130732929D01*
X144941873Y-130658872D01*
X145007708Y-130598081D01*
X145062850Y-130555462D01*
X145080401Y-130544892D01*
X145103297Y-130530095D01*
X145143628Y-130501651D01*
X145194963Y-130464159D01*
X145232762Y-130435927D01*
X145325001Y-130370861D01*
X145410920Y-130318777D01*
X145485420Y-130282508D01*
X145539617Y-130265519D01*
X145567743Y-130257434D01*
X145615168Y-130240864D01*
X145673438Y-130218821D01*
X145697911Y-130209138D01*
X145760719Y-130184623D01*
X145813419Y-130166592D01*
X145862686Y-130154013D01*
X145915195Y-130145852D01*
X145977623Y-130141077D01*
X146056643Y-130138655D01*
X146158932Y-130137553D01*
X146160617Y-130137542D01*
X146250074Y-130137292D01*
X146314744Y-130138297D01*
X146359870Y-130141100D01*
X146390698Y-130146245D01*
X146412473Y-130154275D01*
X146430097Y-130165477D01*
X146471633Y-130213459D01*
X146488984Y-130272794D01*
X146481565Y-130336244D01*
X146448817Y-130396534D01*
X146437047Y-130409499D01*
X146422754Y-130419097D01*
X146401292Y-130426050D01*
X146368018Y-130431081D01*
X146318285Y-130434913D01*
X146247451Y-130438270D01*
X146159478Y-130441565D01*
X146061111Y-130445497D01*
X145986423Y-130449816D01*
X145929055Y-130455383D01*
X145882647Y-130463061D01*
X145840840Y-130473713D01*
X145797276Y-130488199D01*
X145786387Y-130492146D01*
X145719681Y-130517159D01*
X145661733Y-130540792D01*
X145608220Y-130565599D01*
X145554817Y-130594136D01*
X145497198Y-130628956D01*
X145431040Y-130672615D01*
X145352019Y-130727667D01*
X145255809Y-130796667D01*
X145189611Y-130844677D01*
X145156548Y-130872737D01*
X145109430Y-130918039D01*
X145053778Y-130975035D01*
X144995108Y-131038176D01*
X144975864Y-131059596D01*
X144882793Y-131170371D01*
X144813556Y-131267274D01*
X144766690Y-131352630D01*
X144740729Y-131428766D01*
X144739435Y-131434907D01*
X144735727Y-131465401D01*
X144744569Y-131474154D01*
X144759003Y-131471437D01*
X144784914Y-131464762D01*
X144832206Y-131453201D01*
X144892992Y-131438627D01*
X144959381Y-131422914D01*
X145023485Y-131407936D01*
X145077416Y-131395565D01*
X145095435Y-131391531D01*
X145129015Y-131384270D01*
X145159977Y-131378177D01*
X145195459Y-131372064D01*
X145242600Y-131364740D01*
X145308538Y-131355013D01*
X145353857Y-131348432D01*
X145434523Y-131336454D01*
X145533054Y-131321382D01*
X145637677Y-131305040D01*
X145736620Y-131289250D01*
X145748315Y-131287355D01*
X145835001Y-131274206D01*
X145918681Y-131263163D01*
X145991390Y-131255163D01*
X146045163Y-131251148D01*
X146057600Y-131250858D01*
X146099537Y-131249338D01*
X146164894Y-131245112D01*
X146247220Y-131238683D01*
X146340065Y-131230554D01*
X146433638Y-131221563D01*
X146534298Y-131211967D01*
X146634257Y-131203361D01*
X146726005Y-131196327D01*
X146802031Y-131191443D01*
X146850107Y-131189383D01*
X146913459Y-131188765D01*
X146956312Y-131191849D01*
X146988164Y-131200715D01*
X147018514Y-131217447D01*
X147037643Y-131230501D01*
X147093958Y-131278387D01*
X147137755Y-131331672D01*
X147163625Y-131382932D01*
X147168291Y-131409819D01*
X147164044Y-131454557D01*
X147148248Y-131490187D01*
X147116320Y-131521675D01*
X147063679Y-131553989D01*
X147011068Y-131580226D01*
X146953577Y-131606794D01*
X146905704Y-131627535D01*
X146874291Y-131639553D01*
X146866584Y-131641396D01*
X146845376Y-131649779D01*
X146812327Y-131670593D01*
X146803037Y-131677371D01*
X146771545Y-131697342D01*
X146717614Y-131727548D01*
X146646051Y-131765570D01*
X146561663Y-131808987D01*
X146469257Y-131855380D01*
X146373641Y-131902329D01*
X146279621Y-131947414D01*
X146192004Y-131988216D01*
X146131863Y-132015221D01*
X146066659Y-132045488D01*
X145984322Y-132086105D01*
X145893811Y-132132527D01*
X145804084Y-132180210D01*
X145771366Y-132198095D01*
X145540253Y-132321864D01*
X145324296Y-132429460D01*
X145116046Y-132524495D01*
X144982780Y-132580636D01*
X144898281Y-132615801D01*
X144813728Y-132652198D01*
X144737725Y-132686045D01*
X144678879Y-132713561D01*
X144667775Y-132719048D01*
X144613516Y-132743905D01*
X144539722Y-132774397D01*
X144455447Y-132806934D01*
X144369745Y-132837925D01*
X144356001Y-132842673D01*
X144280058Y-132869698D01*
X144212822Y-132895460D01*
X144160197Y-132917560D01*
X144128089Y-132933599D01*
X144122672Y-132937444D01*
X144097019Y-132952107D01*
X144050472Y-132971338D01*
X143991155Y-132991931D01*
X143961294Y-133001133D01*
X143896035Y-133020453D01*
X143836756Y-133038072D01*
X143792879Y-133051188D01*
X143781223Y-133054706D01*
X143724607Y-133066332D01*
X143678380Y-133061048D01*
X143668469Y-133057754D01*
X143641530Y-133042043D01*
X143610970Y-133017633D01*
X143602337Y-133009734D01*
X143593553Y-133003004D01*
X143581920Y-132997024D01*
X143564741Y-132991378D01*
X143539320Y-132985647D01*
X143502958Y-132979414D01*
X143452959Y-132972260D01*
X143386626Y-132963769D01*
X143301262Y-132953522D01*
X143194169Y-132941101D01*
X143062650Y-132926090D01*
X142904008Y-132908070D01*
X142902413Y-132907888D01*
X142534406Y-132866083D01*
X140844577Y-132865833D01*
X140564637Y-132865863D01*
X140312507Y-132866058D01*
X140085957Y-132866444D01*
X139882757Y-132867047D01*
X139700675Y-132867893D01*
X139537483Y-132869008D01*
X139390949Y-132870419D01*
X139258842Y-132872151D01*
X139138933Y-132874231D01*
X139028991Y-132876684D01*
X138926784Y-132879538D01*
X138830084Y-132882818D01*
X138736659Y-132886549D01*
X138644279Y-132890759D01*
X138621514Y-132891868D01*
X138397445Y-132902937D01*
X138201624Y-132912662D01*
X138032296Y-132921140D01*
X137887702Y-132928462D01*
X137766084Y-132934724D01*
X137665685Y-132940017D01*
X137584747Y-132944437D01*
X137521512Y-132948077D01*
X137474224Y-132951031D01*
X137441123Y-132953392D01*
X137420454Y-132955253D01*
X137412348Y-132956326D01*
X137383348Y-132961730D01*
X137334804Y-132971099D01*
X137276633Y-132982517D01*
X137269894Y-132983851D01*
X137204899Y-132995274D01*
X137161385Y-132996058D01*
X137131613Y-132982536D01*
X137107841Y-132951043D01*
X137082330Y-132897911D01*
X137080695Y-132894224D01*
X137064682Y-132850691D01*
X137044134Y-132783902D01*
X137020612Y-132700015D01*
X136995678Y-132605189D01*
X136970893Y-132505584D01*
X136947820Y-132407359D01*
X136928020Y-132316672D01*
X136913055Y-132239684D01*
X136909662Y-132219693D01*
X136900600Y-132169367D01*
X136886386Y-132097201D01*
X136868546Y-132010646D01*
X136848607Y-131917151D01*
X136834245Y-131851686D01*
X136810632Y-131745189D01*
X136784832Y-131628480D01*
X136759376Y-131513034D01*
X136736798Y-131410324D01*
X136728331Y-131371687D01*
X136706329Y-131275950D01*
X136680923Y-131172966D01*
X136655162Y-131074705D01*
X136632096Y-130993137D01*
X136630751Y-130988659D01*
X136600282Y-130884125D01*
X136571317Y-130776765D01*
X136543169Y-130663284D01*
X136515145Y-130540387D01*
X136486556Y-130404779D01*
X136456711Y-130253165D01*
X136424920Y-130082249D01*
X136390493Y-129888737D01*
X136352740Y-129669333D01*
X136345840Y-129628622D01*
X136331974Y-129554047D01*
X136313207Y-129463117D01*
X136292239Y-129368538D01*
X136275942Y-129299782D01*
X136256043Y-129215228D01*
X136243681Y-129151441D01*
X136237866Y-129100383D01*
X136237609Y-129054015D01*
X136240792Y-129014389D01*
X136243271Y-128998000D01*
X136509202Y-128998000D01*
X136512367Y-129045156D01*
X136526000Y-129115347D01*
X136549726Y-129206156D01*
X136555852Y-129227271D01*
X136570701Y-129280562D01*
X136586463Y-129343311D01*
X136603760Y-129418469D01*
X136623211Y-129508988D01*
X136645436Y-129617822D01*
X136671056Y-129747923D01*
X136700691Y-129902244D01*
X136728473Y-130049202D01*
X136761602Y-130221500D01*
X136791714Y-130369205D01*
X136819992Y-130497468D01*
X136847622Y-130611441D01*
X136875788Y-130716276D01*
X136903388Y-130809713D01*
X136924766Y-130880061D01*
X136942832Y-130941181D01*
X136955729Y-130986675D01*
X136961601Y-131010144D01*
X136961663Y-131010527D01*
X136970402Y-131045445D01*
X136974025Y-131055589D01*
X136983513Y-131085433D01*
X136996881Y-131134491D01*
X137011598Y-131192627D01*
X137025134Y-131249706D01*
X137034957Y-131295592D01*
X137037426Y-131309466D01*
X137043540Y-131341589D01*
X137054584Y-131393613D01*
X137068556Y-131456210D01*
X137074187Y-131480698D01*
X137088675Y-131545096D01*
X137100843Y-131602697D01*
X137108724Y-131644057D01*
X137110170Y-131653436D01*
X137117296Y-131692626D01*
X137123948Y-131716499D01*
X137132025Y-131744303D01*
X137144191Y-131793347D01*
X137158610Y-131855417D01*
X137173450Y-131922303D01*
X137186873Y-131985793D01*
X137197045Y-132037674D01*
X137201146Y-132061976D01*
X137212084Y-132127000D01*
X137228324Y-132211154D01*
X137247748Y-132304454D01*
X137268242Y-132396918D01*
X137287690Y-132478563D01*
X137297337Y-132515843D01*
X137313277Y-132575842D01*
X137327210Y-132629979D01*
X137336240Y-132666986D01*
X137336515Y-132668202D01*
X137343173Y-132692194D01*
X137354546Y-132703903D01*
X137378615Y-132705993D01*
X137423360Y-132701130D01*
X137431822Y-132700034D01*
X137490346Y-132692890D01*
X137545665Y-132686863D01*
X137570065Y-132684585D01*
X137607356Y-132681246D01*
X137665317Y-132675755D01*
X137734735Y-132668991D01*
X137780355Y-132664459D01*
X137857603Y-132657839D01*
X137953043Y-132651322D01*
X138054833Y-132645638D01*
X138151129Y-132641516D01*
X138155873Y-132641354D01*
X138233018Y-132638266D01*
X138332962Y-132633510D01*
X138448532Y-132627471D01*
X138572555Y-132620532D01*
X138697860Y-132613079D01*
X138779231Y-132607970D01*
X138848804Y-132603740D01*
X138919812Y-132599974D01*
X138994326Y-132596645D01*
X139074421Y-132593725D01*
X139162167Y-132591190D01*
X139259637Y-132589011D01*
X139368904Y-132587161D01*
X139492039Y-132585614D01*
X139631115Y-132584344D01*
X139788204Y-132583323D01*
X139965378Y-132582524D01*
X140164711Y-132581921D01*
X140388273Y-132581486D01*
X140638137Y-132581194D01*
X140859598Y-132581044D01*
X141120121Y-132580922D01*
X141352570Y-132580859D01*
X141558915Y-132580889D01*
X141741122Y-132581045D01*
X141901162Y-132581359D01*
X142041000Y-132581866D01*
X142162607Y-132582597D01*
X142267950Y-132583587D01*
X142358998Y-132584869D01*
X142437718Y-132586475D01*
X142506079Y-132588440D01*
X142566049Y-132590795D01*
X142619596Y-132593575D01*
X142668689Y-132596812D01*
X142715295Y-132600540D01*
X142761384Y-132604792D01*
X142808922Y-132609601D01*
X142857351Y-132614730D01*
X142964120Y-132626320D01*
X143071362Y-132638264D01*
X143171709Y-132649720D01*
X143257795Y-132659845D01*
X143322252Y-132667797D01*
X143328176Y-132668565D01*
X143401870Y-132677082D01*
X143449785Y-132679762D01*
X143475601Y-132676660D01*
X143482532Y-132670982D01*
X143480457Y-132648467D01*
X143467884Y-132600473D01*
X143445642Y-132529343D01*
X143414561Y-132437421D01*
X143375470Y-132327051D01*
X143329199Y-132200577D01*
X143276576Y-132060344D01*
X143218432Y-131908695D01*
X143158533Y-131755418D01*
X143107955Y-131626123D01*
X143065549Y-131516288D01*
X143398984Y-131516288D01*
X143401657Y-131531575D01*
X143413907Y-131568835D01*
X143433715Y-131622329D01*
X143456882Y-131680956D01*
X143482930Y-131745835D01*
X143504612Y-131801138D01*
X143519485Y-131840547D01*
X143525005Y-131857085D01*
X143532826Y-131879743D01*
X143548955Y-131919205D01*
X143561452Y-131947895D01*
X143582043Y-131996944D01*
X143607344Y-132061468D01*
X143635148Y-132135323D01*
X143663250Y-132212361D01*
X143689444Y-132286438D01*
X143711526Y-132351410D01*
X143727288Y-132401129D01*
X143734526Y-132429451D01*
X143734662Y-132430527D01*
X143743217Y-132465985D01*
X143750131Y-132481016D01*
X143756716Y-132505482D01*
X143761934Y-132549995D01*
X143764506Y-132600546D01*
X143767975Y-132669674D01*
X143777682Y-132712738D01*
X143798069Y-132733661D01*
X143833577Y-132736365D01*
X143888646Y-132724775D01*
X143901289Y-132721388D01*
X143948460Y-132706078D01*
X144017663Y-132680328D01*
X144103671Y-132646320D01*
X144201254Y-132606233D01*
X144305184Y-132562249D01*
X144410231Y-132516548D01*
X144511165Y-132471309D01*
X144599752Y-132430144D01*
X144691195Y-132387274D01*
X144798094Y-132338063D01*
X144908312Y-132288050D01*
X145009714Y-132242773D01*
X145027842Y-132234786D01*
X145126330Y-132189698D01*
X145235990Y-132136561D01*
X145344586Y-132081470D01*
X145439879Y-132030519D01*
X145455110Y-132022012D01*
X145526126Y-131982477D01*
X145588630Y-131948558D01*
X145637642Y-131922890D01*
X145668179Y-131908110D01*
X145675150Y-131905595D01*
X145701484Y-131894319D01*
X145715585Y-131884390D01*
X145735361Y-131872595D01*
X145777956Y-131850151D01*
X145839029Y-131819246D01*
X145914239Y-131782066D01*
X145999244Y-131740798D01*
X146028780Y-131726620D01*
X146116627Y-131684370D01*
X146196689Y-131645487D01*
X146264486Y-131612179D01*
X146315536Y-131586651D01*
X146345358Y-131571111D01*
X146349663Y-131568621D01*
X146366113Y-131556760D01*
X146359688Y-131553485D01*
X146327132Y-131557052D01*
X146297325Y-131562403D01*
X146243277Y-131573350D01*
X146170038Y-131588822D01*
X146082657Y-131607744D01*
X145986185Y-131629044D01*
X145944104Y-131638455D01*
X145741245Y-131682517D01*
X145540247Y-131723342D01*
X145345090Y-131760262D01*
X145159756Y-131792607D01*
X144988227Y-131819709D01*
X144834483Y-131840898D01*
X144702506Y-131855504D01*
X144613342Y-131862100D01*
X144538695Y-131865632D01*
X144488215Y-131866734D01*
X144456073Y-131864625D01*
X144436438Y-131858523D01*
X144423482Y-131847647D01*
X144414318Y-131835426D01*
X144398323Y-131805853D01*
X144391238Y-131771085D01*
X144392968Y-131724323D01*
X144403420Y-131658771D01*
X144411336Y-131619454D01*
X144421290Y-131567252D01*
X144426991Y-131527834D01*
X144427310Y-131509133D01*
X144427059Y-131508759D01*
X144409040Y-131505549D01*
X144366342Y-131503663D01*
X144304292Y-131503003D01*
X144228220Y-131503473D01*
X144143453Y-131504975D01*
X144055321Y-131507412D01*
X143969150Y-131510687D01*
X143890271Y-131514704D01*
X143824010Y-131519366D01*
X143818676Y-131519829D01*
X143721218Y-131525895D01*
X143624617Y-131527427D01*
X143541765Y-131524292D01*
X143525772Y-131522873D01*
X143469048Y-131517823D01*
X143424942Y-131515277D01*
X143401022Y-131515627D01*
X143398984Y-131516288D01*
X143065549Y-131516288D01*
X143054743Y-131488298D01*
X143001617Y-131349109D01*
X142951295Y-131215722D01*
X142906496Y-131095304D01*
X142869938Y-130995023D01*
X142867419Y-130987996D01*
X142826976Y-130875405D01*
X142779761Y-130744616D01*
X142729397Y-130605620D01*
X142679503Y-130468407D01*
X142633701Y-130342964D01*
X142625505Y-130320590D01*
X142589998Y-130221429D01*
X142548596Y-130102016D01*
X142503201Y-129968168D01*
X142455717Y-129825702D01*
X142408049Y-129680434D01*
X142362098Y-129538181D01*
X142319770Y-129404760D01*
X142282968Y-129285988D01*
X142253594Y-129187681D01*
X142245386Y-129159061D01*
X142239061Y-129145032D01*
X142226154Y-129134696D01*
X142202048Y-129127122D01*
X142162125Y-129121377D01*
X142101766Y-129116527D01*
X142016354Y-129111639D01*
X142008681Y-129111238D01*
X141865681Y-129103198D01*
X141739401Y-129094625D01*
X141616523Y-129084518D01*
X141483729Y-129071881D01*
X141482957Y-129071803D01*
X141402229Y-129064085D01*
X141317088Y-129056539D01*
X141242041Y-129050433D01*
X141220095Y-129048818D01*
X141155620Y-129042807D01*
X141094844Y-129034680D01*
X141050917Y-129026194D01*
X141050889Y-129026187D01*
X140998493Y-129018715D01*
X140947363Y-129020365D01*
X140943887Y-129020961D01*
X140903564Y-129023540D01*
X140846024Y-129021254D01*
X140783611Y-129014599D01*
X140782637Y-129014459D01*
X140712404Y-129005758D01*
X140628625Y-128997435D01*
X140547769Y-128991100D01*
X140536653Y-128990406D01*
X140416477Y-128983237D01*
X140317631Y-128977399D01*
X140231461Y-128972402D01*
X140149313Y-128967751D01*
X140062530Y-128962954D01*
X139962458Y-128957520D01*
X139890763Y-128953658D01*
X139795657Y-128948837D01*
X139678346Y-128943350D01*
X139546650Y-128937537D01*
X139408389Y-128931734D01*
X139271382Y-128926282D01*
X139169770Y-128922466D01*
X139039229Y-128917547D01*
X138901294Y-128912052D01*
X138763784Y-128906314D01*
X138634519Y-128900663D01*
X138521318Y-128895434D01*
X138448776Y-128891838D01*
X138338251Y-128887131D01*
X138210183Y-128883381D01*
X138069273Y-128880586D01*
X137920222Y-128878743D01*
X137767731Y-128877848D01*
X137616501Y-128877898D01*
X137471234Y-128878890D01*
X137336631Y-128880820D01*
X137217392Y-128883685D01*
X137118218Y-128887481D01*
X137043812Y-128892207D01*
X137036831Y-128892830D01*
X136967965Y-128900258D01*
X136888450Y-128910446D01*
X136804149Y-128922454D01*
X136720928Y-128935340D01*
X136644650Y-128948164D01*
X136581179Y-128959983D01*
X136536380Y-128969856D01*
X136516880Y-128976295D01*
X136509202Y-128998000D01*
X136243271Y-128998000D01*
X136249673Y-128955673D01*
X136262051Y-128903189D01*
X136273074Y-128873187D01*
X136310093Y-128830709D01*
X136361170Y-128809597D01*
X136406086Y-128811368D01*
X136442461Y-128810540D01*
X136496970Y-128796899D01*
X136536474Y-128782723D01*
X136631592Y-128751169D01*
X136750107Y-128721786D01*
X136885386Y-128695921D01*
X137030797Y-128674919D01*
X137111837Y-128666011D01*
X137175235Y-128661773D01*
X137265102Y-128658587D01*
X137377885Y-128656426D01*
X137510031Y-128655258D01*
X137657987Y-128655055D01*
X137818200Y-128655786D01*
X137987118Y-128657422D01*
X138161187Y-128659934D01*
X138336854Y-128663291D01*
X138510567Y-128667463D01*
X138678772Y-128672422D01*
X138837917Y-128678138D01*
X138906907Y-128681004D01*
X139039604Y-128686765D01*
X139190483Y-128693283D01*
X139347718Y-128700050D01*
X139499478Y-128706557D01*
X139633934Y-128712295D01*
X139642922Y-128712677D01*
X139761888Y-128717967D01*
X139886259Y-128723906D01*
X140007887Y-128730076D01*
X140118622Y-128736059D01*
X140210319Y-128741437D01*
X140236239Y-128743088D01*
X140336182Y-128748882D01*
X140453261Y-128754482D01*
X140574574Y-128759335D01*
X140687219Y-128762889D01*
X140714428Y-128763553D01*
X140967306Y-128769251D01*
X140930006Y-128729540D01*
X140894297Y-128685523D01*
X140849553Y-128621473D01*
X140800034Y-128544297D01*
X140749998Y-128460902D01*
X140703705Y-128378196D01*
X140665412Y-128303086D01*
X140660102Y-128291780D01*
X140622544Y-128207392D01*
X140580174Y-128106870D01*
X140535547Y-127996795D01*
X140491215Y-127883748D01*
X140449734Y-127774307D01*
X140413656Y-127675054D01*
X140385536Y-127592569D01*
X140373068Y-127552217D01*
X140320386Y-127334367D01*
X140285239Y-127104269D01*
X140267474Y-126859107D01*
X140266938Y-126596067D01*
X140283477Y-126312335D01*
X140297611Y-126166352D01*
X140315139Y-126040375D01*
X140341317Y-125898869D01*
X140373887Y-125751517D01*
X140410594Y-125608002D01*
X140449181Y-125478009D01*
X140476084Y-125400296D01*
X140499173Y-125337851D01*
X140527504Y-125260118D01*
X140556333Y-125180144D01*
X140567920Y-125147704D01*
X140634023Y-124979640D01*
X140716510Y-124798826D01*
X140811066Y-124614280D01*
X140890407Y-124473574D01*
X140935165Y-124397511D01*
X140979683Y-124321846D01*
X141019193Y-124254682D01*
X141048927Y-124204126D01*
X141052153Y-124198640D01*
X141087598Y-124146710D01*
X141136886Y-124085188D01*
X141191461Y-124024500D01*
X141213167Y-124002486D01*
X141321192Y-123896457D01*
X141225623Y-123846907D01*
X141151608Y-123805874D01*
X141089114Y-123763962D01*
X141032720Y-123716054D01*
X140977005Y-123657032D01*
X140916550Y-123581780D01*
X140853119Y-123495262D01*
X140768982Y-123373142D01*
X140703270Y-123267062D01*
X140653374Y-123171615D01*
X140616684Y-123081394D01*
X140590589Y-122990993D01*
X140576964Y-122923148D01*
X140562870Y-122760017D01*
X140576310Y-122594442D01*
X140617622Y-122422814D01*
X140626098Y-122396759D01*
X140655969Y-122318334D01*
X140698047Y-122222126D01*
X140748496Y-122115752D01*
X140803479Y-122006827D01*
X140859161Y-121902967D01*
X140911706Y-121811789D01*
X140954222Y-121745300D01*
X141066612Y-121603455D01*
X141203050Y-121465837D01*
X141357539Y-121336929D01*
X141524086Y-121221216D01*
X141696697Y-121123181D01*
X141869377Y-121047309D01*
X141903537Y-121035140D01*
X141956282Y-121018816D01*
X142005830Y-121008292D01*
X142061301Y-121002446D01*
X142131816Y-121000157D01*
X142188930Y-121000039D01*
X142269270Y-121001061D01*
X142329037Y-121004297D01*
X142377693Y-121011260D01*
X142424697Y-121023464D01*
X142479512Y-121042425D01*
X142498855Y-121049642D01*
X142689016Y-121135566D01*
X142876568Y-121247907D01*
X143057328Y-121383082D01*
X143227116Y-121537508D01*
X143381747Y-121707601D01*
X143517041Y-121889779D01*
X143561889Y-121960400D01*
X143643226Y-122123266D01*
X143698059Y-122298449D01*
X143725438Y-122482467D01*
X143728551Y-122570216D01*
X143729287Y-122625685D01*
X143731241Y-122667329D01*
X143734033Y-122688002D01*
X143734876Y-122689060D01*
X143751393Y-122685883D01*
X143790002Y-122677408D01*
X143843553Y-122665218D01*
X143866307Y-122659947D01*
X143967083Y-122639898D01*
X144087686Y-122621504D01*
X144223739Y-122604985D01*
X144370863Y-122590560D01*
X144524683Y-122578449D01*
X144680822Y-122568870D01*
X144834903Y-122562043D01*
X144982549Y-122558188D01*
X145119382Y-122557522D01*
X145241027Y-122560266D01*
X145343105Y-122566639D01*
X145421241Y-122576860D01*
X145440911Y-122581086D01*
X145493483Y-122594008D01*
X145493670Y-122434999D01*
X145494262Y-122375516D01*
X145496741Y-122325909D01*
X145502401Y-122279478D01*
X145512533Y-122229521D01*
X145528428Y-122169340D01*
X145551380Y-122092233D01*
X145573573Y-122020639D01*
X145612847Y-121896618D01*
X145646070Y-121796888D01*
X145675316Y-121716821D01*
X145702657Y-121651785D01*
X145730168Y-121597152D01*
X145759921Y-121548289D01*
X145793989Y-121500569D01*
X145823087Y-121463404D01*
X145926888Y-121345368D01*
X146037821Y-121242752D01*
X146161580Y-121151357D01*
X146303859Y-121066988D01*
X146470353Y-120985449D01*
X146473500Y-120984029D01*
X146653932Y-120908518D01*
X146831852Y-120845130D01*
X147002637Y-120795115D01*
X147161665Y-120759723D01*
X147304313Y-120740206D01*
X147388019Y-120736630D01*
X147498434Y-120748516D01*
G37*
G36*
X144567974Y-124483257D02*
G01*
X144607620Y-124501125D01*
X144630949Y-124520430D01*
X144665982Y-124575131D01*
X144674996Y-124639042D01*
X144657459Y-124705471D01*
X144647149Y-124724550D01*
X144631949Y-124760633D01*
X144616191Y-124816086D01*
X144602738Y-124880434D01*
X144599977Y-124897288D01*
X144587450Y-124965681D01*
X144568927Y-125050663D01*
X144547175Y-125140093D01*
X144530336Y-125203024D01*
X144508764Y-125282656D01*
X144488664Y-125361889D01*
X144472497Y-125430731D01*
X144463726Y-125473396D01*
X144448767Y-125540295D01*
X144425459Y-125625412D01*
X144396499Y-125720487D01*
X144364585Y-125817260D01*
X144332413Y-125907473D01*
X144302681Y-125982864D01*
X144283861Y-126024205D01*
X144224293Y-126115843D01*
X144147102Y-126193911D01*
X144058110Y-126254483D01*
X143963138Y-126293636D01*
X143868011Y-126307443D01*
X143863738Y-126307404D01*
X143811462Y-126304878D01*
X143767832Y-126299888D01*
X143751082Y-126296182D01*
X143706083Y-126277198D01*
X143646267Y-126246375D01*
X143581443Y-126209079D01*
X143521423Y-126170674D01*
X143520859Y-126170288D01*
X143457011Y-126115548D01*
X143402914Y-126044447D01*
X143358036Y-125955073D01*
X143321847Y-125845510D01*
X143293816Y-125713842D01*
X143273412Y-125558155D01*
X143260104Y-125376534D01*
X143254141Y-125208122D01*
X143251401Y-125112501D01*
X143247685Y-125025930D01*
X143243303Y-124953335D01*
X143240009Y-124915992D01*
X143533624Y-124915992D01*
X143542348Y-125165654D01*
X143552138Y-125354885D01*
X143567318Y-125518941D01*
X143587721Y-125656874D01*
X143613181Y-125767736D01*
X143643534Y-125850581D01*
X143669876Y-125894357D01*
X143703888Y-125926314D01*
X143752679Y-125959477D01*
X143805611Y-125987793D01*
X143852047Y-126005208D01*
X143869469Y-126007935D01*
X143894779Y-125998200D01*
X143931164Y-125972280D01*
X143961449Y-125944796D01*
X143991063Y-125912363D01*
X144014745Y-125878016D01*
X144036067Y-125834690D01*
X144058597Y-125775319D01*
X144080957Y-125708220D01*
X144108049Y-125619635D01*
X144135788Y-125521092D01*
X144160151Y-125427217D01*
X144171800Y-125377765D01*
X144191340Y-125294026D01*
X144213887Y-125203758D01*
X144235717Y-125121672D01*
X144244200Y-125091716D01*
X144267420Y-125006258D01*
X144284326Y-124932342D01*
X144294199Y-124874214D01*
X144296322Y-124836117D01*
X144289976Y-124822297D01*
X144289778Y-124822297D01*
X144269218Y-124824468D01*
X144228004Y-124829861D01*
X144177017Y-124837030D01*
X144122726Y-124844431D01*
X144048312Y-124853964D01*
X143963504Y-124864407D01*
X143878033Y-124874541D01*
X143876603Y-124874707D01*
X143794889Y-124884232D01*
X143717229Y-124893389D01*
X143651974Y-124901186D01*
X143607472Y-124906633D01*
X143604802Y-124906970D01*
X143533624Y-124915992D01*
X143240009Y-124915992D01*
X143238567Y-124899640D01*
X143233788Y-124869772D01*
X143232570Y-124866503D01*
X143218364Y-124810869D01*
X143228785Y-124752624D01*
X143260160Y-124699241D01*
X143308817Y-124658189D01*
X143342260Y-124643367D01*
X143394653Y-124630051D01*
X143474364Y-124614535D01*
X143578783Y-124597243D01*
X143705301Y-124578597D01*
X143851308Y-124559020D01*
X143901466Y-124552660D01*
X144002651Y-124539941D01*
X144081622Y-124529829D01*
X144145981Y-124521279D01*
X144203334Y-124513247D01*
X144261285Y-124504687D01*
X144327437Y-124494554D01*
X144351910Y-124490757D01*
X144445485Y-124478644D01*
X144515717Y-124475953D01*
X144567974Y-124483257D01*
G37*
G36*
X142206263Y-121836490D02*
G01*
X142270549Y-121840620D01*
X142320964Y-121847959D01*
X142349499Y-121858223D01*
X142349567Y-121858276D01*
X142377282Y-121871601D01*
X142417889Y-121882953D01*
X142420719Y-121883508D01*
X142457471Y-121895647D01*
X142510053Y-121919356D01*
X142568879Y-121950191D01*
X142587267Y-121960725D01*
X142640677Y-121990950D01*
X142685235Y-122014167D01*
X142713980Y-122026830D01*
X142719648Y-122028149D01*
X142741979Y-122039388D01*
X142776919Y-122069387D01*
X142819465Y-122112570D01*
X142864613Y-122163359D01*
X142907359Y-122216179D01*
X142942700Y-122265454D01*
X142962252Y-122298522D01*
X143010647Y-122414908D01*
X143039489Y-122536800D01*
X143050159Y-122671764D01*
X143048084Y-122768607D01*
X143029063Y-122939911D01*
X142991642Y-123096390D01*
X142936993Y-123234973D01*
X142866283Y-123352590D01*
X142794785Y-123433454D01*
X142731330Y-123483874D01*
X142652216Y-123533240D01*
X142563672Y-123578976D01*
X142471928Y-123618504D01*
X142383215Y-123649249D01*
X142303761Y-123668635D01*
X142239797Y-123674084D01*
X142218971Y-123671581D01*
X142187565Y-123665141D01*
X142139568Y-123655637D01*
X142106316Y-123649172D01*
X142039889Y-123633994D01*
X141978750Y-123613881D01*
X141916642Y-123585786D01*
X141847306Y-123546657D01*
X141764483Y-123493446D01*
X141708083Y-123455124D01*
X141586194Y-123363000D01*
X141493993Y-123274891D01*
X141431404Y-123190722D01*
X141419529Y-123168573D01*
X141379265Y-123060670D01*
X141352686Y-122933884D01*
X141340248Y-122796304D01*
X141342405Y-122656017D01*
X141359613Y-122521114D01*
X141378635Y-122441678D01*
X141398302Y-122377472D01*
X141417406Y-122320391D01*
X141432877Y-122279410D01*
X141437667Y-122268939D01*
X141455434Y-122244778D01*
X141490435Y-122205030D01*
X141531529Y-122161584D01*
X142203951Y-122161584D01*
X142262492Y-122210441D01*
X142338399Y-122290618D01*
X142405336Y-122394966D01*
X142460679Y-122518291D01*
X142501803Y-122655402D01*
X142512050Y-122704081D01*
X142519452Y-122761849D01*
X142524600Y-122838796D01*
X142527371Y-122925632D01*
X142527639Y-123013067D01*
X142525281Y-123091810D01*
X142520173Y-123152573D01*
X142518211Y-123165219D01*
X142507885Y-123222295D01*
X142548918Y-123184743D01*
X142580855Y-123148018D01*
X142613480Y-123099252D01*
X142624911Y-123078526D01*
X142668442Y-122969486D01*
X142696204Y-122849085D01*
X142707444Y-122725902D01*
X142701411Y-122608521D01*
X142677353Y-122505522D01*
X142675563Y-122500634D01*
X142641124Y-122426434D01*
X142595918Y-122364563D01*
X142535573Y-122311456D01*
X142455717Y-122263544D01*
X142351977Y-122217263D01*
X142306915Y-122199931D01*
X142203951Y-122161584D01*
X141531529Y-122161584D01*
X141538033Y-122154708D01*
X141593592Y-122098820D01*
X141609168Y-122083608D01*
X141695801Y-122003444D01*
X141771013Y-121943744D01*
X141841153Y-121900752D01*
X141912571Y-121870710D01*
X141991615Y-121849860D01*
X142010271Y-121846205D01*
X142068115Y-121838998D01*
X142136116Y-121835854D01*
X142206263Y-121836490D01*
G37*
G36*
X147395808Y-121498584D02*
G01*
X147492730Y-121517080D01*
X147582253Y-121549014D01*
X147681894Y-121598468D01*
X147782584Y-121659845D01*
X147875254Y-121727550D01*
X147950836Y-121795985D01*
X147959190Y-121804925D01*
X148023509Y-121894020D01*
X148076414Y-122004859D01*
X148115636Y-122130570D01*
X148138908Y-122264283D01*
X148144531Y-122366509D01*
X148141256Y-122471800D01*
X148132069Y-122583255D01*
X148118187Y-122690420D01*
X148100827Y-122782843D01*
X148092030Y-122817453D01*
X148057629Y-122901040D01*
X148002804Y-122991223D01*
X147933710Y-123080592D01*
X147856502Y-123161740D01*
X147777332Y-123227258D01*
X147724927Y-123259403D01*
X147650669Y-123289980D01*
X147558200Y-123314476D01*
X147443773Y-123333666D01*
X147303642Y-123348322D01*
X147288457Y-123349538D01*
X147205762Y-123356077D01*
X147126726Y-123362456D01*
X147059842Y-123367982D01*
X147013604Y-123371962D01*
X147010574Y-123372236D01*
X146951651Y-123372176D01*
X146883977Y-123364476D01*
X146848291Y-123357179D01*
X146786801Y-123336705D01*
X146725953Y-123308583D01*
X146698084Y-123291846D01*
X146643097Y-123250009D01*
X146580063Y-123195819D01*
X146514306Y-123134570D01*
X146451149Y-123071555D01*
X146395917Y-123012068D01*
X146353933Y-122961402D01*
X146331865Y-122927703D01*
X146304643Y-122858021D01*
X146281585Y-122771762D01*
X146264782Y-122680143D01*
X146256329Y-122594381D01*
X146257717Y-122530369D01*
X146274603Y-122444076D01*
X146305446Y-122341006D01*
X146347190Y-122227985D01*
X146396781Y-122111836D01*
X146451160Y-121999384D01*
X146507274Y-121897454D01*
X146558833Y-121817860D01*
X147286127Y-121817860D01*
X147355582Y-121896718D01*
X147438972Y-122012940D01*
X147500556Y-122148038D01*
X147537003Y-122282086D01*
X147553559Y-122437143D01*
X147540170Y-122589939D01*
X147496855Y-122740401D01*
X147423631Y-122888459D01*
X147369275Y-122970698D01*
X147353802Y-122994926D01*
X147359577Y-123003473D01*
X147381533Y-123004495D01*
X147416678Y-123000248D01*
X147466544Y-122989383D01*
X147498241Y-122980722D01*
X147562334Y-122951043D01*
X147630805Y-122902170D01*
X147694740Y-122841850D01*
X147745222Y-122777829D01*
X147759019Y-122754150D01*
X147780085Y-122695232D01*
X147796061Y-122614536D01*
X147806543Y-122519956D01*
X147811128Y-122419388D01*
X147809413Y-122320727D01*
X147800993Y-122231867D01*
X147788796Y-122171831D01*
X147768946Y-122113954D01*
X147741910Y-122067089D01*
X147700042Y-122018884D01*
X147684456Y-122003305D01*
X147624772Y-121952722D01*
X147554007Y-121904870D01*
X147479845Y-121863859D01*
X147409969Y-121833801D01*
X147352062Y-121818807D01*
X147337846Y-121817860D01*
X147286127Y-121817860D01*
X146558833Y-121817860D01*
X146562066Y-121812869D01*
X146600475Y-121764897D01*
X146701126Y-121675546D01*
X146822382Y-121602003D01*
X146958360Y-121545901D01*
X147103179Y-121508875D01*
X147250956Y-121492558D01*
X147395808Y-121498584D01*
G37*
D13*
%TO.C,R3*%
X163942500Y-88312258D02*
X163942500Y-87837742D01*
X164987500Y-88312258D02*
X164987500Y-87837742D01*
%TO.C,C9*%
X121740000Y-105659437D02*
X121740000Y-115115000D01*
X121740000Y-115115000D02*
X125490000Y-115115000D01*
X122804437Y-104595000D02*
X121740000Y-105659437D01*
X122804437Y-104595000D02*
X125490000Y-104595000D01*
X129760000Y-103105000D02*
X129760000Y-104355000D01*
X130385000Y-103730000D02*
X129135000Y-103730000D01*
X131195563Y-104595000D02*
X128510000Y-104595000D01*
X131195563Y-104595000D02*
X132260000Y-105659437D01*
X132260000Y-105659437D02*
X132260000Y-115115000D01*
X132260000Y-115115000D02*
X128510000Y-115115000D01*
%TO.C,R6*%
X151757742Y-115696474D02*
X152232258Y-115696474D01*
X151757742Y-116741474D02*
X152232258Y-116741474D01*
%TO.C,J1*%
X104380000Y-81052500D02*
X104380000Y-89022500D01*
X104380000Y-97672500D02*
X104380000Y-93922500D01*
X108740000Y-98372500D02*
X109740000Y-98372500D01*
X109240000Y-97872500D02*
X108740000Y-98372500D01*
X109740000Y-98372500D02*
X109240000Y-97872500D01*
X116600000Y-81052500D02*
X104380000Y-81052500D01*
X116600000Y-81052500D02*
X116600000Y-89022500D01*
X116600000Y-97672500D02*
X104380000Y-97672500D01*
X116600000Y-97672500D02*
X116600000Y-93922500D01*
%TO.C,D4*%
X124370000Y-93700000D02*
X124370000Y-98760000D01*
X127090000Y-93700000D02*
X124370000Y-93700000D01*
X127090000Y-93700000D02*
X127090000Y-98760000D01*
%TO.C,R5*%
X141207258Y-94367885D02*
X140732742Y-94367885D01*
X141207258Y-95412885D02*
X140732742Y-95412885D01*
%TO.C,C4*%
X120775000Y-94969420D02*
X120775000Y-95250580D01*
X121795000Y-94969420D02*
X121795000Y-95250580D01*
%TO.C,J2*%
X181555000Y-108250000D02*
X181555000Y-111990000D01*
X191275000Y-102840000D02*
X185665000Y-102840000D01*
X191275000Y-102840000D02*
X191275000Y-103690000D01*
X191275000Y-117710000D02*
X191275000Y-118560000D01*
X191275000Y-118560000D02*
X185665000Y-118560000D01*
X198975000Y-103690000D02*
X191275000Y-103690000D01*
X198975000Y-103690000D02*
X198975000Y-117710000D01*
X198975000Y-117710000D02*
X191275000Y-117710000D01*
X181706282Y-105710100D02*
G75*
G02*
X185665000Y-102840000I3918716J-1239898D01*
G01*
X185665000Y-118560000D02*
G75*
G02*
X182142042Y-116566806I0J4110000D01*
G01*
%TO.C,D3*%
X162840000Y-125070000D02*
X157780000Y-125070000D01*
X162840000Y-127790000D02*
X157780000Y-127790000D01*
X162840000Y-127790000D02*
X162840000Y-125070000D01*
%TO.C,J4*%
X103535000Y-121370000D02*
X109535000Y-121370000D01*
X103535000Y-130430000D02*
X103535000Y-121400000D01*
X103535000Y-130430000D02*
X109535000Y-130430000D01*
X109535000Y-120840000D02*
X111585000Y-120840000D01*
X109535000Y-121370000D02*
X109535000Y-120840000D01*
X109535000Y-130960000D02*
X109535000Y-130430000D01*
X109535000Y-130960000D02*
X111585000Y-130960000D01*
X111585000Y-120840000D02*
X111585000Y-120140000D01*
X111585000Y-131660000D02*
X111585000Y-130960000D01*
X113805000Y-131660000D02*
X113805000Y-120140000D01*
X111585000Y-120250000D02*
G75*
G02*
X113805000Y-120250000I1110000J0D01*
G01*
X113791635Y-131721729D02*
G75*
G02*
X111585000Y-131550000I-1096635J171730D01*
G01*
%TO.C,SW1*%
X168615000Y-84735000D02*
X180835000Y-84735000D01*
X168615000Y-87245000D02*
X168615000Y-84735000D01*
X168615000Y-92145000D02*
X168615000Y-89545000D01*
X168615000Y-96955000D02*
X168615000Y-94445000D01*
X180835000Y-87245000D02*
X180835000Y-84735000D01*
X180835000Y-92145000D02*
X180835000Y-89545000D01*
X180835000Y-96955000D02*
X168615000Y-96955000D01*
X180835000Y-96955000D02*
X180835000Y-94445000D01*
X178275000Y-90845000D02*
G75*
G02*
X171175000Y-90845000I-3550000J0D01*
G01*
X171175000Y-90845000D02*
G75*
G02*
X178275000Y-90845000I3550000J0D01*
G01*
%TO.C,D1*%
X103137500Y-98325000D02*
X103137500Y-99795000D01*
X103137500Y-99795000D02*
X105422500Y-99795000D01*
X105422500Y-98325000D02*
X103137500Y-98325000D01*
%TO.C,C3*%
X122555580Y-89025000D02*
X122274420Y-89025000D01*
X122555580Y-90045000D02*
X122274420Y-90045000D01*
%TO.C,J5*%
X187605000Y-120605000D02*
X187605000Y-132125000D01*
X189825000Y-120605000D02*
X189825000Y-121305000D01*
X189825000Y-131425000D02*
X189825000Y-132125000D01*
X191875000Y-121305000D02*
X189825000Y-121305000D01*
X191875000Y-121305000D02*
X191875000Y-121835000D01*
X191875000Y-130895000D02*
X191875000Y-131425000D01*
X191875000Y-131425000D02*
X189825000Y-131425000D01*
X197875000Y-121835000D02*
X191875000Y-121835000D01*
X197875000Y-121835000D02*
X197875000Y-130865000D01*
X197875000Y-130895000D02*
X191875000Y-130895000D01*
X187618365Y-120543271D02*
G75*
G02*
X189825000Y-120715000I1096635J-171730D01*
G01*
X189825000Y-132015000D02*
G75*
G02*
X187605000Y-132015000I-1110000J0D01*
G01*
%TO.C,C6*%
X122555580Y-99185000D02*
X122274420Y-99185000D01*
X122555580Y-100205000D02*
X122274420Y-100205000D01*
%TO.C,R1*%
X108187258Y-98537500D02*
X107712742Y-98537500D01*
X108187258Y-99582500D02*
X107712742Y-99582500D01*
%TO.C,C7*%
X146870580Y-112520000D02*
X146589420Y-112520000D01*
X146870580Y-113540000D02*
X146589420Y-113540000D01*
%TO.C,R2*%
X163942500Y-97392258D02*
X163942500Y-96917742D01*
X164987500Y-97392258D02*
X164987500Y-96917742D01*
%TO.C,C8*%
X121740000Y-121724437D02*
X121740000Y-131180000D01*
X121740000Y-131180000D02*
X125490000Y-131180000D01*
X122804437Y-120660000D02*
X121740000Y-121724437D01*
X122804437Y-120660000D02*
X125490000Y-120660000D01*
X129760000Y-119170000D02*
X129760000Y-120420000D01*
X130385000Y-119795000D02*
X129135000Y-119795000D01*
X131195563Y-120660000D02*
X128510000Y-120660000D01*
X131195563Y-120660000D02*
X132260000Y-121724437D01*
X132260000Y-121724437D02*
X132260000Y-131180000D01*
X132260000Y-131180000D02*
X128510000Y-131180000D01*
%TO.C,J3*%
X101300000Y-102230000D02*
X115610000Y-102230000D01*
X101300000Y-117950000D02*
X101300000Y-102230000D01*
X101300000Y-117950000D02*
X115610000Y-117950000D01*
X119720000Y-111380000D02*
X119720000Y-107640000D01*
X115610000Y-102230000D02*
G75*
G02*
X119540413Y-105138352I0J-4110000D01*
G01*
X119132958Y-115956806D02*
G75*
G02*
X115610000Y-117950000I-3522957J2116805D01*
G01*
%TO.C,U5*%
X153480000Y-103740000D02*
X153480000Y-107240000D01*
X153480000Y-103740000D02*
X173280000Y-103740000D01*
X173280000Y-110740000D01*
X153480000Y-110740000D01*
X153480000Y-103740000D01*
%TO.C,U3*%
X130915000Y-93325000D02*
X130915000Y-93595000D01*
X130915000Y-100225000D02*
X130915000Y-99955000D01*
X137335000Y-93325000D02*
X130915000Y-93325000D01*
X137335000Y-100225000D02*
X130915000Y-100225000D01*
X129495000Y-93635000D02*
X129255000Y-93305000D01*
X129735000Y-93305000D01*
X129495000Y-93635000D01*
G36*
X129495000Y-93635000D02*
G01*
X129255000Y-93305000D01*
X129735000Y-93305000D01*
X129495000Y-93635000D01*
G37*
%TO.C,R7*%
X148702500Y-117267258D02*
X148702500Y-116792742D01*
X149747500Y-117267258D02*
X149747500Y-116792742D01*
%TO.C,C1*%
X122680000Y-85089420D02*
X122680000Y-85370580D01*
X123700000Y-85089420D02*
X123700000Y-85370580D01*
%TO.C,U1*%
X143785000Y-85100000D02*
X143785000Y-84800000D01*
X143785000Y-99320000D02*
X143785000Y-98520000D01*
X162005000Y-84800000D02*
X143785000Y-84800000D01*
X162005000Y-85100000D02*
X162005000Y-84800000D01*
X162005000Y-99320000D02*
X143785000Y-99320000D01*
X162005000Y-99320000D02*
X162005000Y-98520000D01*
X162295000Y-99010000D02*
X162295000Y-98510000D01*
X162795000Y-98510000D01*
X162295000Y-99010000D01*
G36*
X162295000Y-99010000D02*
G01*
X162295000Y-98510000D01*
X162795000Y-98510000D01*
X162295000Y-99010000D01*
G37*
%TO.C,D2*%
X103137500Y-100230000D02*
X103137500Y-101700000D01*
X103137500Y-101700000D02*
X105422500Y-101700000D01*
X105422500Y-100230000D02*
X103137500Y-100230000D01*
%TO.C,Q1*%
X159310000Y-113545000D02*
X159310000Y-115355000D01*
X159310000Y-123945000D02*
X159310000Y-122135000D01*
X160810000Y-113545000D02*
X159310000Y-113545000D01*
X160810000Y-123945000D02*
X159310000Y-123945000D01*
X156747500Y-115355000D02*
X156507500Y-115025000D01*
X156987500Y-115025000D01*
X156747500Y-115355000D01*
G36*
X156747500Y-115355000D02*
G01*
X156507500Y-115025000D01*
X156987500Y-115025000D01*
X156747500Y-115355000D01*
G37*
%TO.C,U2*%
X131090000Y-83165000D02*
X131090000Y-83435000D01*
X131090000Y-90065000D02*
X131090000Y-89795000D01*
X137510000Y-83165000D02*
X131090000Y-83165000D01*
X137510000Y-90065000D02*
X131090000Y-90065000D01*
X129670000Y-83475000D02*
X129430000Y-83145000D01*
X129910000Y-83145000D01*
X129670000Y-83475000D01*
G36*
X129670000Y-83475000D02*
G01*
X129430000Y-83145000D01*
X129910000Y-83145000D01*
X129670000Y-83475000D01*
G37*
%TO.C,SW2*%
X185125000Y-84735000D02*
X185125000Y-87245000D01*
X185125000Y-84735000D02*
X197345000Y-84735000D01*
X185125000Y-89545000D02*
X185125000Y-92145000D01*
X185125000Y-94445000D02*
X185125000Y-96955000D01*
X197345000Y-84735000D02*
X197345000Y-87245000D01*
X197345000Y-89545000D02*
X197345000Y-92145000D01*
X197345000Y-94445000D02*
X197345000Y-96955000D01*
X197345000Y-96955000D02*
X185125000Y-96955000D01*
X194785000Y-90845000D02*
G75*
G02*
X187685000Y-90845000I-3550000J0D01*
G01*
X187685000Y-90845000D02*
G75*
G02*
X194785000Y-90845000I3550000J0D01*
G01*
%TO.C,R4*%
X108187258Y-100442500D02*
X107712742Y-100442500D01*
X108187258Y-101487500D02*
X107712742Y-101487500D01*
%TO.C,C5*%
X122680000Y-94969420D02*
X122680000Y-95250580D01*
X123700000Y-94969420D02*
X123700000Y-95250580D01*
%TO.C,C2*%
X120775000Y-85089420D02*
X120775000Y-85370580D01*
X121795000Y-85089420D02*
X121795000Y-85370580D01*
%TO.C,U4*%
X145830000Y-114285000D02*
X142830000Y-114285000D01*
X145830000Y-118125000D02*
X142830000Y-118125000D01*
X141205000Y-114255000D02*
X140965000Y-113925000D01*
X141445000Y-113925000D01*
X141205000Y-114255000D01*
G36*
X141205000Y-114255000D02*
G01*
X140965000Y-113925000D01*
X141445000Y-113925000D01*
X141205000Y-114255000D01*
G37*
%TO.C,D5*%
X124370000Y-83540000D02*
X124370000Y-88600000D01*
X127090000Y-83540000D02*
X124370000Y-83540000D01*
X127090000Y-83540000D02*
X127090000Y-88600000D01*
%TD*%
M02*
