%TF.GenerationSoftware,KiCad,Pcbnew,8.0.3*%
%TF.CreationDate,2024-08-31T13:36:08+09:00*%
%TF.ProjectId,Altair_Remote_Emergency_Stop_V1,416c7461-6972-45f5-9265-6d6f74655f45,rev?*%
%TF.SameCoordinates,Original*%
%TF.FileFunction,Soldermask,Top*%
%TF.FilePolarity,Negative*%
%FSLAX46Y46*%
G04 Gerber Fmt 4.6, Leading zero omitted, Abs format (unit mm)*
G04 Created by KiCad (PCBNEW 8.0.3) date 2024-08-31 13:36:08*
%MOMM*%
%LPD*%
G01*
G04 APERTURE LIST*
G04 Aperture macros list*
%AMRoundRect*
0 Rectangle with rounded corners*
0 $1 Rounding radius*
0 $2 $3 $4 $5 $6 $7 $8 $9 X,Y pos of 4 corners*
0 Add a 4 corners polygon primitive as box body*
4,1,4,$2,$3,$4,$5,$6,$7,$8,$9,$2,$3,0*
0 Add four circle primitives for the rounded corners*
1,1,$1+$1,$2,$3*
1,1,$1+$1,$4,$5*
1,1,$1+$1,$6,$7*
1,1,$1+$1,$8,$9*
0 Add four rect primitives between the rounded corners*
20,1,$1+$1,$2,$3,$4,$5,0*
20,1,$1+$1,$4,$5,$6,$7,0*
20,1,$1+$1,$6,$7,$8,$9,0*
20,1,$1+$1,$8,$9,$2,$3,0*%
G04 Aperture macros list end*
%ADD10RoundRect,0.200000X0.275000X-0.200000X0.275000X0.200000X-0.275000X0.200000X-0.275000X-0.200000X0*%
%ADD11RoundRect,0.250000X-1.000000X1.750000X-1.000000X-1.750000X1.000000X-1.750000X1.000000X1.750000X0*%
%ADD12RoundRect,0.200000X-0.200000X-0.275000X0.200000X-0.275000X0.200000X0.275000X-0.200000X0.275000X0*%
%ADD13R,1.600000X1.600000*%
%ADD14C,1.600000*%
%ADD15C,4.000000*%
%ADD16RoundRect,0.250000X-0.800000X0.450000X-0.800000X-0.450000X0.800000X-0.450000X0.800000X0.450000X0*%
%ADD17RoundRect,0.200000X0.200000X0.275000X-0.200000X0.275000X-0.200000X-0.275000X0.200000X-0.275000X0*%
%ADD18RoundRect,0.225000X-0.250000X0.225000X-0.250000X-0.225000X0.250000X-0.225000X0.250000X0.225000X0*%
%ADD19R,2.000000X0.900000*%
%ADD20RoundRect,1.025000X-1.025000X1.025000X-1.025000X-1.025000X1.025000X-1.025000X1.025000X1.025000X0*%
%ADD21C,4.100000*%
%ADD22RoundRect,0.250000X0.450000X0.800000X-0.450000X0.800000X-0.450000X-0.800000X0.450000X-0.800000X0*%
%ADD23C,1.400000*%
%ADD24R,3.500000X3.500000*%
%ADD25C,3.500000*%
%ADD26O,3.200000X1.900000*%
%ADD27RoundRect,0.218750X-0.218750X-0.256250X0.218750X-0.256250X0.218750X0.256250X-0.218750X0.256250X0*%
%ADD28RoundRect,0.225000X0.225000X0.250000X-0.225000X0.250000X-0.225000X-0.250000X0.225000X-0.250000X0*%
%ADD29RoundRect,1.025000X1.025000X-1.025000X1.025000X1.025000X-1.025000X1.025000X-1.025000X-1.025000X0*%
%ADD30C,2.500000*%
%ADD31RoundRect,0.250000X-0.850000X-0.350000X0.850000X-0.350000X0.850000X0.350000X-0.850000X0.350000X0*%
%ADD32RoundRect,0.249997X-2.950003X-2.650003X2.950003X-2.650003X2.950003X2.650003X-2.950003X2.650003X0*%
%ADD33R,1.500000X0.900000*%
%ADD34C,0.600000*%
%ADD35R,2.900000X2.900000*%
%ADD36RoundRect,0.250000X-2.050000X-0.300000X2.050000X-0.300000X2.050000X0.300000X-2.050000X0.300000X0*%
%ADD37RoundRect,0.250002X-4.449998X-5.149998X4.449998X-5.149998X4.449998X5.149998X-4.449998X5.149998X0*%
%ADD38R,1.200000X0.800000*%
G04 APERTURE END LIST*
D10*
%TO.C,R3*%
X164465000Y-88900000D03*
X164465000Y-87250000D03*
%TD*%
D11*
%TO.C,C9*%
X127000000Y-105855000D03*
X127000000Y-113855000D03*
%TD*%
D12*
%TO.C,R6*%
X151170000Y-116218974D03*
X152820000Y-116218974D03*
%TD*%
D13*
%TO.C,J1*%
X109240000Y-96322500D03*
D14*
X111740000Y-96322500D03*
X111740000Y-94322500D03*
X109240000Y-94322500D03*
D15*
X104490000Y-91462500D03*
X116490000Y-91462500D03*
%TD*%
D16*
%TO.C,D4*%
X125730000Y-94660000D03*
X125730000Y-99060000D03*
%TD*%
D17*
%TO.C,R5*%
X141795000Y-94890385D03*
X140145000Y-94890385D03*
%TD*%
D18*
%TO.C,C4*%
X121285000Y-94335000D03*
X121285000Y-95885000D03*
%TD*%
D19*
%TO.C,J2*%
X189515000Y-103950000D03*
X189515000Y-117450000D03*
D20*
X183515000Y-114300000D03*
D21*
X183515000Y-107100000D03*
%TD*%
D22*
%TO.C,D3*%
X161880000Y-126430000D03*
X157480000Y-126430000D03*
%TD*%
D23*
%TO.C,J4*%
X112695000Y-131400000D03*
X112695000Y-120400000D03*
D24*
X117695000Y-128400000D03*
D25*
X117695000Y-123400000D03*
%TD*%
D26*
%TO.C,SW1*%
X180975000Y-93345000D03*
X168475000Y-93345000D03*
X180975000Y-88345000D03*
X168475000Y-88345000D03*
%TD*%
D27*
%TO.C,D1*%
X103835000Y-99060000D03*
X105410000Y-99060000D03*
%TD*%
D28*
%TO.C,C3*%
X123190000Y-89535000D03*
X121640000Y-89535000D03*
%TD*%
D23*
%TO.C,J5*%
X188715000Y-120865000D03*
X188715000Y-131865000D03*
D24*
X183715000Y-123865000D03*
D25*
X183715000Y-128865000D03*
%TD*%
D28*
%TO.C,C6*%
X123190000Y-99695000D03*
X121640000Y-99695000D03*
%TD*%
D17*
%TO.C,R1*%
X108775000Y-99060000D03*
X107125000Y-99060000D03*
%TD*%
D28*
%TO.C,C7*%
X147505000Y-113030000D03*
X145955000Y-113030000D03*
%TD*%
D10*
%TO.C,R2*%
X164465000Y-97980000D03*
X164465000Y-96330000D03*
%TD*%
D11*
%TO.C,C8*%
X127000000Y-121920000D03*
X127000000Y-129920000D03*
%TD*%
D19*
%TO.C,J3*%
X111760000Y-116840000D03*
X111760000Y-103340000D03*
D29*
X117760000Y-113690000D03*
D21*
X117760000Y-106490000D03*
%TD*%
D30*
%TO.C,U5*%
X156380000Y-105240000D03*
X156380000Y-109240000D03*
X170380000Y-105240000D03*
X170380000Y-109240000D03*
%TD*%
D31*
%TO.C,U3*%
X129185000Y-94495000D03*
D32*
X135485000Y-96775000D03*
D31*
X129185000Y-99055000D03*
%TD*%
D10*
%TO.C,R7*%
X149225000Y-117855000D03*
X149225000Y-116205000D03*
%TD*%
D18*
%TO.C,C1*%
X123190000Y-84455000D03*
X123190000Y-86005000D03*
%TD*%
D33*
%TO.C,U1*%
X161645000Y-97810000D03*
X161645000Y-96310000D03*
X161645000Y-94810000D03*
X161645000Y-93310000D03*
X161645000Y-91810000D03*
X161645000Y-90310000D03*
X161645000Y-88810000D03*
X161645000Y-87310000D03*
X161645000Y-85810000D03*
X144145000Y-85810000D03*
X144145000Y-87310000D03*
X144145000Y-88810000D03*
X144145000Y-90310000D03*
X144145000Y-91810000D03*
X144145000Y-93310000D03*
X144145000Y-94810000D03*
X144145000Y-96310000D03*
X144145000Y-97810000D03*
D34*
X153035000Y-92160000D03*
X153035000Y-91060000D03*
X152485000Y-92710000D03*
X152485000Y-91610000D03*
X152485000Y-90510000D03*
X151935000Y-92160000D03*
D35*
X151935000Y-91610000D03*
D34*
X151935000Y-91060000D03*
X151385000Y-92710000D03*
X151385000Y-91610000D03*
X151385000Y-90510000D03*
X150835000Y-92160000D03*
X150835000Y-91060000D03*
%TD*%
D27*
%TO.C,D2*%
X103835000Y-100965000D03*
X105410000Y-100965000D03*
%TD*%
D36*
%TO.C,Q1*%
X156485000Y-116205000D03*
D37*
X165635000Y-118745000D03*
D36*
X156485000Y-121285000D03*
%TD*%
D31*
%TO.C,U2*%
X129360000Y-84335000D03*
D32*
X135660000Y-86615000D03*
D31*
X129360000Y-88895000D03*
%TD*%
D26*
%TO.C,SW2*%
X184985000Y-88345000D03*
X197485000Y-88345000D03*
X184985000Y-93345000D03*
X197485000Y-93345000D03*
%TD*%
D17*
%TO.C,R4*%
X108775000Y-100965000D03*
X107125000Y-100965000D03*
%TD*%
D18*
%TO.C,C5*%
X123190000Y-94335000D03*
X123190000Y-95885000D03*
%TD*%
%TO.C,C2*%
X121285000Y-84455000D03*
X121285000Y-86005000D03*
%TD*%
D38*
%TO.C,U4*%
X141180000Y-114935000D03*
X141180000Y-117475000D03*
X147480000Y-117475000D03*
X147480000Y-116205000D03*
X147480000Y-114935000D03*
%TD*%
D16*
%TO.C,D5*%
X125730000Y-84500000D03*
X125730000Y-88900000D03*
%TD*%
M02*
